<svg width="44" height="108" fill="none" xmlns="http://www.w3.org/2000/svg"><path fill-rule="evenodd" clip-rule="evenodd" d="M41.087.182c-.86.173-1.192.333-3.554 1.873-2.213 1.435-3.463 2.17-7.338 4.364-3.566 2.022-6.869 4.41-7.82 5.663-.723.953-.401 2.125.653 2.446.643.195 1.136-.011 3.44-1.47 3.658-2.297 7.029-4.422 8.76-5.513.929-.597 1.72-1.068 1.743-1.045.034.046-1.548 2.24-4.265 5.926-8.543 11.555-13.633 19.515-18.334 28.67-4.013 7.787-7.843 17.504-9.953 25.223-2.545 9.269-4.23 21.1-4.402 30.85-.115 6.41.298 9.546 1.364 10.442.355.298.665.379.665.172 0-.069-.092-.31-.218-.551-.458-.919-.527-1.62-.527-5.766 0-4.847.39-9.844 1.272-16.425 1.41-10.567 3.383-18.757 6.582-27.28 4.414-11.773 9.195-21.019 16.809-32.516 2.19-3.32 9.425-13.427 9.528-13.324.011.011-.333 1-.768 2.205-1.95 5.376-3.245 10.66-3.543 14.519-.058.85-.15 2.676-.184 4.054-.057 2.205-.046 2.504.115 2.561.103.046.218.046.252 0 .034-.034.287-1.39.562-3.02.275-1.631.688-3.699.906-4.583 1.353-5.456 5.893-16.322 8.943-21.41 1.915-3.193 2.305-4.33 1.812-5.284-.436-.838-1.101-1.045-2.5-.78Z" fill="#003057" fill-opacity=".3"/></svg>