<svg width="20" height="21" fill="none" xmlns="http://www.w3.org/2000/svg"><path d="M18.04 1.94h.4l.24.16.12.2v.32l-.32.56-.56.92-.48.76-.36.56-.48.76-.2.4-.32.48-.56.88-.48.76-.36.64-.56.88-.4.6-.44.72-.16.28-.12.24h-.08l-.08.2-.56.92-.36.56-.32.48-.2.4-.52.8-.48.76-.48.8-.52.84-.36.56-.2.24-.44.28-.44.16h-.72l-.48-.16-.16-.12-.2-.12-.48-.56-.44-.56-.4-.48-.44-.56-.48-.56-.44-.56-.2-.2-.32-.44-.56-.68-.2-.24v-.08l-.16-.08-.32-.4-.2-.24-.12-.2-.24-.36-.16-.4-.04-.2v-.56l.16-.52.24-.36.28-.32.4-.24.4-.12h.76l.44.16.44.28.32.32.32.28.48.44.4.36.48.44.4.36.48.44.44.36.24.04.24-.16.28-.36.2-.2.28-.32.48-.52.28-.32.36-.4.36-.44.52-.56.28-.32.36-.4.36-.44.48-.52.28-.32.36-.4.24-.28h.08l.08-.2.48-.52.28-.32.36-.4.2-.24.2-.2.36-.44.44-.48.28-.32.16-.2.2-.2.36-.4.36-.44.44-.48.2-.2.2-.2.12-.08Z" fill="#97D700"/></svg>