<svg width="24" height="25" fill="none" xmlns="http://www.w3.org/2000/svg"><path fill-rule="evenodd" clip-rule="evenodd" d="M6.902 5.956a.751.751 0 0 0-.188.05 138.237 138.237 0 0 0-2.572.226l-.162.016-.055.006h-.002a.75.75 0 0 0 .154 1.492l-.001-.007v.007l.055-.005.158-.016.59-.056c.503-.047 1.205-.11 2.005-.171C8.49 7.373 10.465 7.25 12 7.25c1.535 0 3.51.123 5.116.248a136.52 136.52 0 0 1 2.595.227l.159.016.053.005a.75.75 0 0 0 .154-1.492l-.057-.006-.162-.016-.599-.057c-.496-.046-1.186-.107-1.973-.169a.752.752 0 0 0-.164-.046 1.438 1.438 0 0 1-1.099-.88l-.09-.224A3.368 3.368 0 0 0 12.81 2.75h-1.347a3.323 3.323 0 0 0-3.081 2.078A1.823 1.823 0 0 1 6.93 5.953l-.028.003Zm4.56-1.706c-.742 0-1.411.451-1.69 1.14-.06.15-.13.293-.21.43.849-.042 1.69-.07 2.438-.07.83 0 1.775.034 2.719.085a2.975 2.975 0 0 1-.087-.193l-.09-.224A1.868 1.868 0 0 0 12.81 4.25h-1.347Z" fill="#003057" fill-opacity=".5"/><path d="M18.747 9.565a.75.75 0 1 0-1.494-.13l-.805 9.26a2.25 2.25 0 0 1-2.242 2.055H9.394a2.25 2.25 0 0 1-2.248-2.152l-.397-9.13a.75.75 0 0 0-1.498.065l.397 9.13a3.75 3.75 0 0 0 3.746 3.587h4.812a3.75 3.75 0 0 0 3.736-3.425l.805-9.26Z" fill="#003057" fill-opacity=".5"/><path d="M9 17.75a.75.75 0 0 0 0 1.5h5.578a.75.75 0 0 0 0-1.5H9Z" fill="#003057" fill-opacity=".5"/></svg>