<svg width="156" height="234" viewBox="0 0 156 234" fill="none" xmlns="http://www.w3.org/2000/svg">
<g clip-path="url(#clip0_2316_73985)">
<path d="M85.5862 162.37H90.9763C91.5563 162.37 91.8362 162.18 91.8362 161.81V161.73C91.8362 161.56 91.5562 161.26 90.9962 160.84C90.4362 160.42 90.1562 159.93 90.1562 159.36V151.98H94.6063C98.5563 151.98 101.656 151.09 103.876 149.31C106.076 147.53 107.186 145 107.186 141.72C107.186 140 106.806 138.49 106.096 137.19C105.366 135.88 104.366 134.83 103.076 134.05C101.796 133.28 100.356 132.71 98.7762 132.33C97.1962 131.95 95.4763 131.77 93.6063 131.77H85.5862C84.9762 131.77 84.6762 131.94 84.6762 132.29V132.42C84.6762 132.62 84.9463 132.94 85.4763 133.37C86.0063 133.8 86.2762 134.28 86.2762 134.79V159.37C86.2762 159.95 86.0063 160.43 85.4763 160.85C84.9463 161.27 84.6762 161.57 84.6762 161.74V161.82C84.6862 162.18 84.9762 162.37 85.5862 162.37ZM90.1562 134.9C90.1562 133.99 90.5363 133.52 91.2863 133.52H93.6162C96.2862 133.52 98.5563 134.31 100.416 135.86C102.256 137.44 103.196 139.7 103.196 142.66C103.196 145.02 102.416 146.86 100.886 148.21C99.3563 149.54 97.2562 150.21 94.6162 150.21H91.7263C90.6963 150.21 90.1663 149.69 90.1663 148.66V134.9H90.1562ZM108.766 196.27C111.686 199.49 115.066 201.1 118.906 201.1C122.246 201.1 124.996 200.12 127.126 198.16C129.216 196.21 130.536 193.83 131.066 191.05C131.156 190.44 131.006 190.08 130.536 189.97C130.066 189.85 129.726 190.02 129.476 190.49C128.666 192.44 127.476 194.13 125.846 195.54C124.256 196.95 122.316 197.65 119.966 197.65C116.836 197.65 114.086 196.24 111.746 193.45C109.416 190.64 108.246 187.14 108.246 182.9C108.246 179.57 109.166 176.82 111.026 174.67C112.866 172.51 115.086 171.44 117.686 171.44C119.156 171.44 120.436 171.72 121.496 172.28C122.586 172.84 123.406 173.51 123.996 174.31C124.586 175.09 125.126 175.87 125.586 176.65C126.026 177.43 126.496 178.1 126.966 178.65C127.466 179.21 127.966 179.49 128.556 179.49C129.146 179.49 129.616 179.33 129.966 179.01C130.276 178.67 130.436 178.21 130.436 177.65C130.436 175.92 129.276 174.17 126.936 172.37C124.596 170.57 121.846 169.67 118.686 169.67C114.516 169.67 111.096 171.11 108.406 173.98C105.716 176.86 104.376 180.54 104.376 185.06C104.376 189.3 105.836 193.05 108.766 196.27ZM99.3062 171.99C99.5762 171.71 99.8562 171.46 100.116 171.26C100.396 171.06 100.536 170.87 100.536 170.67V170.58C100.536 170.24 100.236 170.06 99.6562 170.06H94.2663C93.7063 170.06 93.4062 170.23 93.4062 170.58V170.67C93.4062 170.87 93.6762 171.17 94.1862 171.59C94.7062 172.01 94.9662 172.5 94.9662 173.07V197.7C94.9662 198.26 94.6963 198.76 94.1862 199.15C93.6663 199.56 93.4062 199.87 93.4062 200.06V200.15C93.4062 200.49 93.7063 200.67 94.2663 200.67H99.6562C100.236 200.67 100.536 200.5 100.536 200.15V200.06C100.536 199.87 100.256 199.56 99.7063 199.15C99.1563 198.76 98.8962 198.26 98.8962 197.7V173.07C98.9062 172.64 99.0262 172.28 99.3062 171.99ZM133.796 162.37H153.186C153.796 162.37 154.166 162.04 154.316 161.39L155.346 157.03C155.406 156.8 155.396 156.59 155.286 156.42C155.196 156.25 155.036 156.17 154.836 156.17H154.586C154.256 156.17 153.926 156.39 153.566 156.86C153.206 157.31 152.896 157.83 152.616 158.39C152.346 158.95 151.976 159.45 151.526 159.92C151.056 160.37 150.576 160.61 150.056 160.61H139.926C139.396 160.61 139.006 160.42 138.736 160.06C138.456 159.7 138.316 159.26 138.316 158.75L138.366 147.59H146.206C146.586 147.59 146.906 147.72 147.156 147.97C147.426 148.24 147.606 148.52 147.736 148.81C147.876 149.12 148.016 149.39 148.176 149.65C148.336 149.91 148.516 150.04 148.706 150.04H148.876C149.256 150.04 149.436 149.79 149.436 149.31V144C149.436 143.53 149.246 143.28 148.876 143.28H148.706C148.516 143.28 148.326 143.4 148.176 143.66C148.016 143.93 147.876 144.22 147.736 144.55C147.616 144.88 147.426 145.17 147.156 145.44C146.906 145.69 146.576 145.82 146.206 145.82H138.366V135.01C138.366 134.03 138.776 133.54 139.566 133.54H148.706C149.236 133.54 149.726 133.77 150.206 134.21C150.676 134.66 151.066 135.15 151.366 135.69C151.666 136.24 152.006 136.74 152.366 137.19C152.726 137.63 153.036 137.85 153.336 137.85H153.536C154.006 137.85 154.176 137.57 154.066 136.99L153.016 132.72C152.876 132.1 152.516 131.77 151.936 131.77H133.656C133.136 131.77 132.886 131.93 132.886 132.25V132.37C132.886 132.57 133.006 132.77 133.296 132.96C133.566 133.15 133.826 133.39 134.096 133.69C134.366 133.99 134.486 134.37 134.486 134.83V159.32C134.486 159.93 134.216 160.43 133.686 160.85C133.156 161.27 132.886 161.58 132.886 161.77V161.86C132.886 162.2 133.186 162.37 133.796 162.37ZM155.446 225.04C154.106 225.92 152.486 226.08 150.916 225.91C150.326 225.85 149.766 225.66 149.186 225.58C148.606 225.5 148.116 225.67 147.556 225.77C146.856 225.9 147.306 225.68 147.146 225.22C147.066 224.98 146.926 224.85 146.666 224.8C145.976 224.67 143.606 226.44 143.296 225.8C143.196 225.59 143.626 224.78 143.636 224.52C143.636 224.27 143.596 224.06 143.416 223.87C142.996 223.44 142.246 223.64 141.746 223.77C140.496 224.1 139.306 224.68 138.126 225.19C137.116 225.63 136.076 226 135.046 226.41L137.466 224.36L137.966 223.73L137.586 223.32C137.476 223.16 137.276 222.99 136.756 223.01C136.686 223.01 136.616 223.02 136.546 223.02C135.626 223.16 134.206 223.46 133.256 224.04C133.246 224.04 133.246 224.03 133.236 224.03C133.216 224.03 133.206 224.03 133.186 224.04C131.836 224.55 128.016 225.89 126.286 226.09C126.516 225.69 128.126 224.54 129.746 223.64C129.936 223.48 129.996 223.29 129.906 223.14L129.516 222.85H129.426C128.856 222.97 128.246 223.02 127.916 223.11C127.796 222.65 127.436 222.24 127.156 222.09L126.516 222.14C126.196 222.39 126.306 222.82 126.396 223.12C126.476 223.36 126.636 223.51 126.786 223.5C126.826 223.5 126.866 223.49 126.896 223.46C126.586 223.69 125.966 223.93 125.256 224.21C125.256 224.21 125.256 224.21 125.246 224.22C125.036 224.31 119.766 226.03 117.256 226.09L116.696 226.19C116.716 226.02 117.106 225.56 118.796 224.36C119.136 224.15 119.486 223.94 119.266 223.57L118.976 223.36H118.916C118.766 223.36 118.596 223.46 118.396 223.59C116.776 224.45 113.396 226.24 112.606 226.4C112.666 226.17 113.126 225.55 114.466 224.67C114.696 224.53 114.866 224.4 115.056 224.24L115.396 223.96L115.326 223.87L115.506 223.38L114.936 223.3L114.506 223.6C114.386 223.7 114.216 223.84 113.986 223.97C113.716 224.15 113.496 224.32 113.266 224.5C113.256 224.5 113.266 224.49 113.256 224.49C113.236 224.49 113.226 224.49 113.216 224.49C110.546 225.32 108.666 225.65 107.566 226.04C108.106 225.7 108.826 225.16 109.226 224.47C109.456 223.98 109.366 223.51 108.996 223.27C108.756 223.09 108.406 223 107.966 223.01C107.026 223.03 105.816 223.5 104.706 224.5C105.066 224.12 105.366 223.84 105.776 223.44C106.936 222.96 117.106 218.64 117.266 215.76C117.296 215.45 117.146 215.16 116.876 215.03L116.456 214.96C114.676 215 109.756 218.43 105.026 222.99C104.716 223.28 104.116 223.85 103.346 224.73C103.316 224.74 103.226 224.76 102.886 224.87C102.316 225.06 101.236 225.41 100.056 225.77C99.6862 225.87 99.2763 225.97 98.8563 226.07L98.0463 226.39C97.9563 225.89 97.3363 225.75 96.8463 225.64C96.5363 225.56 96.2163 225.45 96.1963 225.44C96.1963 225.38 96.3463 225.14 96.7663 224.88C97.4863 224.4 98.6062 224.02 99.3662 224C99.6462 223.99 99.8562 224.04 99.9362 224.13L100.546 224.12C100.686 223.97 100.686 223.69 100.536 223.55C100.276 223.28 99.8662 223.15 99.3062 223.17C98.3962 223.19 97.1663 223.61 96.3163 224.18C95.8963 224.45 95.6863 224.69 95.5363 224.91C95.5363 224.91 95.5362 224.91 95.5262 224.91C94.1762 225.42 90.3563 226.76 88.6263 226.96C88.8563 226.56 90.4662 225.41 92.0862 224.51C92.2762 224.36 92.3362 224.16 92.2462 224.01L91.8563 223.72H91.7663C91.1963 223.84 90.5863 223.89 90.2563 223.98C90.1363 223.52 89.7762 223.11 89.4962 222.96L88.8563 223.01C88.5363 223.26 88.6463 223.69 88.7363 223.99C88.8163 224.23 88.9762 224.38 89.1263 224.37C89.1663 224.37 89.2063 224.36 89.2363 224.33C88.9263 224.56 88.3163 224.8 87.5963 225.07C83.8563 226.4 80.6563 226.95 79.4163 226.97H79.4062C78.8463 226.94 78.4763 226.77 78.5463 226.38C78.7563 226.1 79.1963 225.79 79.6663 225.53C80.0463 225.68 80.5562 225.75 81.1162 225.74C81.7962 225.72 82.4263 225.58 82.8563 225.35C83.5763 224.93 83.5463 224.51 83.4763 224.31C83.4063 224.1 83.1963 223.85 82.2162 223.88C82.1762 223.88 82.1262 223.88 82.0862 223.88C81.5762 223.93 80.5663 224.21 79.5163 224.71C79.1263 224.9 78.7962 225.09 78.5262 225.28H78.5063C76.5463 226.14 73.6862 227.01 72.8062 227.09L72.3062 227.19C72.2762 227.07 72.7062 226.49 73.7462 225.26C74.0162 224.95 74.3163 224.63 74.7263 224.2C76.7463 222.97 79.8863 220.72 82.1063 218.89L84.9962 218.93C85.2162 218.93 85.4063 218.75 85.4463 218.5C85.4363 218.26 85.2463 218.08 85.0163 218.08L82.9563 218.23C85.3063 216.3 85.4163 215.88 85.4463 215.74C85.5163 215.45 85.3562 215.23 84.9262 215.07C84.3262 215.08 82.8162 216.07 80.3662 218.05C77.0262 218.17 76.4863 218.55 76.3563 218.83C76.2863 219.02 76.4162 219.32 76.7162 219.42L77.0862 219.26C77.3562 219.06 78.9563 218.98 79.4763 218.75C78.4563 219.6 74.9663 222.54 73.0963 224.72C72.8563 225 72.6963 225.21 72.5163 225.43C72.5063 225.43 72.5062 225.42 72.4962 225.42C72.4762 225.42 72.4663 225.42 72.4463 225.42C68.7063 226.76 65.4963 227.3 64.2563 227.33H64.2462C63.6862 227.3 63.3163 227.13 63.3863 226.74C63.5963 226.46 64.0363 226.15 64.5063 225.89C64.8863 226.04 65.3963 226.11 65.9563 226.1C66.6363 226.08 67.2663 225.94 67.6963 225.71C68.4163 225.29 68.3863 224.88 68.3163 224.67C68.2463 224.46 68.0362 224.21 67.0562 224.24C67.0162 224.24 66.9662 224.24 66.9262 224.24C66.4262 224.29 65.4063 224.57 64.3563 225.07C63.5563 225.46 63.0063 225.85 62.7263 226.24C62.2763 226.79 62.4363 227.22 62.4863 227.36C62.7163 227.85 63.3563 228.13 64.3863 228.18H64.3962C65.3562 228.16 68.0762 227.75 71.6862 226.57C71.4362 227.01 71.3962 227.29 71.5262 227.58C71.7062 227.97 72.1662 228.01 72.4962 228L72.8863 227.96C73.6663 227.85 75.7263 227.27 77.5763 226.56C77.5563 226.77 77.5963 226.94 77.6263 227.02C77.8463 227.51 78.4862 227.79 79.5262 227.84H79.5363C80.5963 227.82 83.7063 227.38 87.8863 225.89C88.3563 225.71 88.8263 225.52 89.2063 225.33C88.1463 226.1 87.6763 226.67 87.7663 227.09C87.8163 227.28 87.9662 227.54 88.4362 227.64L88.8463 227.63C90.4563 227.59 93.7663 226.46 95.4763 225.83C95.6563 226.13 96.0363 226.27 96.6263 226.45C96.7962 226.49 96.9562 226.52 96.9362 226.52C96.9262 226.52 96.8862 226.51 96.8062 226.49C94.8262 226.89 94.6263 226.94 94.6363 227.41L94.8563 227.83L94.9362 227.86C94.9962 227.87 95.1863 227.93 95.4163 227.92C95.9763 227.91 96.8063 227.62 97.4463 227.22C98.3763 227.06 99.4063 226.83 100.266 226.57C101.016 226.35 101.696 226.14 102.336 225.93C102.136 226.18 101.946 226.4 101.736 226.68L101.766 227.27L102.026 227.37H102.066L102.366 227.25C104.776 224.78 106.846 223.87 107.986 223.85C108.216 223.84 108.406 223.88 108.476 224.08C108.046 224.87 106.786 225.62 105.586 226.05C104.616 226.11 104.096 226.16 103.736 226.54L103.816 226.62L103.746 227.15C103.846 227.24 103.976 227.29 104.326 227.28C104.416 227.28 104.516 227.27 104.626 227.26C104.986 227.22 105.446 227.09 106.026 226.85C107.006 226.75 108.986 226.53 112.086 225.68C111.866 225.99 111.736 226.28 111.766 226.5C111.776 226.74 111.926 226.96 112.166 227.05L112.516 227.08C113.156 227.07 114.316 226.62 116.246 225.4C115.926 225.78 115.816 226.09 115.896 226.41C115.966 226.64 116.176 226.93 116.836 226.96L117.266 226.97C119.946 226.91 125.256 225.16 125.566 225.03C126.026 224.85 126.496 224.67 126.876 224.47C125.816 225.24 125.346 225.81 125.436 226.23C125.486 226.42 125.646 226.68 126.106 226.78L126.516 226.77C127.886 226.74 130.496 225.91 132.306 225.27C132.266 225.53 132.266 225.79 132.366 226.05C132.516 226.41 132.836 226.59 133.276 226.58C133.396 226.58 133.536 226.56 133.676 226.5L132.166 227.79C127.646 229.68 125.096 230.92 124.576 232.12C124.476 232.4 124.246 233.06 124.756 233.42L125.146 233.54C125.676 233.53 126.966 233.05 131.956 229.03L132.566 228.52L133.226 227.97C134.786 227.43 136.316 226.82 137.836 226.17C139.176 225.6 140.526 224.91 141.946 224.54C142.476 224.4 142.856 224.2 142.806 224.82C142.766 225.25 142.466 225.65 142.506 226.09C142.576 226.96 143.436 226.86 144.066 226.65C144.676 226.44 145.236 226.13 145.816 225.87C146.736 225.46 146.176 225.45 146.326 226.07C146.546 226.96 147.676 226.52 148.266 226.4C149.436 226.17 150.846 226.76 152.056 226.76C153.396 226.75 154.696 226.47 155.826 225.73C156.236 225.43 155.856 224.77 155.446 225.04ZM127.676 223.83L128.066 223.64C127.896 223.75 127.736 223.85 127.586 223.95C127.616 223.91 127.646 223.87 127.676 223.83ZM116.406 215.62L116.426 215.71C116.346 217.27 111.286 220.05 107.106 222.14C112.016 217.7 115.636 215.74 116.416 215.73L116.406 215.62ZM90.0063 224.69L90.3962 224.5C90.2262 224.61 90.0663 224.71 89.9163 224.81C89.9463 224.78 89.9763 224.73 90.0063 224.69ZM82.3863 224.62C82.3363 224.65 82.2162 224.65 82.1462 224.68L82.1363 224.59L82.3863 224.62ZM83.1063 217.01C82.7363 217.32 82.3163 217.68 81.8563 218.07L81.9262 218.16L81.4463 218.23C82.0463 217.78 82.6063 217.36 83.1063 217.01ZM80.6363 218.9L81.0463 218.71C80.1163 219.42 79.0963 220.18 78.1263 221C78.8962 220.34 80.6363 218.9 80.6363 218.9ZM67.2462 224.97C67.1962 225 67.0763 225 67.0063 225.03L66.9962 224.94L67.2462 224.97ZM125.246 232.75C125.246 232.75 125.256 232.65 125.396 232.34C125.546 231.96 126.436 231.2 129.656 229.74C126.446 232.23 125.476 232.64 125.246 232.75ZM133.156 225.72C133.146 225.72 133.136 225.72 133.136 225.72C133.066 225.49 133.076 225.37 133.176 225.22C133.356 224.89 134.066 224.27 136.706 223.82L136.756 223.81C135.966 224.43 134.086 225.7 133.156 225.72ZM110.736 162.37H129.486C130.066 162.37 130.426 162.04 130.566 161.39L131.646 156.64C131.786 156.12 131.626 155.86 131.176 155.86H130.836C130.506 155.86 130.176 156.11 129.836 156.59C129.496 157.09 129.196 157.62 128.926 158.23C128.676 158.84 128.316 159.39 127.846 159.87C127.396 160.35 126.876 160.6 126.296 160.6H116.716C115.796 160.6 115.336 160.04 115.336 158.91V134.77C115.336 134.17 115.616 133.68 116.176 133.29C116.736 132.9 117.016 132.59 117.016 132.36V132.27C117.016 131.93 116.716 131.75 116.136 131.75H110.716C110.136 131.75 109.856 131.92 109.856 132.27V132.36C109.856 132.59 110.106 132.9 110.626 133.29C111.146 133.68 111.406 134.17 111.406 134.77V159.35C111.406 159.93 111.136 160.41 110.626 160.82C110.106 161.21 109.856 161.54 109.856 161.76V161.85C109.876 162.2 110.156 162.37 110.736 162.37ZM133.686 200.66H153.076C153.686 200.66 154.056 200.33 154.206 199.68L155.236 195.32C155.296 195.09 155.286 194.88 155.176 194.71C155.086 194.54 154.926 194.46 154.726 194.46H154.476C154.146 194.46 153.816 194.68 153.456 195.15C153.096 195.6 152.786 196.12 152.506 196.68C152.236 197.24 151.866 197.74 151.416 198.21C150.946 198.66 150.466 198.9 149.946 198.9H139.816C139.286 198.9 138.896 198.71 138.626 198.35C138.346 197.99 138.206 197.55 138.206 197.04L138.256 185.88H146.096C146.476 185.88 146.796 186 147.046 186.26C147.316 186.53 147.496 186.81 147.626 187.1C147.766 187.41 147.906 187.68 148.066 187.94C148.226 188.21 148.406 188.33 148.596 188.33H148.766C149.146 188.33 149.326 188.08 149.326 187.6V182.3C149.326 181.8 149.136 181.57 148.766 181.57H148.596C148.406 181.57 148.216 181.69 148.066 181.96C147.906 182.21 147.766 182.51 147.626 182.84C147.506 183.17 147.316 183.47 147.046 183.73C146.796 183.98 146.466 184.11 146.096 184.11H138.256V173.3C138.256 172.32 138.666 171.83 139.456 171.83H148.596C149.126 171.83 149.616 172.05 150.096 172.5C150.566 172.94 150.956 173.44 151.256 173.98C151.556 174.53 151.896 175.03 152.256 175.46C152.616 175.91 152.926 176.13 153.226 176.13H153.426C153.896 176.13 154.066 175.85 153.956 175.27L152.906 171C152.766 170.36 152.406 170.05 151.826 170.05H133.546C133.026 170.05 132.776 170.21 132.776 170.52V170.66C132.776 170.86 132.896 171.05 133.186 171.24C133.456 171.43 133.716 171.66 133.986 171.97C134.256 172.27 134.376 172.64 134.376 173.11V197.6C134.376 198.21 134.106 198.71 133.576 199.13C133.046 199.55 132.776 199.86 132.776 200.05V200.14C132.776 200.49 133.076 200.66 133.686 200.66ZM4.19626 160.23C6.35626 161.95 9.32624 162.81 13.1162 162.81C16.2262 162.81 18.8363 162.04 20.9563 160.51C23.0863 158.99 24.1462 156.96 24.1462 154.43C24.1462 152.68 23.8162 151.21 23.1262 150.02C22.4562 148.82 21.5763 147.94 20.4863 147.38C19.3963 146.82 18.1862 146.36 16.8762 146.02C15.5762 145.68 14.2663 145.36 12.9563 145.1C11.6563 144.83 10.4562 144.49 9.36624 144.08C8.27624 143.67 7.38627 143.05 6.70627 142.17C6.03627 141.33 5.68625 140.2 5.68625 138.86C5.68625 137.17 6.27627 135.77 7.45627 134.67C8.64627 133.58 10.2862 133.04 12.3762 133.04C13.8462 133.04 15.0663 133.28 16.0663 133.77C17.0463 134.26 17.7863 134.86 18.2363 135.54C18.7063 136.23 19.0762 136.92 19.4062 137.6C19.7162 138.29 20.0663 138.88 20.4563 139.38C20.8463 139.85 21.3362 140.1 21.9062 140.1C23.0762 140.1 23.6762 139.54 23.6762 138.38C23.6762 136.69 22.6562 135.1 20.6262 133.59C18.6062 132.1 15.8962 131.35 12.4962 131.35C9.16624 131.35 6.54626 132.14 4.63626 133.7C2.71626 135.27 1.75625 137.29 1.75625 139.76C1.75625 141.51 2.09624 142.98 2.77624 144.12C3.44624 145.26 4.32625 146.1 5.40625 146.64C6.48625 147.17 7.68626 147.59 9.01626 147.92C10.3263 148.23 11.6563 148.51 12.9563 148.78C14.2663 149.03 15.4563 149.37 16.5363 149.8C17.6163 150.21 18.4862 150.88 19.1762 151.8C19.8462 152.72 20.1762 153.89 20.1762 155.33C20.1762 157.03 19.5363 158.42 18.2663 159.5C16.9863 160.56 15.3263 161.11 13.2863 161.11C11.6763 161.11 10.3062 160.84 9.15625 160.33C8.02625 159.81 7.18626 159.19 6.63626 158.45C6.08626 157.72 5.61626 156.98 5.22626 156.23C4.84626 155.48 4.44624 154.84 4.02624 154.31C3.60624 153.78 3.13624 153.5 2.58624 153.48C2.06624 153.48 1.66624 153.64 1.36624 153.95C1.08624 154.26 0.946257 154.68 0.946257 155.2C0.956257 156.85 2.03626 158.53 4.19626 160.23ZM40.4262 216.39C39.8862 216.4 38.5363 217.28 36.3563 219.04C33.3763 219.15 32.8963 219.49 32.7863 219.74C32.7263 219.91 32.8463 220.17 33.1063 220.26L33.4362 220.12C33.6763 219.94 35.1063 219.87 35.5663 219.66C35.1263 220.03 34.1463 220.86 33.0763 221.81C29.7063 222.73 26.1563 223.5 22.7663 224.62C22.6463 223.78 22.0463 223.11 21.4463 222.51C20.8663 221.93 20.0162 221.15 19.3062 220.31C21.5662 219.25 31.0662 214.66 28.4262 212.6C27.0462 211.52 23.4862 213.43 22.1762 214.01C20.5562 214.72 17.4962 216.05 17.4362 218.22C17.4262 218.75 17.7462 219.22 18.0262 219.69C12.4162 222.15 6.71626 223.9 0.386259 224.01C-0.123741 224.02 -0.133741 224.82 0.386259 224.81C6.76626 224.7 12.8263 223.28 18.6063 220.61C19.9363 222.08 21.6663 223.44 21.6963 225C19.4863 225.81 17.3563 226.76 15.5063 228.23C14.7163 228.85 12.1762 230.75 13.2762 232.03C14.5262 233.48 17.3463 231.25 18.2863 230.52C19.7463 229.39 22.1963 227.49 22.6963 225.48C25.7063 224.41 28.8362 223.73 31.9262 222.94C31.1862 223.64 30.4063 224.35 29.8563 224.99C29.6563 225.22 29.5262 225.39 29.3762 225.58L28.8662 226.24C28.4362 226.85 28.3163 227.2 28.4563 227.52C28.6163 227.87 29.0263 227.9 29.3263 227.9L29.6663 227.86C30.5163 227.74 33.0962 227 34.9062 226.19C35.0662 226.11 35.1863 225.89 35.0963 225.68L34.7162 225.48H34.6562C32.9162 226.24 30.3663 227.02 29.5763 227.09L29.1363 227.18C29.1063 227.07 29.4962 226.56 30.4262 225.46C30.6662 225.18 30.9362 224.9 31.3062 224.51C33.1062 223.41 35.9063 221.41 37.8863 219.78L40.4662 219.81C40.6562 219.81 40.8262 219.65 40.8662 219.42C40.8662 219.21 40.6963 219.04 40.4863 219.05L38.6462 219.18C40.7462 217.46 40.8362 217.08 40.8662 216.96C40.9562 216.72 40.8162 216.53 40.4262 216.39ZM18.2462 218.22C18.2762 216.66 20.7562 215.56 21.9262 215.01C23.3462 214.33 24.9262 213.68 26.4662 213.34C27.3262 213.15 28.4463 213.15 27.5963 214.26C27.1063 214.89 26.4462 215.4 25.8062 215.86C24.5662 216.76 23.2063 217.45 21.8563 218.15C20.8663 218.66 19.8362 218.92 18.8362 219.37C18.6262 218.99 18.2462 218.62 18.2462 218.22ZM18.8863 229.01C18.1463 229.67 15.8662 231.85 14.6862 231.61C12.7362 231.22 16.3262 228.6 16.9362 228.2C18.3762 227.25 20.0462 226.6 21.6762 225.97C21.0962 227.11 19.8263 228.19 18.8863 229.01ZM34.3863 221.67C35.0663 221.08 36.6263 219.79 36.6263 219.79L36.9962 219.62C36.1662 220.26 35.2563 220.94 34.3863 221.67ZM37.7162 219.06L37.7762 219.14L37.3463 219.21C37.8763 218.81 38.3763 218.43 38.8263 218.12C38.4963 218.4 38.1262 218.71 37.7162 219.06ZM38.8163 224.23C38.1663 224.25 37.6562 224.78 37.6762 225.43C37.6862 226.08 38.2262 226.59 38.8763 226.57C39.5263 226.56 40.0363 226.02 40.0163 225.37C39.9963 224.72 39.4663 224.21 38.8163 224.23ZM68.3362 217.53C69.0062 216.08 69.0063 214.94 68.3163 214.23C67.9763 213.85 67.3762 213.66 66.5862 213.66H66.4763C64.4963 213.71 61.7563 214.86 60.0663 215.96C58.2663 217.15 56.6562 218.38 55.1762 219.69C56.8762 217.46 58.6462 215.1 60.4262 212.62C60.5362 212.46 60.5962 212.37 60.6462 212.3C60.6462 212.3 60.8263 211.85 60.5963 211.66C60.3263 211.44 60.0063 211.75 60.0063 211.75L59.5063 212.35C58.3463 213.95 55.2863 218.19 51.7563 222.56C46.3363 227.59 43.0963 232.01 43.0963 232.01C43.0163 232.1 42.9863 232.24 43.0063 232.39C43.0363 232.49 43.0862 232.56 43.1462 232.61L43.3962 232.75H43.4763L43.7462 232.63C45.9162 230.83 48.8262 227.66 52.4062 223.21C55.2363 220.6 57.9063 218.48 60.5963 216.73C62.4563 215.5 64.8763 214.6 66.5063 214.57C66.5363 214.56 66.5862 214.56 66.6162 214.56C67.1162 214.56 67.4962 214.66 67.6762 214.84C68.1762 215.39 67.8763 216.41 67.5363 217.15C65.7563 221.06 58.8663 226.98 53.0363 227.11C52.8463 227.11 52.6463 227.11 52.4563 227.11C52.2863 227.08 51.9363 226.98 51.8763 226.91L51.9262 226.36V226.31L51.5063 226.04L51.4563 226.02L51.1462 226.2L51.0663 226.3C50.9063 226.63 50.9063 226.96 51.0663 227.28C51.2563 227.64 51.6763 227.88 52.3763 228.02L53.0163 228.03C59.2163 227.86 66.4662 221.64 68.3362 217.53ZM15.5063 169.66C11.3463 169.66 7.91626 171.1 5.22626 173.97C2.53626 176.85 1.19626 180.53 1.19626 185.05C1.19626 189.3 2.66626 193.05 5.60626 196.27C8.52626 199.49 11.9063 201.1 15.7363 201.1C19.0963 201.1 21.8463 200.12 23.9563 198.16C26.0663 196.21 27.3762 193.83 27.8962 191.05C28.0162 190.44 27.8462 190.08 27.3762 189.97C26.9262 189.85 26.5663 190.02 26.2963 190.49C25.4963 192.44 24.2963 194.13 22.7063 195.54C21.1163 196.95 19.1463 197.65 16.8163 197.65C13.6863 197.65 10.9363 196.24 8.59625 193.45C6.26625 190.64 5.09625 187.14 5.09625 182.9C5.09625 179.57 6.01625 176.82 7.87625 174.67C9.71625 172.51 11.9363 171.44 14.5363 171.44C16.0063 171.44 17.2663 171.72 18.3463 172.28C19.4263 172.84 20.2563 173.51 20.8463 174.31C21.4363 175.09 21.9562 175.87 22.4262 176.65C22.8762 177.43 23.3463 178.1 23.8163 178.65C24.2963 179.21 24.8162 179.49 25.3962 179.49C26.0062 179.49 26.4762 179.33 26.8062 179.01C27.1362 178.67 27.3062 178.21 27.3062 177.65C27.3062 175.92 26.1363 174.17 23.7863 172.37C21.4263 170.56 18.6763 169.66 15.5063 169.66ZM30.8362 162.37H36.2263C36.8063 162.37 37.0862 162.2 37.0862 161.85V161.76C37.0862 161.57 36.8162 161.26 36.2762 160.85C35.7262 160.46 35.4463 159.96 35.4463 159.4V134.77C35.4463 134.34 35.5863 133.98 35.8563 133.69C36.1363 133.41 36.4062 133.16 36.6862 132.96C36.9562 132.76 37.0963 132.55 37.0963 132.35V132.26C37.0963 131.92 36.8163 131.74 36.2363 131.74H30.8463C30.2663 131.74 29.9863 131.91 29.9863 132.26V132.35C29.9863 132.55 30.2363 132.87 30.7563 133.28C31.2863 133.69 31.5363 134.19 31.5363 134.76V159.39C31.5363 159.95 31.2863 160.45 30.7563 160.84C30.2363 161.25 29.9863 161.56 29.9863 161.75V161.84C29.9763 162.2 30.2562 162.37 30.8362 162.37ZM30.5063 200.66H35.8962C36.4762 200.66 36.7762 200.49 36.7762 200.14V200.05C36.7762 199.86 36.6363 199.66 36.3563 199.46C36.0863 199.26 35.8063 199.01 35.5463 198.73C35.2663 198.43 35.1363 198.07 35.1363 197.65V186.01H52.0262L51.9962 197.65C51.9962 198.23 51.7262 198.71 51.2162 199.13C50.6962 199.55 50.4362 199.86 50.4362 200.05V200.14C50.4362 200.48 50.7363 200.66 51.2963 200.66H56.6862C57.2962 200.66 57.5963 200.49 57.5963 200.14V200.05C57.5963 199.86 57.4562 199.66 57.1762 199.46C56.8762 199.26 56.5962 199.01 56.3362 198.73C56.0562 198.43 55.9262 198.07 55.9262 197.65V173.07C55.9262 172.65 56.0462 172.29 56.3362 171.99C56.6062 171.71 56.8862 171.46 57.1762 171.26C57.4562 171.06 57.5963 170.87 57.5963 170.67V170.58C57.5963 170.24 57.2962 170.06 56.6862 170.06H51.2963C50.7363 170.06 50.4362 170.23 50.4362 170.58V170.67C50.4362 170.87 50.7062 171.17 51.2162 171.59C51.7362 172.01 51.9962 172.5 51.9962 173.07L52.0262 184.1H35.0862L35.1363 173.07C35.1363 172.65 35.2563 172.29 35.5463 171.99C35.8163 171.71 36.0963 171.46 36.3563 171.26C36.6363 171.06 36.7762 170.87 36.7762 170.67V170.58C36.7762 170.24 36.4762 170.06 35.8962 170.06H30.5063C29.9463 170.06 29.6462 170.23 29.6462 170.58V170.67C29.6462 170.87 29.9162 171.17 30.4262 171.59C30.9362 172.01 31.2063 172.5 31.2063 173.07V197.65C31.2063 198.23 30.9362 198.71 30.4262 199.13C29.9062 199.55 29.6462 199.86 29.6462 200.05V200.14C29.6462 200.49 29.9463 200.66 30.5063 200.66ZM43.6063 162.37H47.4863C48.0963 162.37 48.3962 162.2 48.3962 161.85V161.76C48.3962 161.57 48.0963 161.23 47.4863 160.78C46.8763 160.33 46.6263 159.8 46.7063 159.23L50.3763 136.68L59.2063 161.46C59.4063 162.04 59.7962 162.32 60.3763 162.32C60.8563 162.32 61.2362 162.02 61.4962 161.41L70.1263 136.97L73.9563 159.22C74.0663 159.78 73.8662 160.31 73.3362 160.77C72.8062 161.22 72.5363 161.57 72.5363 161.75V161.84C72.5363 162.18 72.8162 162.36 73.3962 162.36H78.7063C79.2663 162.36 79.5663 162.19 79.5663 161.84V161.75C79.5663 161.53 79.2963 161.19 78.7863 160.75C78.2663 160.3 77.9562 159.78 77.8362 159.22L73.3962 135.2C73.3162 134.76 73.3363 134.39 73.4563 134.07C73.5963 133.76 73.7563 133.52 73.9563 133.38C74.1563 133.23 74.3463 133.07 74.5163 132.88C74.6863 132.69 74.7863 132.51 74.7863 132.34V132.22C74.7863 131.9 74.5663 131.74 74.1263 131.74H68.2663C67.7963 131.74 67.5763 131.93 67.5763 132.3V132.39C67.5763 132.53 67.8062 132.82 68.2762 133.25C68.7562 133.68 68.8963 134.16 68.7263 134.66L60.8863 157.08L53.2162 134.84C53.0162 134.29 53.1562 133.77 53.6263 133.29C54.0963 132.8 54.3463 132.5 54.3463 132.38V132.29C54.3463 131.91 54.1162 131.73 53.6562 131.73H47.9262C47.4562 131.73 47.2263 131.92 47.2263 132.29V132.38C47.2263 132.55 47.4762 132.86 47.9962 133.3C48.4962 133.75 48.6963 134.26 48.6263 134.84L44.4362 159.2C44.3562 159.75 44.0462 160.25 43.5262 160.7C43.0062 161.17 42.7462 161.51 42.7462 161.73V161.82C42.7262 162.2 43.0263 162.37 43.6063 162.37ZM64.5763 174.06C61.7663 177.01 60.3563 180.75 60.3563 185.26C60.3563 189.54 61.8062 193.25 64.7162 196.39C67.6263 199.52 71.2763 201.09 75.7063 201.09C79.8163 201.09 83.2863 199.56 86.1263 196.51C88.9563 193.46 90.3563 189.81 90.3563 185.52C90.3563 181.11 88.9463 177.36 86.1363 174.25C83.3263 171.16 79.7462 169.59 75.3962 169.59C71.0062 169.61 67.3963 171.1 64.5763 174.06ZM82.9962 176.3C85.3262 179.52 86.4763 183.46 86.4763 188.11C86.4763 191.09 85.5362 193.7 83.6762 195.91C81.7962 198.13 79.4562 199.24 76.6462 199.24C73.0562 199.24 70.0863 197.61 67.7363 194.36C65.3963 191.11 64.2162 187.2 64.2162 182.64C64.2162 179.44 65.1363 176.78 66.9863 174.66C68.8263 172.53 71.1863 171.47 74.0663 171.47C77.6863 171.47 80.6662 173.08 82.9962 176.3Z" fill="#A0BF38"/>
<path d="M118.626 117.2C118.176 117.26 117.796 117.87 117.396 118.24C116.356 119.19 113.046 117.86 112.076 118.88C110.776 120.25 108.406 119.43 106.896 118C105.286 116.48 104.036 114.58 102.676 112.8C101.866 111.74 101.156 110.59 100.316 109.36C98.8761 110.49 97.6261 111.47 96.2561 112.55C97.4661 113.17 99.7061 113.78 100.706 114.4C101.576 114.94 102.066 115.76 102.096 116.61C102.106 116.99 102.016 117.38 101.826 117.75C101.436 118.51 99.2461 119.08 98.3561 119.09C85.5861 119.15 72.5561 119.54 59.8161 118.94C43.3661 118.16 38.0661 102.26 42.6061 90.6304C44.9361 84.6604 48.8361 79.8604 53.5761 75.6704C53.9361 75.3604 54.2061 75.0804 54.4061 74.8104C54.9561 74.3904 64.0061 65.6404 65.8561 63.5804C75.3761 52.9804 80.566 40.5904 81.086 26.2904C81.146 24.7004 80.726 23.6504 79.276 22.8204C77.356 21.7204 76.0461 20.0304 75.9361 17.7104C75.9061 17.1304 76.0461 16.5404 76.2561 15.9404C76.3461 15.6904 76.4461 15.4404 76.5461 15.1904C76.6561 15.6304 76.786 16.0504 76.9361 16.4504C78.2661 20.1604 80.866 22.4404 84.996 23.2704C84.786 23.7804 84.7261 24.4104 84.4561 24.5204C82.6361 25.2304 82.846 26.8504 82.776 28.2604C81.986 43.4104 76.1161 56.2704 65.3461 66.9204C63.3561 68.8904 54.4861 77.3704 53.6261 78.2504C48.9961 83.0004 44.9461 88.2004 43.2361 94.7404C41.2361 102.37 45.6861 115.37 57.5061 116.61C61.5961 117.04 65.7261 117.18 69.8461 117.33C70.7561 117.36 71.776 117 72.586 116.54C75.826 114.68 79.026 112.74 82.176 110.73C82.566 110.48 82.7961 109.61 82.7361 109.06C82.4861 106.9 81.7461 104.75 81.8261 102.61C82.1361 94.1704 75.0361 88.1504 67.7261 87.0504C64.1061 86.5004 60.6861 86.9604 57.2361 87.8904C56.7061 88.0304 56.1761 88.1404 55.5761 88.0504C57.6961 86.1404 60.3061 85.4004 62.9861 84.9904C72.5961 83.5304 81.2161 89.2304 83.7061 98.6304C84.3161 100.93 84.7061 103.3 85.4561 105.55C86.7061 109.31 90.3261 111.56 94.1361 111.21C95.7461 111.06 96.686 110.43 96.746 108.57C96.836 105.81 95.906 103.41 94.146 101.5C89.216 96.1604 88.7561 89.7404 89.3761 83.0404C89.5361 81.2604 90.0661 79.5204 90.4761 77.7704C90.5661 77.3904 90.8661 77.0604 91.0661 76.7004C91.2461 76.7204 91.436 76.7304 91.616 76.7504C91.716 78.5504 92.1061 80.3904 91.8561 82.1404C91.0761 87.6804 92.0361 92.7504 95.1661 97.4304C96.9161 100.06 98.5661 102.75 100.186 105.46C100.766 106.43 101.346 106.6 102.386 106.15C103.656 105.6 105.036 105.28 106.506 104.82C104.196 97.7004 103.256 90.7004 106.826 83.6804C107.106 86.7804 107.386 89.8904 107.666 92.9904C107.896 93.0204 108.136 93.0504 108.366 93.0804C108.896 91.3004 109.536 89.5504 109.946 87.7504C111.866 79.4104 110.836 71.1504 109.456 62.8404C108.816 58.9804 108.526 55.0604 108.256 51.1404C108.646 51.2404 109.036 51.3704 109.436 51.4704C109.666 51.5304 109.906 51.5704 110.146 51.6204C110.176 52.6704 110.226 53.7104 110.316 54.7604C110.896 61.6104 112.026 68.4204 112.906 75.2504C113.646 80.9304 112.956 86.4704 110.636 91.6904C108.626 96.2104 109.006 100.23 111.986 104.18C113.686 106.43 117.646 111.72 119.096 114.15C119.766 115.25 120.546 116.95 118.626 117.2Z" fill="#A0BF38"/>
<path d="M129.995 13.3705C128.435 12.3805 126.625 11.7305 124.895 11.1405C119.665 9.28047 107.785 8.98047 107.615 8.98047C102.035 9.15047 96.6255 10.1905 91.4155 12.2705C90.9555 12.4605 90.2455 12.1805 89.6655 12.0305C87.7655 11.5105 85.8855 10.8605 83.9555 10.4105C82.7655 10.1305 81.9854 10.7405 81.8954 12.0705C81.8554 12.5505 81.8055 13.0605 81.7655 13.3705C80.3355 13.7205 79.0355 14.0405 77.7255 14.3405C77.3955 14.4305 77.0755 14.5805 76.7955 14.7705L76.6055 14.9005C76.6055 14.9205 76.6055 14.9205 76.6055 14.9405C76.9255 14.8105 77.3355 14.9605 77.8155 15.0505C78.2655 15.1205 79.1955 15.3805 79.3055 15.4205C81.5755 16.0305 83.8455 16.6805 86.0955 17.3505C86.5055 17.4805 86.8755 17.8005 87.3055 17.9605C88.1455 18.2905 88.5655 18.1305 88.6655 17.0705C88.7255 16.4705 89.1655 15.7105 89.6655 15.4305C93.9055 12.9805 98.5155 11.6405 103.405 11.2605C104.965 11.1505 118.485 12.0605 119.155 14.5905C119.505 15.9805 119.415 17.7005 118.935 19.0505C117.815 22.2305 117.705 25.2105 119.495 28.1605C120.445 29.7205 120.095 30.9105 118.505 31.8805C116.385 33.1805 114.655 34.8405 113.725 37.2905C113.525 37.8305 112.555 38.3105 111.865 38.4105C109.225 38.7605 106.565 38.9505 103.975 39.1905C103.865 39.9505 103.865 40.6205 103.975 41.2405C104.275 41.4405 104.575 41.6305 104.885 41.8205C105.465 42.1905 106.115 42.4505 106.785 42.6005C107.175 42.6905 107.545 42.7505 107.885 42.8205C108.685 42.9705 109.445 42.9505 110.205 43.0105C110.225 42.0605 110.245 41.1105 110.245 40.1505C114.855 39.8705 119.175 39.6705 123.465 39.3505C125.775 39.1805 128.265 39.0505 129.505 36.6305C131.275 33.2105 133.095 29.7705 134.455 26.1805C136.485 20.8705 134.815 16.3905 129.995 13.3705ZM83.9855 11.4205C85.5855 12.0505 86.8454 12.5505 88.3354 13.1305C86.1454 14.4005 84.5855 13.8205 83.9855 11.4205ZM123.675 20.3805C124.155 19.6505 124.845 19.3005 125.705 19.4305C126.635 19.6005 127.245 20.1605 127.475 21.0705C127.605 21.5505 127.475 22.0405 127.145 22.5605C127.035 22.3205 126.975 22.1905 126.925 22.0605C126.725 21.6705 126.445 21.4805 126.125 21.5405C125.695 21.6105 125.415 21.9105 125.365 22.3605C125.345 22.5305 125.365 22.7105 125.345 22.8805C125.285 23.3805 124.955 23.5705 124.485 23.3405C123.435 22.8605 123.005 21.3305 123.675 20.3805ZM125.675 38.4605C125.675 38.4605 123.725 38.1105 122.225 35.3405C122.415 35.4905 124.285 36.3705 127.815 37.1305C128.815 37.3905 125.675 38.4605 125.675 38.4605Z" fill="#A0BF38"/>
<path d="M93.1445 21.2801C97.5545 22.0601 101.575 21.2601 105.395 18.8701C105.095 20.6401 103.805 21.4601 102.365 22.0401C99.2145 23.3101 96.0945 23.3301 93.1445 21.2801Z" fill="#A0BF38"/>
<path d="M95.0477 38.8705C94.1477 40.7805 92.5677 45.1705 93.1677 51.3305C93.2277 51.9405 93.7877 52.3905 94.4377 52.3505C96.7277 52.2105 101.898 51.6105 104.838 49.1105C105.158 48.8405 105.358 48.4705 105.428 48.0705L105.778 45.8705C105.848 45.4605 105.748 45.0405 105.518 44.6805C104.828 43.6305 102.768 41.4105 96.7077 38.3205C96.0877 38.0205 95.3277 38.2705 95.0477 38.8705Z" fill="#A0BF38"/>
<path d="M122.928 42.861C123.188 44.941 123.338 49.5709 120.848 55.2909C120.598 55.8609 119.928 56.1309 119.318 55.9109C117.178 55.1309 112.418 53.1209 110.388 49.9109C110.168 49.5609 110.088 49.1509 110.148 48.7609L110.498 46.5609C110.568 46.1509 110.778 45.7709 111.118 45.5009C112.108 44.6909 114.758 43.1509 121.508 41.8909C122.198 41.7609 122.848 42.201 122.928 42.861Z" fill="#A0BF38"/>
<path d="M105.658 49.1001L106.298 45.0501C106.338 44.7901 106.598 44.6101 106.878 44.6501L109.818 45.0701C110.098 45.1101 110.288 45.3601 110.248 45.6201L109.608 49.6701C109.568 49.9301 109.308 50.1101 109.028 50.0701L106.088 49.6501C105.808 49.6101 105.618 49.3701 105.658 49.1001Z" fill="#A0BF38"/>
<path d="M56.0064 10.88C53.0064 10.88 50.5664 8.44 50.5664 5.44C50.5664 2.44 53.0064 0 56.0064 0C59.0064 0 61.4464 2.44 61.4464 5.44C61.4464 8.44 59.0064 10.88 56.0064 10.88ZM56.0064 1.23C53.6864 1.23 51.7964 3.12 51.7964 5.44C51.7964 7.76 53.6864 9.64999 56.0064 9.64999C58.3264 9.64999 60.2164 7.76 60.2164 5.44C60.2164 3.12 58.3264 1.23 56.0064 1.23Z" fill="#A0BF38"/>
<path d="M58.1852 8.24004C58.1852 8.26004 58.1851 8.28003 58.1751 8.30003C58.1651 8.32003 58.1451 8.33004 58.1151 8.35004C58.0851 8.37004 58.0452 8.37004 57.9852 8.38004C57.9352 8.39004 57.8552 8.39005 57.7652 8.39005C57.6852 8.39005 57.6252 8.39004 57.5752 8.38004C57.5252 8.37004 57.4852 8.36004 57.4552 8.35004C57.4252 8.34004 57.4052 8.32004 57.3852 8.29004C57.3652 8.27004 57.3552 8.24004 57.3452 8.20004L56.8051 6.83005C56.7451 6.67005 56.6752 6.53004 56.6052 6.40004C56.5352 6.27004 56.4551 6.16004 56.3651 6.06004C56.2751 5.97004 56.1652 5.89004 56.0352 5.84004C55.9052 5.79004 55.7551 5.76004 55.5851 5.76004H55.0652V8.24004C55.0652 8.26004 55.0552 8.28003 55.0452 8.30003C55.0352 8.32003 55.0152 8.33004 54.9852 8.34004C54.9552 8.35004 54.9151 8.36004 54.8651 8.37004C54.8151 8.38004 54.7551 8.38004 54.6751 8.38004C54.6051 8.38004 54.5352 8.38004 54.4852 8.37004C54.4352 8.36004 54.3951 8.35004 54.3651 8.34004C54.3351 8.33004 54.3151 8.32003 54.3051 8.30003C54.2951 8.28003 54.2852 8.26004 54.2852 8.24004V2.85004C54.2852 2.73004 54.3152 2.65005 54.3752 2.61005C54.4352 2.56005 54.5052 2.54004 54.5752 2.54004H55.8152C55.9652 2.54004 56.0852 2.54003 56.1852 2.55003C56.2852 2.56003 56.3652 2.57004 56.4452 2.57004C56.6652 2.61004 56.8652 2.67005 57.0452 2.75005C57.2152 2.83005 57.3652 2.94004 57.4752 3.07004C57.5952 3.20004 57.6752 3.35004 57.7352 3.51004C57.7952 3.68004 57.8252 3.86004 57.8252 4.06004C57.8252 4.26004 57.7951 4.43005 57.7451 4.58005C57.6951 4.73005 57.6152 4.87004 57.5152 4.99004C57.4152 5.11004 57.2952 5.21003 57.1552 5.30003C57.0152 5.39003 56.8652 5.46003 56.6952 5.52003C56.7952 5.56003 56.8752 5.62004 56.9552 5.68004C57.0352 5.74004 57.1051 5.82003 57.1751 5.91003C57.2451 6.00003 57.3051 6.10005 57.3651 6.22005C57.4251 6.34005 57.4852 6.47004 57.5452 6.62004L58.0652 7.90004C58.1052 8.01004 58.1351 8.08004 58.1451 8.13004C58.1851 8.19004 58.1852 8.22004 58.1852 8.24004ZM57.0251 4.16003C57.0251 3.93003 56.9752 3.74005 56.8752 3.58005C56.7752 3.42005 56.6051 3.31004 56.3651 3.24004C56.2951 3.22004 56.2051 3.20005 56.1151 3.19005C56.0251 3.18005 55.8951 3.18004 55.7451 3.18004H55.0952V5.14005H55.8552C56.0552 5.14005 56.2352 5.12004 56.3852 5.07004C56.5352 5.02004 56.6552 4.95005 56.7552 4.86005C56.8552 4.77005 56.9252 4.67003 56.9752 4.55003C57.0052 4.43003 57.0251 4.30003 57.0251 4.16003Z" fill="#A0BF38"/>
</g>
<defs>
<clipPath id="clip0_2316_73985">
<rect width="156" height="234" fill="white"/>
</clipPath>
</defs>
</svg>
