<svg width="177" height="45" viewBox="0 0 177 45" fill="none" xmlns="http://www.w3.org/2000/svg">
<path d="M48.7628 23.3094C47.2373 23.3094 46.0379 22.9632 45.1698 22.2757C44.3017 21.5882 43.8701 20.9158 43.8701 20.2534C43.8701 20.0426 43.9303 19.8771 44.0457 19.7516C44.1612 19.6261 44.3217 19.5609 44.5325 19.5609C44.7533 19.5709 44.944 19.6864 45.1146 19.8971C45.2802 20.1129 45.4458 20.3688 45.6013 20.6699C45.7569 20.971 45.9476 21.2671 46.1634 21.5631C46.3842 21.8592 46.7204 22.1101 47.177 22.3158C47.6337 22.5266 48.1857 22.627 48.833 22.627C49.656 22.627 50.3234 22.4112 50.8352 21.9746C51.3521 21.5431 51.608 20.981 51.608 20.2986C51.608 19.7215 51.4725 19.2448 51.2015 18.8734C50.9306 18.5021 50.5743 18.2361 50.1427 18.0655C49.7112 17.8999 49.2294 17.7594 48.7025 17.6591C48.1756 17.5537 47.6487 17.4383 47.1168 17.3128C46.5849 17.1874 46.1032 17.0167 45.6666 16.801C45.235 16.5852 44.8788 16.249 44.6078 15.7873C44.3368 15.3256 44.2013 14.7385 44.2013 14.036C44.2013 13.0424 44.5877 12.2295 45.3555 11.5972C46.1232 10.9649 47.182 10.6538 48.5219 10.6538C49.8868 10.6538 50.9757 10.9549 51.7937 11.5571C52.6116 12.1592 53.0181 12.8015 53.0181 13.484C53.0181 13.9457 52.7822 14.1765 52.3055 14.1765C52.0747 14.1765 51.879 14.0761 51.7234 13.8804C51.5679 13.6847 51.4273 13.4489 51.2969 13.1679C51.1714 12.8919 51.0108 12.6109 50.8302 12.3349C50.6445 12.0589 50.3535 11.818 49.952 11.6223C49.5506 11.4266 49.0588 11.3262 48.4667 11.3262C47.6236 11.3262 46.9613 11.547 46.4896 11.9836C46.0128 12.4252 45.777 12.9822 45.777 13.6647C45.777 14.2066 45.9125 14.6532 46.1834 14.9995C46.4544 15.3457 46.8107 15.6016 47.2523 15.7622C47.6939 15.9228 48.1756 16.0583 48.7025 16.1687C49.2294 16.2791 49.7563 16.4045 50.2832 16.54C50.8101 16.6805 51.2919 16.8612 51.7334 17.087C52.175 17.3128 52.5313 17.6641 52.8023 18.1458C53.0733 18.6275 53.2088 19.2197 53.2088 19.9272C53.2088 20.9459 52.7822 21.7638 51.9241 22.376C51.066 23.0033 50.0123 23.3094 48.7628 23.3094Z" fill="#003057"/>
<path d="M55.5474 22.9276V22.8925C55.5474 22.8122 55.6527 22.6918 55.8585 22.5262C56.0692 22.3656 56.1696 22.1699 56.1696 21.934V12.0233C56.1696 11.7925 56.0642 11.5918 55.8585 11.4262C55.6527 11.2606 55.5474 11.1351 55.5474 11.0548V11.0197C55.5474 10.8792 55.6628 10.814 55.8936 10.814H58.0614C58.2923 10.814 58.4077 10.8842 58.4077 11.0197V11.0548C58.4077 11.1351 58.3525 11.2154 58.2421 11.2957C58.1317 11.376 58.0213 11.4764 57.9109 11.5918C57.8005 11.7072 57.7453 11.8527 57.7453 12.0233V21.934C57.7453 22.1649 57.8557 22.3606 58.0765 22.5262C58.2973 22.6868 58.4077 22.8122 58.4077 22.8925V22.9276C58.4077 23.0681 58.2923 23.1384 58.0614 23.1384H55.8936C55.6628 23.1384 55.5474 23.0681 55.5474 22.9276Z" fill="#003057"/>
<path d="M74.8163 21.8688C74.8615 22.0997 74.992 22.3054 75.1977 22.486C75.4085 22.6667 75.5088 22.8022 75.5088 22.8925V22.9276C75.5088 23.0681 75.3934 23.1384 75.1626 23.1384H73.0299C72.7991 23.1384 72.6837 23.0681 72.6837 22.9276V22.8925C72.6837 22.8122 72.789 22.6767 73.0048 22.4911C73.2206 22.3054 73.3009 22.0996 73.2557 21.8638L71.7101 12.9065L68.2376 22.747C68.1323 22.9879 67.9817 23.1133 67.786 23.1133C67.5552 23.1133 67.3996 22.9979 67.3193 22.767L63.7615 12.7861L62.2862 21.8638C62.2511 22.0946 62.3564 22.3054 62.5973 22.4911C62.8382 22.6767 62.9636 22.8072 62.9636 22.8925V22.9276C62.9636 23.0681 62.8432 23.1384 62.5973 23.1384H61.0367C60.8058 23.1384 60.6904 23.0681 60.6904 22.9276V22.8925C60.6904 22.8022 60.7958 22.6617 61.0015 22.476C61.2123 22.2903 61.3327 22.0896 61.3679 21.8688L63.0539 12.0635C63.0891 11.8326 63.0038 11.6269 62.803 11.4462C62.6023 11.2656 62.4969 11.1402 62.4969 11.0749V11.0398C62.4969 10.8892 62.5873 10.814 62.7729 10.814H65.0813C65.2669 10.814 65.3572 10.8892 65.3572 11.0398V11.0749C65.3572 11.1201 65.2619 11.2405 65.0712 11.4412C64.8805 11.6369 64.8253 11.8477 64.9056 12.0685L67.9968 21.0258L71.1531 11.9982C71.2234 11.7875 71.1632 11.5968 70.9725 11.4262C70.7818 11.2505 70.6865 11.1351 70.6865 11.0799V11.0448C70.6865 10.8943 70.7768 10.819 70.9625 10.819H73.321C73.4966 10.819 73.5819 10.8842 73.5819 11.0097V11.0599C73.5819 11.1301 73.5468 11.2004 73.4765 11.2756C73.4063 11.3509 73.331 11.4161 73.2507 11.4764C73.1704 11.5366 73.1052 11.6269 73.05 11.7524C72.9998 11.8778 72.9898 12.0284 73.0249 12.204L74.8163 21.8688Z" fill="#003057"/>
<path d="M77.9376 23.1381C77.6967 23.1381 77.5713 23.0628 77.5713 22.9123V22.8772C77.5713 22.8069 77.6767 22.6915 77.8924 22.5209C78.1082 22.3553 78.2136 22.1546 78.2136 21.9237V12.0331C78.2136 11.8223 78.1082 11.6316 77.8924 11.461C77.6767 11.2854 77.5713 11.1599 77.5713 11.0797V11.0295C77.5713 10.889 77.6917 10.8237 77.9376 10.8237H81.1642C81.9169 10.8237 82.6094 10.899 83.2467 11.0495C83.884 11.2001 84.4611 11.4309 84.973 11.742C85.4898 12.0532 85.8913 12.4747 86.1873 13.0016C86.4834 13.5285 86.6289 14.1407 86.6289 14.8332C86.6289 16.1529 86.1823 17.1716 85.2941 17.8892C84.4009 18.6068 83.1614 18.9631 81.5607 18.9631H79.7742V21.9288C79.7742 22.1596 79.8846 22.3603 80.1104 22.5259C80.3363 22.6915 80.4466 22.8119 80.4466 22.8822V22.9173C80.4466 23.0679 80.3312 23.1431 80.1004 23.1431H77.9376V23.1381ZM80.4015 18.2405H81.5657C82.6295 18.2405 83.4726 17.9695 84.0898 17.4325C84.707 16.8956 85.0181 16.1529 85.0181 15.2045C85.0181 14.0152 84.6468 13.1019 83.8991 12.4697C83.1514 11.8374 82.2431 11.5212 81.1642 11.5212H80.2258C79.9248 11.5212 79.7742 11.7069 79.7742 12.0783V17.6132C79.7792 18.0347 79.985 18.2405 80.4015 18.2405Z" fill="#003057"/>
<path d="M88.0596 23.1387C87.8288 23.1387 87.7134 23.0685 87.7134 22.928V22.8929C87.7134 22.8025 87.8188 22.6721 88.0245 22.5115C88.2353 22.3509 88.3356 22.1552 88.3356 21.9193V12.0287C88.3356 11.7878 88.2302 11.5871 88.0245 11.4315C87.8188 11.276 87.7134 11.1505 87.7134 11.0602V11.0251C87.7134 10.8846 87.8288 10.8193 88.0596 10.8193H90.2475C90.4783 10.8193 90.5938 10.8896 90.5938 11.0251V11.0602C90.5938 11.1505 90.4834 11.276 90.2576 11.4315C90.0317 11.5871 89.9213 11.7878 89.9213 12.0287V21.7487C89.9213 22.2004 90.107 22.4262 90.4783 22.4262H94.3322C94.5631 22.4262 94.7738 22.3258 94.9595 22.1301C95.1452 21.9344 95.2907 21.7136 95.391 21.4727C95.4964 21.2319 95.6169 21.0111 95.7574 20.8154C95.8979 20.6197 96.0283 20.5193 96.1588 20.5193H96.2993C96.485 20.5193 96.5502 20.6247 96.49 20.8304L96.0585 22.7373C95.9982 23.0033 95.8577 23.1387 95.6269 23.1387H88.0596Z" fill="#003057"/>
<path d="M97.3429 23.1385C97.102 23.1385 96.9766 23.0683 96.9766 22.9278V22.8926C96.9766 22.8123 97.0819 22.6869 97.2977 22.5213C97.5135 22.3557 97.6189 22.1499 97.6189 21.9041V12.0435C97.6189 11.8579 97.5687 11.7073 97.4633 11.5819C97.3579 11.4614 97.2526 11.3611 97.1422 11.2858C97.0318 11.2105 96.9766 11.1302 96.9766 11.0499V10.9998C96.9766 10.8743 97.0819 10.8091 97.2877 10.8091H104.649C104.88 10.8091 105.026 10.9345 105.081 11.1904L105.497 12.9066C105.542 13.1375 105.472 13.2529 105.292 13.2529H105.206C105.091 13.2529 104.96 13.1626 104.815 12.9819C104.669 12.8013 104.539 12.6055 104.413 12.3848C104.293 12.164 104.137 11.9632 103.947 11.7876C103.756 11.6069 103.555 11.5166 103.35 11.5166H99.6713C99.3451 11.5166 99.1845 11.7123 99.1845 12.1088V16.4645H102.346C102.496 16.4645 102.622 16.4143 102.727 16.3089C102.833 16.2035 102.908 16.0881 102.963 15.9526C103.013 15.8221 103.074 15.7017 103.139 15.5963C103.204 15.491 103.274 15.4408 103.355 15.4408H103.425C103.575 15.4408 103.651 15.5411 103.651 15.7368V17.8695C103.651 18.0652 103.575 18.1656 103.425 18.1656H103.355C103.274 18.1656 103.199 18.1154 103.139 18.01C103.074 17.9047 103.018 17.7943 102.963 17.6738C102.913 17.5534 102.833 17.438 102.727 17.3376C102.622 17.2322 102.496 17.182 102.346 17.182H99.1845L99.1695 21.6783C99.1695 21.884 99.2247 22.0646 99.3351 22.2052C99.4455 22.3507 99.606 22.4209 99.8118 22.4209H103.891C104.097 22.4209 104.298 22.3306 104.484 22.1449C104.669 21.9593 104.815 21.7535 104.925 21.5277C105.036 21.3019 105.161 21.0962 105.307 20.9105C105.452 20.7248 105.588 20.6345 105.713 20.6345H105.818C105.899 20.6345 105.959 20.6696 105.999 20.7399C106.039 20.8101 106.049 20.8904 106.024 20.9807L105.608 22.732C105.547 22.998 105.397 23.1335 105.156 23.1335H97.3429V23.1385Z" fill="#003057"/>
<path d="M116.698 23.3088C115.157 23.3088 113.797 22.6615 112.618 21.3668C111.439 20.0721 110.847 18.5667 110.847 16.8555C110.847 15.039 111.389 13.5536 112.468 12.3945C113.551 11.2353 114.931 10.6582 116.607 10.6582C117.882 10.6582 118.986 11.0195 119.929 11.7421C120.873 12.4647 121.345 13.1723 121.345 13.8698C121.345 14.1006 121.279 14.2813 121.144 14.4168C121.008 14.5522 120.823 14.6175 120.582 14.6175C120.351 14.6175 120.14 14.5071 119.949 14.2813C119.759 14.0554 119.568 13.7845 119.387 13.4734C119.202 13.1622 118.991 12.8461 118.755 12.53C118.519 12.2138 118.183 11.9378 117.747 11.712C117.315 11.4862 116.803 11.3758 116.211 11.3758C115.167 11.3758 114.274 11.8074 113.531 12.6755C112.784 13.5436 112.412 14.6476 112.412 15.9924C112.412 17.6936 112.884 19.1087 113.827 20.2377C114.771 21.3668 115.875 21.9288 117.134 21.9288C118.073 21.9288 118.861 21.6478 119.503 21.0808C120.145 20.5137 120.627 19.8363 120.953 19.0484C121.058 18.8628 121.204 18.7925 121.385 18.8377C121.57 18.8829 121.641 19.0284 121.595 19.2692C121.385 20.3933 120.858 21.3467 120.01 22.1346C119.152 22.9174 118.048 23.3088 116.698 23.3088Z" fill="#003057"/>
<path d="M122.649 23.1381C122.418 23.1381 122.303 23.0679 122.303 22.9274V22.8922C122.303 22.8119 122.408 22.6865 122.614 22.5209C122.82 22.3553 122.925 22.1546 122.925 21.9237V12.0331C122.925 11.8023 122.82 11.6015 122.614 11.4359C122.403 11.2703 122.303 11.1449 122.303 11.0646V11.0295C122.303 10.889 122.418 10.8237 122.649 10.8237H124.817C125.048 10.8237 125.163 10.894 125.163 11.0295V11.0646C125.163 11.1449 125.108 11.2252 124.997 11.3055C124.887 11.3858 124.777 11.4861 124.666 11.6015C124.556 11.7169 124.501 11.8625 124.501 12.0331L124.486 16.4741H131.305L131.29 12.0331C131.29 11.8023 131.185 11.6015 130.979 11.4359C130.768 11.2703 130.668 11.1449 130.668 11.0646V11.0295C130.668 10.889 130.783 10.8237 131.014 10.8237H133.182C133.423 10.8237 133.548 10.894 133.548 11.0295V11.0646C133.548 11.1449 133.488 11.2252 133.373 11.3055C133.257 11.3858 133.142 11.4861 133.036 11.6015C132.926 11.7169 132.871 11.8625 132.871 12.0331V21.9237C132.871 22.0994 132.926 22.2399 133.036 22.3553C133.147 22.4707 133.257 22.5711 133.373 22.6514C133.488 22.7317 133.548 22.8119 133.548 22.8922V22.9274C133.548 23.0679 133.428 23.1381 133.182 23.1381H131.014C130.783 23.1381 130.668 23.0679 130.668 22.9274V22.8922C130.668 22.8119 130.773 22.6865 130.979 22.5209C131.19 22.3553 131.29 22.1546 131.29 21.9237L131.305 17.2368H124.506V21.9237C124.506 22.0994 124.561 22.2399 124.671 22.3553C124.782 22.4707 124.892 22.5711 125.002 22.6514C125.113 22.7317 125.168 22.8119 125.168 22.8922V22.9274C125.168 23.0679 125.053 23.1381 124.822 23.1381H122.649Z" fill="#003057"/>
<path d="M140.839 23.3092C139.058 23.3092 137.583 22.6769 136.413 21.4174C135.244 20.1578 134.662 18.6625 134.662 16.9413C134.662 15.1247 135.229 13.6193 136.363 12.43C137.497 11.2407 138.948 10.6436 140.719 10.6436C142.465 10.6436 143.905 11.2708 145.04 12.5203C146.174 13.7698 146.741 15.2803 146.741 17.0517C146.741 18.7779 146.169 20.2532 145.029 21.4776C143.89 22.697 142.49 23.3092 140.839 23.3092ZM141.221 22.5615C142.355 22.5615 143.298 22.1149 144.051 21.2267C144.804 20.3335 145.18 19.2897 145.18 18.0854C145.18 16.2086 144.713 14.6279 143.775 13.3282C142.837 12.0336 141.642 11.3862 140.182 11.3862C139.023 11.3862 138.074 11.8128 137.337 12.6709C136.594 13.529 136.228 14.5978 136.228 15.8824C136.228 17.7241 136.699 19.2947 137.643 20.6045C138.576 21.9092 139.776 22.5615 141.221 22.5615Z" fill="#003057"/>
<path d="M147.97 22.9276V22.8925C147.97 22.8122 148.076 22.6918 148.281 22.5262C148.487 22.3656 148.592 22.1699 148.592 21.934V12.0233C148.592 11.7925 148.487 11.5918 148.281 11.4262C148.071 11.2606 147.97 11.1351 147.97 11.0548V11.0197C147.97 10.8792 148.086 10.814 148.316 10.814H150.484C150.715 10.814 150.831 10.8842 150.831 11.0197V11.0548C150.831 11.1351 150.775 11.2154 150.665 11.2957C150.555 11.376 150.444 11.4764 150.334 11.5918C150.223 11.7072 150.168 11.8527 150.168 12.0233V21.934C150.168 22.1649 150.279 22.3606 150.499 22.5262C150.72 22.6868 150.831 22.8122 150.831 22.8925V22.9276C150.831 23.0681 150.715 23.1384 150.484 23.1384H148.316C148.086 23.1384 147.97 23.0681 147.97 22.9276Z" fill="#003057"/>
<path d="M158.228 23.3088C156.687 23.3088 155.327 22.6615 154.148 21.3668C152.969 20.0721 152.376 18.5667 152.376 16.8555C152.376 15.039 152.918 13.5536 153.997 12.3945C155.081 11.2353 156.461 10.6582 158.137 10.6582C159.412 10.6582 160.516 11.0195 161.459 11.7421C162.403 12.4647 162.874 13.1723 162.874 13.8698C162.874 14.1006 162.809 14.2813 162.674 14.4168C162.538 14.5522 162.352 14.6175 162.112 14.6175C161.881 14.6175 161.67 14.5071 161.479 14.2813C161.289 14.0554 161.098 13.7845 160.917 13.4734C160.732 13.1622 160.521 12.8461 160.285 12.53C160.049 12.2138 159.713 11.9378 159.276 11.712C158.845 11.4862 158.333 11.3758 157.741 11.3758C156.697 11.3758 155.804 11.8074 155.061 12.6755C154.313 13.5436 153.942 14.6476 153.942 15.9924C153.942 17.6936 154.414 19.1087 155.357 20.2377C156.301 21.3668 157.405 21.9288 158.664 21.9288C159.603 21.9288 160.39 21.6478 161.033 21.0808C161.675 20.5137 162.157 19.8363 162.483 19.0484C162.588 18.8628 162.734 18.7925 162.914 18.8377C163.1 18.8829 163.17 19.0284 163.125 19.2692C162.914 20.3933 162.388 21.3467 161.539 22.1346C160.686 22.9174 159.582 23.3088 158.228 23.3088Z" fill="#003057"/>
<path d="M164.184 23.1385C163.943 23.1385 163.817 23.0683 163.817 22.9278V22.8926C163.817 22.8123 163.923 22.6869 164.139 22.5213C164.354 22.3557 164.46 22.1499 164.46 21.9041V12.0435C164.46 11.8579 164.41 11.7073 164.304 11.5819C164.199 11.4614 164.093 11.3611 163.983 11.2858C163.873 11.2105 163.817 11.1302 163.817 11.0499V10.9998C163.817 10.8743 163.923 10.8091 164.129 10.8091H171.49C171.721 10.8091 171.866 10.9345 171.922 11.1904L172.338 12.9066C172.383 13.1375 172.313 13.2529 172.127 13.2529H172.042C171.927 13.2529 171.796 13.1626 171.651 12.9819C171.505 12.8013 171.375 12.6055 171.249 12.3848C171.129 12.164 170.973 11.9632 170.782 11.7876C170.592 11.6069 170.391 11.5166 170.185 11.5166H166.507C166.181 11.5166 166.02 11.7123 166.02 12.1088V16.4645H169.177C169.327 16.4645 169.453 16.4143 169.558 16.3089C169.663 16.2035 169.739 16.0881 169.794 15.9526C169.844 15.8221 169.904 15.7017 169.97 15.5963C170.035 15.491 170.105 15.4408 170.185 15.4408H170.256C170.406 15.4408 170.481 15.5411 170.481 15.7368V17.8695C170.481 18.0652 170.406 18.1656 170.256 18.1656H170.185C170.105 18.1656 170.03 18.1154 169.97 18.01C169.904 17.9047 169.849 17.7943 169.794 17.6738C169.744 17.5534 169.663 17.438 169.558 17.3376C169.453 17.2322 169.327 17.182 169.177 17.182H166.02L166.005 21.6783C166.005 21.884 166.06 22.0646 166.171 22.2052C166.281 22.3507 166.442 22.4209 166.648 22.4209H170.727C170.938 22.4209 171.134 22.3306 171.319 22.1449C171.505 21.9593 171.651 21.7535 171.761 21.5277C171.871 21.3019 171.997 21.0962 172.142 20.9105C172.288 20.7248 172.423 20.6345 172.549 20.6345H172.654C172.735 20.6345 172.795 20.6696 172.835 20.7399C172.875 20.8101 172.885 20.8904 172.86 20.9807L172.443 22.732C172.383 22.998 172.233 23.1335 171.992 23.1335H164.184V23.1385Z" fill="#003057"/>
<path d="M99.4657 33.9572C99.9173 32.9837 99.9123 32.2059 99.4557 31.7142C99.2098 31.4582 98.8134 31.3328 98.2764 31.3328C98.2513 31.3328 98.2262 31.3328 98.1961 31.3328C96.8613 31.3629 95.0147 32.1357 93.8756 32.8834C92.7164 33.6511 91.6576 34.454 90.659 35.3222C92.7164 32.6475 94.2519 30.4797 94.257 30.4697L94.3222 30.3793L94.2319 30.3191L94.2419 29.9829L93.8204 30.0532H93.7853L93.7652 30.0833C93.7551 30.0933 93.6498 30.2288 93.5293 30.3944C92.8268 31.3679 90.6891 34.3286 88.2654 37.3394C84.6574 40.6865 82.4243 43.6973 82.4143 43.7174C82.3691 43.7826 82.349 43.883 82.3691 43.9784C82.3842 44.0486 82.4193 44.1038 82.4645 44.1339L82.61 44.2293H82.6752L82.8559 44.169L82.8759 44.154C84.7276 42.6134 87.071 39.8435 88.7069 37.7961C90.6238 36.0297 92.4304 34.5996 94.2319 33.4253C95.4763 32.5923 97.1122 31.9952 98.2112 31.9701C98.2363 31.9701 98.2614 31.9701 98.2865 31.9701C98.6227 31.9701 98.8686 32.0353 98.984 32.1507C99.3252 32.5221 99.1245 33.1945 98.8937 33.6963C97.6893 36.3358 93.0526 40.3151 89.1285 40.4055C88.9829 40.4055 88.8525 40.4055 88.7371 40.4005C88.6216 40.3854 88.436 40.3252 88.3657 40.2499L88.3908 39.9438V39.8736L88.1148 39.6929L88.0747 39.6628L87.8238 39.8083L87.7987 39.8685C87.6933 40.0944 87.6883 40.3202 87.7937 40.546C87.9241 40.7919 88.2152 40.9575 88.6919 41.0478L89.1234 41.0528C93.3035 40.9374 98.2062 36.7373 99.4657 33.9572Z" fill="#003057"/>
<path d="M79.5489 38.4734C79.1123 38.4834 78.7661 38.8447 78.7761 39.2813C78.7861 39.7178 79.1474 40.0641 79.584 40.0541C80.0206 40.044 80.3618 39.6827 80.3518 39.2461C80.3467 38.8045 79.9854 38.4633 79.5489 38.4734Z" fill="#003057"/>
<path d="M81.0291 33.6112C81.0693 33.4556 81.0391 33.2448 80.6678 33.1094L80.6377 33.1043C80.2563 33.1144 79.3481 33.6965 77.8627 34.8958C75.8705 34.9711 75.5042 35.2019 75.4038 35.4227C75.3787 35.498 75.3838 35.5833 75.4239 35.6636C75.4741 35.7639 75.5644 35.8442 75.6748 35.8793L75.7049 35.8894L75.9759 35.774C76.0411 35.7288 76.3522 35.6786 76.6032 35.6435C76.7437 35.6234 76.8892 35.5983 77.0197 35.5782C76.6283 35.9094 76.0311 36.4213 75.4038 36.9934C74.6461 37.1941 73.8733 37.3848 73.1156 37.5654C71.7055 37.9016 70.2703 38.2479 68.8853 38.6995C68.7749 38.2077 68.3886 37.8213 68.0373 37.4751L67.9369 37.3697C67.8014 37.2342 67.6358 37.0837 67.4602 36.9181C67.1491 36.6321 66.7878 36.3009 66.4817 35.9446C68.5742 34.946 72.8045 32.7631 72.955 31.353C72.9801 31.0871 72.8747 30.8613 72.6338 30.6806C71.7958 30.0433 69.8388 30.9566 68.785 31.4484C68.6344 31.5186 68.499 31.5788 68.3936 31.629L68.3434 31.6491C67.2494 32.1308 65.2071 33.0291 65.172 34.4943C65.1619 34.9159 65.3125 35.2972 65.5584 35.6585C61.5138 37.4249 57.69 38.293 53.7157 38.3633C53.52 38.3683 53.4146 38.5289 53.4196 38.6794C53.4196 38.825 53.525 38.9755 53.7106 38.9755H53.7157C57.981 38.9002 62.1059 37.9618 65.9698 36.1804C66.2157 36.4514 66.4967 36.7123 66.7727 36.9683C67.4652 37.6106 68.1226 38.2278 68.2079 38.9203C66.6623 39.4723 65.192 40.1849 63.8974 41.2085L63.8171 41.2688C63.3203 41.6602 62.2815 42.4731 62.1962 43.2258C62.1762 43.4466 62.2364 43.6473 62.3769 43.818C62.5826 44.0638 62.8536 44.1642 63.1547 44.1642C64.068 44.1642 65.2472 43.2459 65.7741 42.8344L65.9498 42.6989C66.9333 41.9362 68.5341 40.7017 68.8603 39.382C70.3406 38.8601 71.8912 38.4887 73.3866 38.1224C73.7479 38.0371 74.1142 37.9418 74.4805 37.8514C74.1092 38.2178 73.7529 38.5841 73.4669 38.9203C73.3765 39.0307 73.3063 39.116 73.236 39.2013L72.7944 39.7684C72.5285 40.1447 72.3829 40.4358 72.5134 40.7168C72.6439 40.9928 72.955 41.0179 73.1206 41.0179C73.1457 41.0179 73.1658 41.0179 73.1808 41.0179L73.4167 40.9928C73.9988 40.9125 75.7451 40.4057 76.9745 39.8637C77.12 39.7884 77.2254 39.5977 77.1351 39.4121L77.125 39.387L76.8491 39.2415L76.7688 39.2314L76.7336 39.2364C75.5644 39.7483 73.8583 40.2702 73.3263 40.3203L73.1808 40.3454C73.2912 40.1798 73.5572 39.8486 73.9737 39.3569C74.1092 39.1963 74.2647 39.0357 74.4554 38.835L74.5558 38.7296C75.8053 37.9669 77.6519 36.6371 78.9667 35.5582L80.6778 35.5782C80.8535 35.5732 80.999 35.4327 81.0291 35.232C81.0291 35.1367 80.989 35.0514 80.9237 34.9911C80.8635 34.9309 80.7832 34.9008 80.6929 34.9008C80.6929 34.9008 80.6879 34.9008 80.6829 34.9008L79.7094 34.9711C80.9538 33.9424 81.009 33.7015 81.0291 33.6112ZM64.8809 41.2487C65.9096 40.5713 67.0939 40.0544 68.0574 39.6831C67.7161 40.3755 66.9634 41.0329 66.3562 41.5598L65.9949 41.876C65.4178 42.3978 64.068 43.6122 63.3654 43.4817C63.1396 43.4416 63.0142 43.3563 62.9941 43.2409C62.8937 42.7441 64.344 41.605 64.8809 41.2487ZM68.1226 32.4269L68.238 32.3717C69.3972 31.8147 70.3958 31.4484 71.294 31.2426C71.4697 31.2025 71.6302 31.1824 71.7707 31.1824C71.9815 31.1824 72.1371 31.2276 72.1923 31.3129C72.2525 31.4082 72.1923 31.5788 72.0216 31.7996C71.6955 32.2211 71.2489 32.5624 70.8173 32.8735C70.0244 33.4506 69.1413 33.9072 68.2882 34.3438L68.1627 34.409C67.4602 34.7703 66.7727 35.1066 66.0852 35.4177C65.8946 35.1116 65.7691 34.8004 65.7792 34.4943C65.8143 33.5208 67.3197 32.8083 68.1226 32.4269Z" fill="#003057"/>
<path d="M158.208 38.9658C157.309 39.5529 156.226 39.6583 155.177 39.5479C154.78 39.5077 154.409 39.3823 154.023 39.3271C153.616 39.2719 153.29 39.3973 152.899 39.4575C152.628 39.4977 152.723 39.578 152.668 39.4325C152.638 39.3472 152.703 39.2167 152.673 39.1163C152.618 38.9357 152.492 38.8353 152.306 38.8002C151.835 38.7199 150.314 39.864 150.078 39.5328C150.013 39.4425 150.309 38.7901 150.309 38.6546C150.314 38.474 150.279 38.3184 150.149 38.1829C149.853 37.8819 149.336 38.0123 148.974 38.1077C148.131 38.3285 147.323 38.7249 146.526 39.0712C145.833 39.3672 145.141 39.6533 144.443 39.9292L146.059 38.5643L146.4 38.1378L146.144 37.8618C146.074 37.7564 145.933 37.641 145.582 37.651C145.537 37.651 145.487 37.656 145.437 37.6611C144.814 37.7514 143.861 37.9571 143.219 38.3486C143.209 38.3486 143.214 38.3385 143.204 38.3385C143.194 38.3385 143.184 38.3385 143.168 38.3435C142.26 38.6898 139.681 39.593 138.517 39.7235C138.672 39.4525 139.756 38.6797 140.85 38.0675C140.981 37.9622 141.016 37.8317 140.961 37.7313L140.7 37.5356H140.639C140.253 37.6159 139.841 37.646 139.621 37.7112C139.54 37.4001 139.3 37.1241 139.104 37.0288L138.672 37.0639C138.456 37.2345 138.532 37.5206 138.587 37.7263C138.642 37.8919 138.753 37.9872 138.848 37.9822C138.873 37.9822 138.903 37.9722 138.923 37.9571C138.717 38.1127 138.296 38.2733 137.814 38.4589C137.814 38.4589 137.814 38.464 137.809 38.464C137.664 38.5242 134.116 39.6884 132.42 39.7235L132.043 39.7887C132.058 39.6733 132.324 39.3622 133.463 38.5593C133.689 38.4188 133.925 38.2733 133.78 38.0274L133.584 37.8819H133.539C133.433 37.8819 133.323 37.9471 133.188 38.0324C132.094 38.6145 129.815 39.8188 129.283 39.9242C129.324 39.7687 129.635 39.3522 130.538 38.76C130.694 38.6697 130.809 38.5744 130.939 38.469L131.165 38.2783L131.115 38.2181L131.24 37.8919L130.859 37.8367L130.568 38.0374C130.483 38.1077 130.372 38.198 130.217 38.2883C130.036 38.4088 129.886 38.5292 129.735 38.6446C129.73 38.6446 129.73 38.6396 129.725 38.6396C129.715 38.6396 129.705 38.6396 129.695 38.6396C127.893 39.1966 126.629 39.4224 125.886 39.6834C126.247 39.4525 126.734 39.0862 127.005 38.6296C127.161 38.2984 127.101 37.9822 126.85 37.8216C126.689 37.7012 126.448 37.641 126.157 37.646C125.525 37.6611 124.707 37.9772 123.959 38.6496C124.205 38.3887 124.406 38.203 124.682 37.932C125.46 37.6059 132.324 34.7004 132.425 32.7534C132.445 32.5426 132.339 32.3469 132.164 32.2616L131.883 32.2114C130.678 32.2415 127.367 34.5549 124.18 37.6259C123.969 37.8217 123.568 38.208 123.046 38.7952C123.021 38.8002 122.966 38.8152 122.74 38.8855C122.353 39.0159 121.626 39.2518 120.828 39.4927C120.577 39.5629 120.301 39.6282 120.015 39.6934L119.468 39.9092C119.403 39.5679 118.986 39.4776 118.66 39.4023C118.449 39.3471 118.239 39.2719 118.219 39.2669C118.214 39.2267 118.319 39.0611 118.6 38.8905C119.082 38.5693 119.839 38.3134 120.351 38.2984C120.537 38.2933 120.677 38.3234 120.738 38.3837L121.149 38.3787C121.244 38.2733 121.239 38.0876 121.139 37.9923C120.968 37.8116 120.687 37.7263 120.311 37.7313C119.694 37.7464 118.866 38.0274 118.294 38.4138C118.013 38.5944 117.867 38.755 117.772 38.9056H117.767C116.859 39.2518 114.279 40.1551 113.115 40.2855C113.271 40.0145 114.355 39.2418 115.449 38.6296C115.579 38.5242 115.619 38.3937 115.559 38.2933L115.298 38.0976H115.238C114.851 38.1779 114.44 38.208 114.219 38.2733C114.139 37.9621 113.898 37.6862 113.702 37.5908L113.271 37.6259C113.055 37.7966 113.13 38.0826 113.185 38.2883C113.241 38.4539 113.351 38.5493 113.446 38.5442C113.471 38.5442 113.502 38.5342 113.522 38.5192C113.316 38.6747 112.899 38.8353 112.418 39.021C109.899 39.9192 107.736 40.2855 106.898 40.3056C106.893 40.3056 106.893 40.3056 106.893 40.3056C106.511 40.2855 106.26 40.1701 106.311 39.9092C106.451 39.7185 106.752 39.5077 107.068 39.3371C107.324 39.4375 107.671 39.4877 108.047 39.4776C108.504 39.4676 108.935 39.3722 109.216 39.2117C109.703 38.9306 109.683 38.6496 109.633 38.5091C109.587 38.3636 109.442 38.203 108.78 38.2181C108.749 38.2181 108.719 38.2181 108.689 38.2181C108.348 38.2482 107.661 38.4439 106.958 38.7751C106.692 38.9005 106.471 39.031 106.291 39.1565H106.276C104.956 39.7335 103.029 40.3206 102.432 40.3758L102.095 40.4411C102.07 40.3608 102.366 39.9694 103.069 39.1414C103.25 38.9306 103.455 38.7149 103.731 38.4238C105.096 37.5908 107.209 36.0804 108.704 34.8409L110.656 34.866C110.802 34.861 110.932 34.7456 110.957 34.5749C110.952 34.4144 110.827 34.2889 110.666 34.2939L109.276 34.3943C110.862 33.0946 110.932 32.8086 110.957 32.7183C111.008 32.5226 110.897 32.372 110.606 32.2666C110.2 32.2767 109.181 32.939 107.53 34.2739C105.277 34.3541 104.911 34.6101 104.83 34.8008C104.78 34.9262 104.87 35.1269 105.076 35.1972L105.327 35.0918C105.508 34.9563 106.587 34.9011 106.943 34.7456C106.255 35.3176 103.907 37.3048 102.642 38.7751C102.482 38.9658 102.371 39.1013 102.251 39.2568C102.241 39.2568 102.246 39.2468 102.236 39.2468C102.226 39.2468 102.216 39.2468 102.206 39.2468C99.6817 40.15 97.524 40.5113 96.6859 40.5314H96.6809C96.2995 40.5113 96.0486 40.3959 96.0988 40.135C96.2393 39.9443 96.5404 39.7335 96.8566 39.5629C97.1125 39.6633 97.4587 39.7135 97.8351 39.7034C98.2917 39.6934 98.7233 39.598 99.0043 39.4375C99.4911 39.1565 99.471 38.8754 99.4208 38.7349C99.3756 38.5894 99.2301 38.4288 98.5677 38.4439C98.5376 38.4439 98.5075 38.4439 98.4774 38.4439C98.1362 38.474 97.4487 38.6697 96.7462 39.0009C96.2042 39.2618 95.8329 39.5278 95.6472 39.7887C95.3461 40.1601 95.4515 40.4461 95.4866 40.5465C95.6372 40.8777 96.0687 41.0633 96.7712 41.0985H96.7763C97.4236 41.0834 99.2552 40.8074 101.694 40.0095C101.523 40.3056 101.498 40.4963 101.584 40.687C101.709 40.9529 102.015 40.978 102.241 40.973L102.502 40.9479C103.029 40.8777 104.419 40.4812 105.663 40.0045C105.648 40.15 105.678 40.2604 105.698 40.3106C105.849 40.6418 106.281 40.8275 106.983 40.8626H106.988C107.701 40.8475 109.803 40.5515 112.618 39.5479V39.5428C112.935 39.4224 113.251 39.297 113.507 39.1615C112.789 39.6834 112.478 40.0647 112.533 40.3508C112.563 40.4812 112.669 40.6569 112.99 40.7221L113.266 40.7171C114.35 40.692 116.583 39.9242 117.737 39.5077C117.857 39.7135 118.113 39.8088 118.515 39.9242C118.63 39.9493 118.74 39.9744 118.725 39.9744C118.72 39.9744 118.695 39.9694 118.635 39.9594C117.3 40.2303 117.165 40.2604 117.17 40.5816L117.315 40.8676L117.37 40.8827C117.411 40.8927 117.541 40.9278 117.697 40.9228C118.073 40.9128 118.635 40.7221 119.067 40.4511C119.694 40.3458 120.391 40.1852 120.968 40.0095C121.475 39.864 121.932 39.7185 122.363 39.578C122.228 39.7436 122.103 39.8941 121.957 40.0848L121.972 40.4812L122.143 40.5465H122.168L122.374 40.4662C123.999 38.8002 125.394 38.188 126.162 38.1729C126.318 38.1679 126.443 38.193 126.493 38.3285C126.207 38.8654 125.349 39.3672 124.546 39.6532C123.894 39.6934 123.538 39.7285 123.297 39.9844L123.352 40.0346L123.302 40.3909C123.367 40.4511 123.457 40.4863 123.688 40.4812C123.748 40.4812 123.819 40.4762 123.894 40.4662C124.14 40.4411 124.446 40.3508 124.842 40.1902C125.505 40.1249 126.84 39.9744 128.927 39.4023C128.782 39.6131 128.686 39.8038 128.711 39.9543C128.716 40.1149 128.822 40.2604 128.982 40.3257L129.213 40.3457C129.645 40.3357 130.428 40.0346 131.727 39.2117C131.511 39.4676 131.436 39.6733 131.496 39.8891C131.542 40.0447 131.687 40.2354 132.134 40.2604L132.425 40.2654C134.231 40.2253 137.809 39.0461 138.025 38.9608C138.336 38.8403 138.652 38.7149 138.913 38.5844C138.196 39.1063 137.884 39.4877 137.94 39.7737C137.97 39.9042 138.075 40.0798 138.396 40.145L138.672 40.14C139.596 40.1199 141.352 39.5579 142.576 39.1314C142.551 39.302 142.551 39.4826 142.621 39.6583C142.722 39.8991 142.938 40.0246 143.234 40.0196C143.319 40.0196 143.409 40.0045 143.5 39.9644L142.481 40.8375C139.43 42.1121 137.714 42.9501 137.363 43.758C137.297 43.9487 137.142 44.3953 137.483 44.6312L137.749 44.7115C138.11 44.7014 138.973 44.3803 142.34 41.6655L142.752 41.3192L143.073 41.0483C144.197 40.6719 145.286 40.2203 146.375 39.7586C147.273 39.3722 148.182 38.9106 149.13 38.6647C149.235 38.6396 149.521 38.5242 149.622 38.5794C149.762 38.6547 149.642 38.6045 149.652 38.7952C149.667 39.0762 149.421 39.3622 149.446 39.6683C149.491 40.2905 150.098 40.2454 150.555 40.0898C150.967 39.9493 151.353 39.7335 151.749 39.5579C151.885 39.4977 152 39.4826 152.055 39.4224C152.035 39.5027 152.01 39.583 152.025 39.6532C152.161 40.3056 152.964 40.0045 153.395 39.9192C154.178 39.7687 155.127 40.1651 155.94 40.1601C156.848 40.1551 157.741 39.9594 158.509 39.4575C158.835 39.2769 158.534 38.755 158.208 38.9658ZM139.46 38.203L139.726 38.0776C139.611 38.1478 139.5 38.2181 139.4 38.2883C139.42 38.2582 139.44 38.2281 139.46 38.203ZM131.863 32.6681L131.878 32.7333C131.823 33.7871 128.41 35.6588 125.59 37.0689C128.897 34.0782 131.346 32.7584 131.863 32.7433V32.6681ZM114.059 38.7851L114.325 38.6597C114.209 38.7299 114.099 38.8002 113.998 38.8704C114.018 38.8453 114.044 38.8152 114.059 38.7851ZM108.925 38.74C108.89 38.76 108.81 38.765 108.764 38.7801L108.754 38.7149L108.925 38.74ZM109.412 33.6065C109.161 33.8172 108.88 34.0581 108.569 34.319L108.619 34.3792L108.293 34.4294C108.694 34.1283 109.071 33.8423 109.412 33.6065ZM107.746 34.8811L108.022 34.7556C107.395 35.2323 106.707 35.7492 106.05 36.3012C106.572 35.8546 107.746 34.8811 107.746 34.8811ZM98.7183 38.9708C98.6831 38.9909 98.6028 38.9959 98.5577 39.0109L98.5477 38.9457L98.7183 38.9708ZM137.819 44.2197C137.819 44.2197 137.824 44.1495 137.925 43.9437C138.03 43.6828 138.622 43.1759 140.795 42.1874C138.632 43.8684 137.97 44.1444 137.819 44.2197ZM143.148 39.4826C143.143 39.4826 143.138 39.4826 143.133 39.4826C143.083 39.3271 143.088 39.2468 143.163 39.1464C143.284 38.9206 143.761 38.5041 145.542 38.203L145.572 38.198C145.045 38.6095 143.781 39.4676 143.148 39.4826Z" fill="#003057"/>
<path d="M31.3651 43.7677C31.1845 43.7928 31.0289 44.0387 30.8684 44.1892C30.4519 44.5756 29.107 44.0387 28.7156 44.4502C28.1887 45.0072 27.2302 44.671 26.6231 44.0939C25.9707 43.4817 25.4639 42.7089 24.9169 41.9913C24.5907 41.5598 24.3047 41.0981 23.9635 40.5963C23.3814 41.0529 22.8745 41.4494 22.3226 41.8859C22.8143 42.1368 23.7176 42.3877 24.119 42.6336C24.4703 42.8494 24.671 43.1806 24.681 43.5268C24.6861 43.6824 24.6509 43.838 24.5757 43.9885C24.4201 44.2946 23.5319 44.5254 23.1756 44.5305C18.012 44.5555 12.743 44.7161 7.58945 44.4702C0.935464 44.1541 -1.20726 37.7259 0.629363 33.024C1.57276 30.6103 3.14844 28.6683 5.06535 26.9772C5.21087 26.8518 5.32128 26.7363 5.40157 26.631C5.62738 26.4603 9.28557 22.9226 10.0282 22.0896C13.8771 17.8041 15.9747 12.7911 16.1854 7.01024C16.2105 6.3629 16.0399 5.94139 15.4528 5.60518C14.675 5.16359 14.1431 4.4761 14.1029 3.53771C14.0929 3.30186 14.1481 3.061 14.2334 2.82515C14.2685 2.72479 14.3087 2.62442 14.3538 2.51904C14.399 2.69468 14.4542 2.8653 14.5094 3.02587C15.0463 4.52628 16.0951 5.44459 17.7711 5.78582C17.6858 5.99156 17.6608 6.24749 17.5554 6.29265C16.8177 6.5837 16.903 7.23103 16.8729 7.80811C16.5517 13.9352 14.1782 19.1339 9.82752 23.4394C9.01961 24.2373 5.43669 27.6647 5.09044 28.021C3.21869 29.9429 1.5828 32.0455 0.88529 34.69C0.0773784 37.7711 1.87385 43.0351 6.65609 43.5319C8.31206 43.7025 9.98308 43.7627 11.6441 43.8229C12.0104 43.838 12.4269 43.6924 12.7531 43.5018C14.0628 42.749 15.3575 41.9662 16.632 41.1533C16.7926 41.0529 16.8829 40.6967 16.8579 40.4809C16.7575 39.6077 16.4564 38.7346 16.4915 37.8715C16.617 34.4592 13.7466 32.0254 10.791 31.5788C9.32571 31.358 7.94072 31.5437 6.55071 31.92C6.33995 31.9752 6.11914 32.0204 5.87828 31.9852C6.73637 31.2125 7.79017 30.9164 8.87407 30.7508C12.7581 30.1587 16.2456 32.467 17.2543 36.2657C17.5002 37.194 17.6557 38.1525 17.9618 39.0658C18.4687 40.5863 19.9289 41.4995 21.4745 41.354C22.1268 41.2938 22.5032 41.0379 22.5283 40.2852C22.5634 39.1661 22.1921 38.2027 21.4745 37.4249C19.4823 35.2671 19.2966 32.6727 19.5476 29.963C19.6128 29.2454 19.8286 28.5378 19.9942 27.8303C20.0293 27.6747 20.1497 27.5392 20.23 27.3987C20.3053 27.4037 20.3806 27.4138 20.4558 27.4188C20.496 28.1464 20.6515 28.8891 20.5562 29.5966C20.24 31.8397 20.6315 33.8871 21.891 35.7789C22.5985 36.8428 23.266 37.9317 23.9233 39.0256C24.1592 39.417 24.39 39.4873 24.8115 39.3066C25.3284 39.0858 25.8804 38.9554 26.4775 38.7697C25.5442 35.8893 25.1628 33.0591 26.608 30.2239C26.7234 31.4784 26.8338 32.7329 26.9492 33.9875C27.0446 34.0025 27.1399 34.0126 27.2352 34.0276C27.451 33.31 27.707 32.5975 27.8776 31.8698C28.6554 28.4977 28.2389 25.1556 27.6819 21.7985C27.4209 20.2379 27.3055 18.6522 27.1951 17.0665C27.3557 17.1066 27.5113 17.1618 27.6718 17.1969C27.7672 17.222 27.8625 17.2371 27.9579 17.2572C27.9679 17.6837 27.993 18.1052 28.0281 18.5267C28.264 21.2967 28.7206 24.0517 29.0769 26.8116C29.373 29.1099 29.097 31.3479 28.1586 33.4606C27.3457 35.2871 27.4962 36.913 28.7005 38.5088C29.388 39.422 30.9888 41.5547 31.5759 42.5383C31.8218 42.9748 32.1379 43.6674 31.3651 43.7677Z" fill="#003057"/>
<path d="M35.9616 1.77641C35.3293 1.37998 34.6017 1.11402 33.8991 0.87315C31.7865 0.120437 26.9792 0 26.9139 0C24.6558 0.0652351 22.4679 0.486759 20.3654 1.3298C20.1797 1.40507 19.8937 1.29467 19.6578 1.23445C18.89 1.02369 18.1323 0.762751 17.3495 0.5821C16.8677 0.471702 16.5516 0.717589 16.5165 1.24951C16.5014 1.44521 16.4813 1.64594 16.4663 1.77641C15.8892 1.91691 15.3623 2.04738 14.8354 2.16782C14.6999 2.20294 14.5745 2.26316 14.4591 2.33843L14.3838 2.38861C14.3838 2.39865 14.3838 2.39865 14.3838 2.40367C14.5092 2.35349 14.6748 2.40868 14.8705 2.44883C15.0512 2.47894 15.4276 2.58431 15.4727 2.59936C16.391 2.84525 17.3093 3.11121 18.2176 3.38218C18.3832 3.43237 18.5337 3.56285 18.7044 3.62808C19.0406 3.76357 19.2162 3.69332 19.2513 3.26678C19.2714 3.02591 19.4521 2.7198 19.6578 2.60439C21.374 1.61081 23.2357 1.06885 25.2178 0.918311C25.8501 0.873148 31.3148 1.23947 31.5858 2.26316C31.7263 2.82519 31.6912 3.51769 31.4955 4.06968C31.0438 5.35431 30.9987 6.55864 31.7213 7.75295C32.1026 8.38523 31.9621 8.86696 31.3249 9.25837C30.4668 9.78527 29.7692 10.4527 29.3929 11.4463C29.3126 11.662 28.9212 11.8577 28.6402 11.8979C27.5713 12.0384 26.4974 12.1137 25.4537 12.214C25.4085 12.5201 25.4085 12.7911 25.4537 13.042C25.5741 13.1223 25.6946 13.1976 25.82 13.2728C26.0508 13.4234 26.3168 13.5288 26.5878 13.589C26.7433 13.6241 26.8939 13.6492 27.0294 13.6793C27.3505 13.7395 27.6616 13.7295 27.9678 13.7546C27.9728 13.3732 27.9828 12.9868 27.9828 12.5954C29.8495 12.485 31.5908 12.3997 33.3321 12.2742C34.2654 12.209 35.2741 12.1538 35.7759 11.1753C36.4885 9.79028 37.2261 8.40028 37.7781 6.95005C38.586 4.80733 37.9086 2.9958 35.9616 1.77641ZM17.3545 0.988564C18.0018 1.24449 18.5137 1.44521 19.1158 1.68106C18.2276 2.19291 17.5954 1.95705 17.3545 0.988564ZM33.4023 4.61162C33.598 4.32057 33.874 4.17504 34.2203 4.23024C34.5966 4.29548 34.8425 4.5213 34.9329 4.89263C34.983 5.08834 34.9328 5.28405 34.7974 5.49481C34.7522 5.39947 34.7321 5.34426 34.707 5.29407C34.6267 5.13851 34.5113 5.06325 34.3859 5.08332C34.2153 5.11343 34.0998 5.23387 34.0798 5.41452C34.0697 5.47975 34.0798 5.55502 34.0697 5.62527C34.0497 5.82599 33.9142 5.90128 33.7235 5.81095C33.307 5.61525 33.1314 4.99801 33.4023 4.61162ZM34.2153 11.923C34.2153 11.923 33.4274 11.7825 32.8202 10.6584C32.8955 10.7186 33.6532 11.0749 35.0784 11.381C35.4848 11.4864 34.2153 11.923 34.2153 11.923Z" fill="#003057"/>
<path d="M21.0581 4.9779C22.8395 5.29404 24.4704 4.97289 26.011 4.00439C25.8905 4.71696 25.3687 5.05317 24.7866 5.284C23.512 5.79585 22.2524 5.80589 21.0581 4.9779Z" fill="#003057"/>
<path d="M21.8256 12.0889C21.4643 12.8617 20.822 14.6331 21.0679 17.127C21.093 17.3729 21.3188 17.5586 21.5797 17.5435C22.503 17.4883 24.5956 17.2425 25.7849 16.2338C25.9153 16.1234 25.9956 15.9779 26.0207 15.8123L26.1612 14.9241C26.1863 14.7585 26.1512 14.5879 26.0558 14.4424C25.7748 14.0158 24.9418 13.1226 22.493 11.8731C22.2471 11.7477 21.936 11.848 21.8256 12.0889Z" fill="#003057"/>
<path d="M33.1013 13.6992C33.2067 14.5423 33.2669 16.414 32.2583 18.7274C32.1579 18.9582 31.8869 19.0686 31.641 18.9783C30.7779 18.6621 28.851 17.8492 28.033 16.5495C27.9427 16.409 27.9126 16.2434 27.9377 16.0828L28.0782 15.1946C28.1033 15.029 28.1936 14.8735 28.3291 14.7631C28.7255 14.4369 29.8044 13.8097 32.5343 13.3028C32.8052 13.2577 33.0662 13.4383 33.1013 13.6992Z" fill="#003057"/>
<path d="M26.1162 16.2287L26.3771 14.5928C26.3922 14.4874 26.4975 14.4122 26.613 14.4272L27.8022 14.5978C27.9126 14.6129 27.9929 14.7132 27.9729 14.8186L27.7119 16.4545C27.6969 16.5599 27.5915 16.6352 27.4761 16.6201L26.2868 16.4495C26.1764 16.4344 26.1011 16.3341 26.1162 16.2287Z" fill="#003057"/>
<path d="M174.917 7.47215C173.768 7.47215 172.835 6.53877 172.835 5.38963C172.835 4.24049 173.768 3.30713 174.917 3.30713C176.067 3.30713 177 4.24049 177 5.38963C177.005 6.53376 176.072 7.47215 174.917 7.47215ZM174.917 3.77381C174.029 3.77381 173.307 4.49642 173.307 5.38462C173.307 6.27283 174.029 6.99543 174.917 6.99543C175.806 6.99543 176.528 6.27283 176.528 5.38462C176.533 4.49642 175.811 3.77381 174.917 3.77381Z" fill="#003057"/>
<path d="M175.756 6.4579C175.756 6.46793 175.756 6.47296 175.751 6.483C175.746 6.48802 175.741 6.49805 175.731 6.49805C175.721 6.50307 175.701 6.50808 175.68 6.50808C175.66 6.50808 175.63 6.5131 175.6 6.5131C175.57 6.5131 175.545 6.5131 175.525 6.50808C175.505 6.50808 175.49 6.50307 175.48 6.49805C175.47 6.49303 175.46 6.48801 175.455 6.47797C175.45 6.46794 175.445 6.4579 175.44 6.44284L175.234 5.91595C175.209 5.85573 175.184 5.80053 175.159 5.75035C175.133 5.70017 175.103 5.65501 175.068 5.61989C175.033 5.58476 174.993 5.55464 174.943 5.53457C174.893 5.5145 174.837 5.50446 174.767 5.50446H174.571V6.45289C174.571 6.46293 174.566 6.46794 174.561 6.47797C174.556 6.48801 174.546 6.48801 174.536 6.49303C174.526 6.49805 174.511 6.50306 174.491 6.50306C174.471 6.50808 174.451 6.50808 174.421 6.50808C174.391 6.50808 174.371 6.50808 174.351 6.50306C174.331 6.49804 174.316 6.49805 174.305 6.49303C174.295 6.48801 174.285 6.48299 174.28 6.47797C174.275 6.47296 174.275 6.46293 174.275 6.45289V4.39045C174.275 4.34529 174.285 4.31518 174.311 4.2951C174.336 4.27503 174.361 4.27002 174.386 4.27002H174.857C174.913 4.27002 174.963 4.27001 174.998 4.27503C175.033 4.28005 175.068 4.28006 175.098 4.28507C175.184 4.30013 175.259 4.32521 175.324 4.35532C175.389 4.38543 175.445 4.4306 175.49 4.47576C175.535 4.52594 175.57 4.58114 175.59 4.64638C175.61 4.71161 175.625 4.78186 175.625 4.85713C175.625 4.9324 175.615 4.99765 175.595 5.05786C175.575 5.11808 175.545 5.16826 175.51 5.21342C175.47 5.25859 175.425 5.29872 175.374 5.33385C175.319 5.36898 175.264 5.39406 175.199 5.41915C175.234 5.4342 175.269 5.45429 175.299 5.47938C175.329 5.50447 175.354 5.53458 175.384 5.5697C175.409 5.60483 175.435 5.64497 175.46 5.69013C175.485 5.73529 175.505 5.78548 175.53 5.84068L175.731 6.33245C175.746 6.37259 175.756 6.40271 175.761 6.41776C175.756 6.43783 175.756 6.44786 175.756 6.4579ZM175.314 4.89226C175.314 4.80695 175.294 4.73168 175.254 4.67146C175.214 4.61124 175.149 4.56608 175.058 4.54099C175.028 4.53095 174.998 4.52593 174.963 4.52593C174.928 4.52593 174.878 4.52092 174.822 4.52092H174.571V5.27364H174.862C174.943 5.27364 175.008 5.2636 175.063 5.24353C175.118 5.22346 175.169 5.19836 175.204 5.16324C175.244 5.12811 175.269 5.08796 175.289 5.04279C175.304 4.99763 175.314 4.94746 175.314 4.89226Z" fill="#003057"/>
</svg>
