<svg width="260" height="66" viewBox="0 0 260 66" fill="none" xmlns="http://www.w3.org/2000/svg">
<path d="M71.6291 34.3836C69.3882 34.3836 67.6265 33.875 66.3513 32.8652C65.0761 31.8553 64.4421 30.8676 64.4421 29.8946C64.4421 29.585 64.5306 29.3417 64.7001 29.1574C64.8697 28.9732 65.1055 28.8773 65.4151 28.8773C65.7395 28.8921 66.0196 29.0616 66.2702 29.3712C66.5134 29.6882 66.7567 30.0641 66.9852 30.5064C67.2137 30.9486 67.4938 31.3835 67.8108 31.8184C68.1351 32.2533 68.629 32.6219 69.2998 32.9241C69.9705 33.2337 70.7814 33.3811 71.7322 33.3811C72.9411 33.3811 73.9215 33.0642 74.6734 32.4229C75.4326 31.789 75.8085 30.9634 75.8085 29.9609C75.8085 29.1132 75.6095 28.413 75.2114 27.8675C74.8134 27.322 74.2901 26.9313 73.6561 26.6807C73.0222 26.4375 72.3146 26.2311 71.5406 26.0836C70.7666 25.9288 69.9927 25.7593 69.2113 25.575C68.43 25.3907 67.7223 25.1401 67.081 24.8232C66.4471 24.5062 65.9238 24.0123 65.5257 23.3342C65.1277 22.656 64.9286 21.7936 64.9286 20.7616C64.9286 19.3021 65.4962 18.108 66.624 17.1792C67.7518 16.2505 69.3071 15.7935 71.2752 15.7935C73.2802 15.7935 74.8797 16.2357 76.0812 17.1203C77.2827 18.0048 77.8798 18.9483 77.8798 19.9508C77.8798 20.629 77.5334 20.968 76.8331 20.968C76.494 20.968 76.2066 20.8206 75.9781 20.5331C75.7496 20.2457 75.5432 19.8992 75.3515 19.4864C75.1672 19.081 74.9313 18.6682 74.666 18.2628C74.3933 17.8574 73.9657 17.5036 73.376 17.2161C72.7863 16.9286 72.064 16.7812 71.1942 16.7812C69.9558 16.7812 68.9828 17.1055 68.2899 17.7468C67.5896 18.3955 67.2432 19.2137 67.2432 20.2162C67.2432 21.0123 67.4422 21.6683 67.8403 22.1769C68.2383 22.6855 68.7617 23.0615 69.4103 23.2973C70.059 23.5332 70.7666 23.7322 71.5406 23.8944C72.3146 24.0566 73.0886 24.2408 73.8625 24.4399C74.6365 24.6463 75.3441 24.9116 75.9928 25.2433C76.6415 25.575 77.1648 26.091 77.5629 26.7986C77.9609 27.5063 78.1599 28.3761 78.1599 29.4154C78.1599 30.9118 77.5334 32.1133 76.2729 33.0126C75.0124 33.934 73.4645 34.3836 71.6291 34.3836Z" fill="#97D700"/>
<path d="M81.595 33.8229V33.7713C81.595 33.6533 81.7498 33.4765 82.052 33.2332C82.3616 32.9973 82.509 32.7098 82.509 32.3634V17.8053C82.509 17.4662 82.3542 17.1713 82.052 16.9281C81.7498 16.6848 81.595 16.5006 81.595 16.3826V16.331C81.595 16.1246 81.7645 16.0288 82.1036 16.0288H85.2879C85.627 16.0288 85.7966 16.132 85.7966 16.331V16.3826C85.7966 16.5006 85.7155 16.6185 85.5533 16.7365C85.3911 16.8544 85.229 17.0018 85.0668 17.1714C84.9046 17.3409 84.8236 17.5546 84.8236 17.8053V32.3634C84.8236 32.7025 84.9857 32.99 85.3101 33.2332C85.6344 33.4691 85.7966 33.6533 85.7966 33.7713V33.8229C85.7966 34.0293 85.627 34.1325 85.2879 34.1325H82.1036C81.7645 34.1325 81.595 34.0293 81.595 33.8229Z" fill="#97D700"/>
<path d="M109.9 32.2676C109.967 32.6067 110.158 32.9089 110.461 33.1742C110.77 33.4396 110.918 33.6386 110.918 33.7713V33.8229C110.918 34.0293 110.748 34.1325 110.409 34.1325H107.276C106.937 34.1325 106.768 34.0293 106.768 33.8229V33.7713C106.768 33.6533 106.922 33.4543 107.239 33.1816C107.556 32.9089 107.674 32.6066 107.608 32.2602L105.338 19.1026L100.237 33.5575C100.082 33.9114 99.8608 34.0956 99.5733 34.0956C99.2342 34.0956 99.0057 33.9261 98.8877 33.587L93.6616 18.9257L91.4944 32.2602C91.4428 32.5993 91.5976 32.9089 91.9514 33.1816C92.3053 33.4543 92.4895 33.646 92.4895 33.7713V33.8229C92.4895 34.0293 92.3126 34.1325 91.9514 34.1325H89.659C89.3199 34.1325 89.1504 34.0293 89.1504 33.8229V33.7713C89.1504 33.6386 89.3052 33.4322 89.6074 33.1595C89.917 32.8868 90.0939 32.5919 90.1455 32.2676L92.6222 17.8643C92.6738 17.5252 92.5485 17.2229 92.2537 16.9576C91.9588 16.6922 91.804 16.508 91.804 16.4121V16.3605C91.804 16.1394 91.9367 16.0288 92.2094 16.0288H95.6002C95.8729 16.0288 96.0056 16.1394 96.0056 16.3605V16.4121C96.0056 16.4785 95.8656 16.6554 95.5855 16.9502C95.3053 17.2377 95.2243 17.5473 95.3422 17.8716L99.8829 31.0292L104.519 17.7684C104.623 17.4588 104.534 17.1787 104.254 16.9281C103.974 16.6701 103.834 16.5006 103.834 16.4195V16.3679C103.834 16.1468 103.966 16.0362 104.239 16.0362H107.704C107.962 16.0362 108.087 16.132 108.087 16.3163V16.39C108.087 16.4932 108.035 16.5964 107.932 16.707C107.829 16.8175 107.718 16.9134 107.6 17.0018C107.483 17.0903 107.387 17.223 107.306 17.4072C107.232 17.5915 107.217 17.8127 107.269 18.0706L109.9 32.2676Z" fill="#97D700"/>
<path d="M114.485 34.1324C114.131 34.1324 113.947 34.0218 113.947 33.8007V33.7491C113.947 33.6459 114.102 33.4763 114.419 33.2257C114.736 32.9825 114.891 32.6876 114.891 32.3485V17.8199C114.891 17.5103 114.736 17.2302 114.419 16.9796C114.102 16.7216 113.947 16.5373 113.947 16.4194V16.3457C113.947 16.1393 114.124 16.0435 114.485 16.0435H119.225C120.33 16.0435 121.348 16.154 122.284 16.3751C123.22 16.5963 124.068 16.9354 124.82 17.3924C125.579 17.8494 126.168 18.4686 126.603 19.2426C127.038 20.0165 127.252 20.9158 127.252 21.933C127.252 23.8717 126.596 25.368 125.291 26.4221C123.979 27.4762 122.159 27.9995 119.807 27.9995H117.183V32.3559C117.183 32.695 117.345 32.9898 117.677 33.2331C118.009 33.4763 118.171 33.6532 118.171 33.7564V33.808C118.171 34.0292 118.001 34.1397 117.662 34.1397H114.485V34.1324ZM118.104 26.9381H119.814C121.377 26.9381 122.616 26.54 123.522 25.7513C124.429 24.9626 124.886 23.8717 124.886 22.4785C124.886 20.7315 124.34 19.39 123.242 18.4612C122.144 17.5324 120.81 17.068 119.225 17.068H117.846C117.404 17.068 117.183 17.3408 117.183 17.8863V26.0167C117.19 26.6359 117.493 26.9381 118.104 26.9381Z" fill="#97D700"/>
<path d="M129.353 34.1329C129.014 34.1329 128.844 34.0297 128.844 33.8233V33.7717C128.844 33.639 128.999 33.4474 129.301 33.2115C129.611 32.9756 129.758 32.6882 129.758 32.3417V17.8131C129.758 17.4593 129.603 17.1644 129.301 16.9359C128.999 16.7074 128.844 16.5231 128.844 16.3904V16.3388C128.844 16.1324 129.014 16.0366 129.353 16.0366H132.567C132.906 16.0366 133.075 16.1398 133.075 16.3388V16.3904C133.075 16.5231 132.913 16.7074 132.581 16.9359C132.25 17.1644 132.088 17.4593 132.088 17.8131V32.0911C132.088 32.7545 132.36 33.0862 132.906 33.0862H138.567C138.906 33.0862 139.216 32.9388 139.488 32.6513C139.761 32.3638 139.975 32.0395 140.122 31.6857C140.277 31.3319 140.454 31.0075 140.66 30.7201C140.867 30.4326 141.058 30.2852 141.25 30.2852H141.456C141.729 30.2852 141.825 30.44 141.736 30.7422L141.103 33.5432C141.014 33.9339 140.808 34.1329 140.469 34.1329H129.353Z" fill="#97D700"/>
<path d="M142.99 34.1325C142.636 34.1325 142.451 34.0293 142.451 33.8229V33.7713C142.451 33.6534 142.606 33.4691 142.923 33.2259C143.24 32.9826 143.395 32.6804 143.395 32.3192V17.8348C143.395 17.5621 143.321 17.3409 143.166 17.1567C143.012 16.9797 142.857 16.8323 142.695 16.7217C142.533 16.6112 142.451 16.4932 142.451 16.3753V16.3016C142.451 16.1173 142.606 16.0215 142.908 16.0215H153.722C154.061 16.0215 154.275 16.2057 154.356 16.5817L154.968 19.1026C155.034 19.4417 154.931 19.6113 154.665 19.6113H154.54C154.371 19.6113 154.179 19.4786 153.965 19.2132C153.751 18.9478 153.56 18.6604 153.376 18.336C153.199 18.0117 152.97 17.7168 152.69 17.4589C152.41 17.1935 152.115 17.0608 151.813 17.0608H146.41C145.931 17.0608 145.695 17.3483 145.695 17.9306V24.3288H150.339C150.56 24.3288 150.744 24.2551 150.899 24.1003C151.054 23.9455 151.164 23.776 151.245 23.577C151.319 23.3853 151.407 23.2084 151.503 23.0536C151.599 22.8988 151.702 22.8251 151.82 22.8251H151.923C152.145 22.8251 152.255 22.9725 152.255 23.26V26.3928C152.255 26.6802 152.145 26.8277 151.923 26.8277H151.82C151.702 26.8277 151.592 26.754 151.503 26.5992C151.407 26.4444 151.326 26.2822 151.245 26.1053C151.172 25.9284 151.054 25.7588 150.899 25.6114C150.744 25.4566 150.56 25.3829 150.339 25.3829H145.695L145.673 31.9875C145.673 32.2897 145.754 32.5551 145.916 32.7615C146.078 32.9752 146.314 33.0784 146.616 33.0784H152.609C152.911 33.0784 153.206 32.9458 153.479 32.673C153.751 32.4003 153.965 32.0981 154.127 31.7664C154.29 31.4346 154.474 31.1324 154.688 30.8597C154.901 30.587 155.1 30.4543 155.285 30.4543H155.439C155.557 30.4543 155.646 30.5059 155.705 30.6091C155.764 30.7123 155.779 30.8302 155.742 30.9629L155.13 33.5354C155.041 33.9261 154.82 34.1251 154.466 34.1251H142.99V34.1325Z" fill="#97D700"/>
<path d="M171.42 34.3831C169.157 34.3831 167.16 33.4322 165.427 31.5304C163.695 29.6287 162.825 27.4173 162.825 24.9037C162.825 22.2354 163.622 20.0535 165.206 18.3507C166.799 16.648 168.826 15.8003 171.288 15.8003C173.16 15.8003 174.782 16.331 176.167 17.3925C177.553 18.4539 178.246 19.4933 178.246 20.5179C178.246 20.857 178.15 21.1223 177.951 21.3213C177.752 21.5204 177.479 21.6162 177.126 21.6162C176.786 21.6162 176.477 21.454 176.197 21.1223C175.917 20.7906 175.637 20.3926 175.371 19.9355C175.098 19.4785 174.789 19.0141 174.442 18.5498C174.096 18.0854 173.602 17.68 172.961 17.3482C172.327 17.0165 171.575 16.8544 170.705 16.8544C169.172 16.8544 167.86 17.4883 166.769 18.7635C165.671 20.0387 165.125 21.6604 165.125 23.6359C165.125 26.1347 165.818 28.2134 167.204 29.8719C168.59 31.5304 170.211 32.356 172.062 32.356C173.44 32.356 174.597 31.9432 175.541 31.1103C176.484 30.2773 177.192 29.2822 177.671 28.1249C177.826 27.8522 178.04 27.749 178.305 27.8154C178.578 27.8817 178.681 28.0955 178.615 28.4493C178.305 30.1004 177.531 31.501 176.285 32.6582C175.025 33.8081 173.403 34.3831 171.42 34.3831Z" fill="#97D700"/>
<path d="M180.162 34.1324C179.823 34.1324 179.654 34.0292 179.654 33.8228V33.7712C179.654 33.6532 179.809 33.469 180.111 33.2257C180.413 32.9825 180.568 32.6876 180.568 32.3485V17.8199C180.568 17.4808 180.413 17.186 180.111 16.9427C179.801 16.6995 179.654 16.5152 179.654 16.3973V16.3457C179.654 16.1393 179.823 16.0435 180.162 16.0435H183.347C183.686 16.0435 183.855 16.1467 183.855 16.3457V16.3973C183.855 16.5152 183.774 16.6331 183.612 16.7511C183.45 16.869 183.288 17.0164 183.126 17.186C182.963 17.3555 182.882 17.5693 182.882 17.8199L182.86 24.3434H192.878L192.856 17.8199C192.856 17.4808 192.701 17.186 192.399 16.9427C192.089 16.6995 191.942 16.5152 191.942 16.3973V16.3457C191.942 16.1393 192.111 16.0435 192.45 16.0435H195.635C195.988 16.0435 196.173 16.1467 196.173 16.3457V16.3973C196.173 16.5152 196.084 16.6331 195.915 16.7511C195.745 16.869 195.576 17.0164 195.421 17.186C195.259 17.3555 195.178 17.5693 195.178 17.8199V32.3485C195.178 32.6065 195.259 32.8129 195.421 32.9825C195.583 33.152 195.745 33.2994 195.915 33.4174C196.084 33.5353 196.173 33.6532 196.173 33.7712V33.8228C196.173 34.0292 195.996 34.1324 195.635 34.1324H192.45C192.111 34.1324 191.942 34.0292 191.942 33.8228V33.7712C191.942 33.6532 192.096 33.469 192.399 33.2257C192.708 32.9825 192.856 32.6876 192.856 32.3485L192.878 25.4638H182.89V32.3485C182.89 32.6065 182.971 32.8129 183.133 32.9825C183.295 33.152 183.457 33.2994 183.62 33.4174C183.782 33.5353 183.863 33.6532 183.863 33.7712V33.8228C183.863 34.0292 183.693 34.1324 183.354 34.1324H180.162Z" fill="#97D700"/>
<path d="M206.883 34.3832C204.266 34.3832 202.099 33.4545 200.382 31.6043C198.664 29.7541 197.809 27.5575 197.809 25.0292C197.809 22.3608 198.642 20.1494 200.308 18.4025C201.974 16.6555 204.104 15.7783 206.706 15.7783C209.271 15.7783 211.387 16.6997 213.053 18.5352C214.719 20.3706 215.552 22.5893 215.552 25.1914C215.552 27.727 214.711 29.8942 213.038 31.6927C211.365 33.4839 209.308 34.3832 206.883 34.3832ZM207.443 33.2849C209.109 33.2849 210.495 32.6289 211.601 31.3242C212.706 30.0121 213.259 28.4789 213.259 26.7098C213.259 23.953 212.574 21.6311 211.195 19.7219C209.817 17.8201 208.062 16.8693 205.917 16.8693C204.215 16.8693 202.822 17.4958 201.738 18.7563C200.647 20.0168 200.109 21.5868 200.109 23.4739C200.109 26.1791 200.802 28.4863 202.188 30.4102C203.559 32.3267 205.32 33.2849 207.443 33.2849Z" fill="#97D700"/>
<path d="M217.358 33.8229V33.7713C217.358 33.6533 217.512 33.4765 217.815 33.2332C218.117 32.9973 218.272 32.7098 218.272 32.3634V17.8053C218.272 17.4662 218.117 17.1713 217.815 16.9281C217.505 16.6848 217.358 16.5006 217.358 16.3826V16.331C217.358 16.1246 217.527 16.0288 217.866 16.0288H221.051C221.39 16.0288 221.559 16.132 221.559 16.331V16.3826C221.559 16.5006 221.478 16.6185 221.316 16.7365C221.154 16.8544 220.992 17.0018 220.829 17.1714C220.667 17.3409 220.586 17.5546 220.586 17.8053V32.3634C220.586 32.7025 220.748 32.99 221.073 33.2332C221.397 33.4691 221.559 33.6533 221.559 33.7713V33.8229C221.559 34.0293 221.39 34.1325 221.051 34.1325H217.866C217.527 34.1325 217.358 34.0293 217.358 33.8229Z" fill="#97D700"/>
<path d="M232.424 34.3831C230.161 34.3831 228.164 33.4322 226.432 31.5304C224.699 29.6287 223.83 27.4173 223.83 24.9037C223.83 22.2354 224.626 20.0535 226.21 18.3507C227.803 16.648 229.83 15.8003 232.292 15.8003C234.164 15.8003 235.786 16.331 237.171 17.3925C238.557 18.4539 239.25 19.4933 239.25 20.5179C239.25 20.857 239.154 21.1223 238.955 21.3213C238.756 21.5204 238.484 21.6162 238.13 21.6162C237.791 21.6162 237.481 21.454 237.201 21.1223C236.921 20.7906 236.641 20.3926 236.375 19.9355C236.103 19.4785 235.793 19.0141 235.447 18.5498C235.1 18.0854 234.606 17.68 233.965 17.3482C233.331 17.0165 232.579 16.8544 231.709 16.8544C230.176 16.8544 228.864 17.4883 227.773 18.7635C226.675 20.0387 226.129 21.6604 226.129 23.6359C226.129 26.1347 226.822 28.2134 228.208 29.8719C229.594 31.5304 231.216 32.356 233.066 32.356C234.444 32.356 235.601 31.9432 236.545 31.1103C237.488 30.2773 238.196 29.2822 238.675 28.1249C238.83 27.8522 239.044 27.749 239.309 27.8154C239.582 27.8817 239.685 28.0955 239.619 28.4493C239.309 30.1004 238.535 31.501 237.289 32.6582C236.036 33.8081 234.415 34.3831 232.424 34.3831Z" fill="#97D700"/>
<path d="M241.174 34.1325C240.82 34.1325 240.636 34.0293 240.636 33.8229V33.7713C240.636 33.6534 240.791 33.4691 241.108 33.2259C241.424 32.9826 241.579 32.6804 241.579 32.3192V17.8348C241.579 17.5621 241.506 17.3409 241.351 17.1567C241.196 16.9797 241.041 16.8323 240.879 16.7217C240.717 16.6112 240.636 16.4932 240.636 16.3753V16.3016C240.636 16.1173 240.791 16.0215 241.093 16.0215H251.906C252.245 16.0215 252.459 16.2057 252.54 16.5817L253.152 19.1026C253.218 19.4417 253.115 19.6113 252.842 19.6113H252.717C252.548 19.6113 252.356 19.4786 252.142 19.2132C251.928 18.9478 251.737 18.6604 251.552 18.336C251.376 18.0117 251.147 17.7168 250.867 17.4589C250.587 17.1935 250.292 17.0608 249.99 17.0608H244.587C244.108 17.0608 243.872 17.3483 243.872 17.9306V24.3288H248.508C248.729 24.3288 248.914 24.2551 249.068 24.1003C249.223 23.9455 249.334 23.776 249.415 23.577C249.489 23.3853 249.577 23.2084 249.673 23.0536C249.769 22.8988 249.872 22.8251 249.99 22.8251H250.093C250.314 22.8251 250.425 22.9725 250.425 23.26V26.3928C250.425 26.6802 250.314 26.8277 250.093 26.8277H249.99C249.872 26.8277 249.761 26.754 249.673 26.5992C249.577 26.4444 249.496 26.2822 249.415 26.1053C249.341 25.9284 249.223 25.7588 249.068 25.6114C248.914 25.4566 248.729 25.3829 248.508 25.3829H243.872L243.85 31.9875C243.85 32.2897 243.931 32.5551 244.093 32.7615C244.255 32.9752 244.491 33.0784 244.793 33.0784H250.786C251.095 33.0784 251.383 32.9458 251.656 32.673C251.928 32.4003 252.142 32.0981 252.304 31.7664C252.467 31.4346 252.651 31.1324 252.865 30.8597C253.078 30.587 253.277 30.4543 253.462 30.4543H253.616C253.734 30.4543 253.823 30.5059 253.882 30.6091C253.941 30.7123 253.956 30.8302 253.919 30.9629L253.307 33.5354C253.218 33.9261 252.997 34.1251 252.643 34.1251H241.174V34.1325Z" fill="#97D700"/>
<path d="M146.108 50.0245C146.771 48.5945 146.764 47.452 146.093 46.7296C145.732 46.3537 145.149 46.1694 144.361 46.1694C144.324 46.1694 144.287 46.1694 144.243 46.1694C142.282 46.2136 139.569 47.3488 137.896 48.4471C136.193 49.5749 134.638 50.7543 133.171 52.0295C136.193 48.1006 138.449 44.9163 138.456 44.9015L138.552 44.7689L138.419 44.6804L138.434 44.1865L137.815 44.2897H137.763L137.734 44.334C137.719 44.3487 137.564 44.5477 137.387 44.791C136.355 46.221 133.215 50.57 129.655 54.9927C124.355 59.9093 121.075 64.332 121.06 64.3615C120.994 64.4573 120.964 64.6048 120.994 64.7448C121.016 64.848 121.068 64.9291 121.134 64.9733L121.348 65.1134H121.443L121.709 65.0249L121.738 65.0028C124.458 62.7398 127.901 58.6709 130.304 55.6635C133.119 53.0688 135.773 50.968 138.419 49.2432C140.247 48.0196 142.65 47.1424 144.265 47.1055C144.302 47.1055 144.338 47.1055 144.375 47.1055C144.869 47.1055 145.23 47.2013 145.4 47.3709C145.901 47.9164 145.606 48.9041 145.267 49.6412C143.498 53.5185 136.687 59.3638 130.923 59.4965C130.709 59.4965 130.517 59.4965 130.348 59.4891C130.178 59.467 129.906 59.3786 129.802 59.268L129.839 58.8184V58.7151L129.434 58.4498L129.375 58.4056L129.006 58.6193L128.969 58.7078C128.815 59.0395 128.807 59.3712 128.962 59.7029C129.154 60.0641 129.581 60.3073 130.282 60.44L130.915 60.4474C137.056 60.2778 144.257 54.1082 146.108 50.0245Z" fill="#97D700"/>
<path d="M116.851 56.6585C116.21 56.6733 115.701 57.204 115.716 57.8453C115.731 58.4866 116.262 58.9952 116.903 58.9804C117.544 58.9657 118.045 58.435 118.031 57.7937C118.023 57.145 117.493 56.6438 116.851 56.6585Z" fill="#97D700"/>
<path d="M119.026 49.5164C119.085 49.2879 119.041 48.9783 118.495 48.7793L118.451 48.7719C117.891 48.7867 116.556 49.6417 114.375 51.4034C111.448 51.514 110.91 51.8531 110.763 52.1774C110.726 52.288 110.733 52.4133 110.792 52.5312C110.866 52.6787 110.999 52.7966 111.161 52.8482L111.205 52.8629L111.603 52.6934C111.699 52.6271 112.156 52.5533 112.524 52.5017C112.731 52.4723 112.945 52.4354 113.136 52.4059C112.561 52.8924 111.684 53.6443 110.763 54.4846C109.65 54.7794 108.514 55.0596 107.401 55.3249C105.33 55.8188 103.222 56.3274 101.188 56.9908C101.025 56.2684 100.458 55.7008 99.9418 55.1922L99.7944 55.0374C99.5953 54.8384 99.3521 54.6173 99.0941 54.374C98.6371 53.9539 98.1064 53.4674 97.6567 52.944C100.731 51.4772 106.944 48.2707 107.166 46.1994C107.202 45.8087 107.048 45.477 106.694 45.2116C105.463 44.2755 102.588 45.6171 101.04 46.3394C100.819 46.4426 100.62 46.5311 100.465 46.6048L100.391 46.6343C98.7845 47.3419 95.7844 48.6613 95.7328 50.8137C95.7181 51.4329 95.9392 51.9931 96.3004 52.5239C90.3592 55.1185 84.7424 56.3937 78.9044 56.4969C78.6169 56.5043 78.4621 56.7402 78.4695 56.9613C78.4695 57.1751 78.6243 57.3962 78.897 57.3962H78.9044C85.1699 57.2857 91.229 55.9072 96.9048 53.2905C97.266 53.6885 97.6788 54.0718 98.0842 54.4478C99.1015 55.3913 100.067 56.2979 100.192 57.3151C97.9221 58.126 95.7623 59.1727 93.8606 60.6764L93.7426 60.7648C93.0129 61.3398 91.487 62.534 91.3617 63.6396C91.3322 63.964 91.4207 64.2588 91.6271 64.5094C91.9293 64.8706 92.3273 65.018 92.7696 65.018C94.1112 65.018 95.8434 63.6691 96.6174 63.0647L96.8754 62.8656C98.3201 61.7452 100.672 59.9319 101.151 57.9933C103.325 57.2267 105.603 56.6812 107.799 56.1431C108.33 56.0178 108.868 55.8777 109.406 55.7451C108.861 56.2832 108.338 56.8213 107.917 57.3151C107.785 57.4773 107.682 57.6026 107.578 57.7279L106.93 58.5609C106.539 59.1137 106.325 59.5412 106.517 59.954C106.709 60.3595 107.166 60.3963 107.409 60.3963C107.446 60.3963 107.475 60.3963 107.497 60.3963L107.844 60.3594C108.699 60.2415 111.264 59.497 113.07 58.7009C113.284 58.5904 113.438 58.3103 113.306 58.0375L113.291 58.0006L112.886 57.7869L112.768 57.7721L112.716 57.7795C110.999 58.5314 108.492 59.298 107.711 59.3717L107.497 59.4086C107.659 59.1653 108.05 58.6788 108.662 57.9564C108.861 57.7205 109.089 57.4847 109.37 57.1898L109.517 57.035C111.352 55.9146 114.065 53.9613 115.996 52.3764L118.51 52.4059C118.768 52.3985 118.982 52.1921 119.026 51.8973C119.026 51.7572 118.967 51.632 118.871 51.5435C118.783 51.455 118.665 51.4108 118.532 51.4108C118.532 51.4108 118.525 51.4108 118.517 51.4108L117.087 51.514C118.915 50.0029 118.996 49.6491 119.026 49.5164ZM95.3053 60.7354C96.8164 59.7403 98.556 58.981 99.9713 58.4356C99.47 59.4528 98.3644 60.4184 97.4724 61.1924L96.9417 61.6568C96.094 62.4234 94.1112 64.2072 93.0792 64.0155C92.7475 63.9566 92.5632 63.8313 92.5337 63.6617C92.3863 62.932 94.5166 61.2587 95.3053 60.7354ZM100.067 47.7768L100.237 47.6957C101.939 46.8775 103.406 46.3394 104.726 46.0372C104.984 45.9782 105.22 45.9488 105.426 45.9488C105.736 45.9488 105.964 46.0151 106.045 46.1404C106.134 46.2804 106.045 46.5311 105.795 46.8554C105.315 47.4746 104.659 47.9758 104.025 48.4329C102.861 49.2805 101.563 49.9513 100.31 50.5926L100.126 50.6884C99.0941 51.2192 98.0842 51.713 97.0744 52.1701C96.7943 51.7204 96.61 51.2634 96.6248 50.8137C96.6764 49.3837 98.8877 48.337 100.067 47.7768Z" fill="#97D700"/>
<path d="M232.395 57.3816C231.075 58.244 229.483 58.3988 227.943 58.2366C227.36 58.1777 226.815 57.9934 226.247 57.9123C225.65 57.8312 225.171 58.0155 224.596 58.104C224.198 58.1629 224.338 58.2809 224.257 58.0671C224.213 57.9418 224.309 57.7502 224.264 57.6027C224.183 57.3374 223.999 57.1899 223.726 57.1383C223.033 57.0204 220.8 58.701 220.453 58.2145C220.358 58.0819 220.793 57.1236 220.793 56.9246C220.8 56.6592 220.748 56.4307 220.557 56.2317C220.122 55.7894 219.363 55.9811 218.832 56.1211C217.593 56.4455 216.407 57.0278 215.235 57.5364C214.217 57.9713 213.2 58.3915 212.176 58.7969L214.549 56.7919L215.05 56.1653L214.674 55.7599C214.571 55.6051 214.365 55.4356 213.849 55.4503C213.783 55.4503 213.709 55.4577 213.635 55.4651C212.721 55.5978 211.321 55.9 210.377 56.4749C210.362 56.4749 210.37 56.4602 210.355 56.4602C210.34 56.4602 210.325 56.4602 210.303 56.4676C208.969 56.9762 205.18 58.303 203.47 58.4946C203.699 58.0966 205.291 56.9614 206.898 56.0622C207.089 55.9074 207.141 55.7157 207.06 55.5683L206.677 55.2808H206.588C206.021 55.3987 205.416 55.443 205.092 55.5388C204.974 55.0818 204.62 54.6764 204.333 54.5363L203.699 54.5879C203.382 54.8385 203.492 55.2587 203.573 55.5609C203.654 55.8042 203.817 55.9442 203.957 55.9368C203.994 55.9368 204.038 55.9221 204.067 55.9C203.765 56.1285 203.146 56.3644 202.438 56.6371C202.438 56.6371 202.438 56.6445 202.431 56.6445C202.217 56.7329 197.006 58.443 194.514 58.4946L193.961 58.5905C193.983 58.4209 194.374 57.9639 196.047 56.7845C196.379 56.5781 196.726 56.3644 196.512 56.0032L196.224 55.7894H196.158C196.003 55.7894 195.841 55.8852 195.642 56.0106C194.035 56.8656 190.689 58.6347 189.907 58.7895C189.966 58.561 190.423 57.9492 191.75 57.0794C191.978 56.9467 192.148 56.8066 192.34 56.6518L192.671 56.3717L192.598 56.2833L192.782 55.8042L192.222 55.7231L191.794 56.0179C191.669 56.1211 191.507 56.2538 191.278 56.3865C191.013 56.5634 190.792 56.7403 190.571 56.9098C190.563 56.9098 190.563 56.9025 190.556 56.9025C190.541 56.9025 190.526 56.9025 190.512 56.9025C187.865 57.7207 186.008 58.0524 184.917 58.4357C185.448 58.0966 186.163 57.5585 186.561 56.8877C186.789 56.4012 186.701 55.9368 186.332 55.701C186.096 55.524 185.742 55.4356 185.315 55.443C184.386 55.4651 183.185 55.9295 182.086 56.9172C182.448 56.5339 182.742 56.2612 183.148 55.8631C184.29 55.384 194.374 51.1161 194.522 48.256C194.551 47.9465 194.396 47.659 194.138 47.5337L193.725 47.46C191.956 47.5042 187.091 50.9023 182.411 55.4135C182.101 55.701 181.511 56.2685 180.745 57.131C180.708 57.1383 180.627 57.1604 180.295 57.2636C179.728 57.4553 178.659 57.8018 177.487 58.1556C177.118 58.2588 176.713 58.3546 176.293 58.4504L175.489 58.7674C175.393 58.2661 174.781 58.1334 174.302 58.0229C173.993 57.9418 173.683 57.8312 173.654 57.8239C173.646 57.7649 173.801 57.5216 174.214 57.271C174.922 56.7993 176.035 56.4233 176.786 56.4012C177.059 56.3939 177.266 56.4381 177.354 56.5265L177.958 56.5192C178.099 56.3644 178.091 56.0916 177.944 55.9516C177.693 55.6862 177.28 55.5609 176.727 55.5683C175.821 55.5904 174.605 56.0032 173.764 56.5708C173.351 56.8361 173.138 57.072 172.998 57.2931H172.99C171.656 57.8018 167.867 59.1286 166.157 59.3202C166.386 58.9222 167.978 57.787 169.585 56.8877C169.776 56.7329 169.835 56.5413 169.747 56.3939L169.364 56.1064H169.275C168.708 56.2243 168.103 56.2685 167.779 56.3644C167.661 55.9073 167.307 55.5019 167.02 55.3619L166.386 55.4135C166.069 55.6641 166.179 56.0843 166.26 56.3865C166.341 56.6297 166.504 56.7698 166.644 56.7624C166.681 56.7624 166.725 56.7477 166.754 56.7256C166.452 56.9541 165.84 57.1899 165.133 57.4627C161.432 58.7821 158.255 59.3202 157.024 59.3497C157.017 59.3497 157.017 59.3497 157.017 59.3497C156.457 59.3202 156.088 59.1507 156.162 58.7674C156.368 58.4873 156.811 58.1777 157.275 57.9271C157.651 58.0745 158.159 58.1482 158.712 58.1335C159.383 58.1187 160.017 57.9787 160.43 57.7428C161.145 57.33 161.115 56.9172 161.042 56.7108C160.975 56.497 160.761 56.2612 159.788 56.2833C159.744 56.2833 159.7 56.2833 159.656 56.2833C159.155 56.3275 158.145 56.615 157.113 57.1015C156.722 57.2858 156.398 57.4774 156.132 57.6617H156.11C154.172 58.5094 151.341 59.3718 150.464 59.4529L149.97 59.5487C149.933 59.4308 150.368 58.8558 151.4 57.6396C151.665 57.33 151.968 57.013 152.373 56.5855C154.378 55.3619 157.481 53.1431 159.678 51.3225L162.545 51.3593C162.759 51.352 162.951 51.1824 162.988 50.9318C162.98 50.6959 162.796 50.5116 162.56 50.519L160.518 50.6664C162.848 48.7573 162.951 48.3371 162.988 48.2045C163.061 47.917 162.899 47.6958 162.472 47.541C161.875 47.5558 160.378 48.5288 157.953 50.4895C154.643 50.6075 154.105 50.9834 153.987 51.2635C153.914 51.4478 154.046 51.7426 154.349 51.8458L154.717 51.691C154.982 51.492 156.567 51.4109 157.091 51.1824C156.081 52.0227 152.631 54.9417 150.773 57.1015C150.538 57.3816 150.375 57.5806 150.199 57.8091C150.184 57.8091 150.191 57.7944 150.176 57.7944C150.162 57.7944 150.147 57.7944 150.132 57.7944C146.424 59.1212 143.255 59.6519 142.024 59.6814H142.017C141.456 59.6519 141.088 59.4824 141.161 59.0991C141.368 58.819 141.81 58.5094 142.275 58.2588C142.65 58.4062 143.159 58.4799 143.712 58.4652C144.383 58.4504 145.017 58.3104 145.429 58.0745C146.144 57.6617 146.115 57.2489 146.041 57.0425C145.975 56.8288 145.761 56.5929 144.788 56.615C144.744 56.615 144.7 56.615 144.655 56.615C144.154 56.6592 143.144 56.9467 142.112 57.4332C141.316 57.8165 140.771 58.2072 140.498 58.5905C140.056 59.1359 140.211 59.5561 140.262 59.7035C140.483 60.19 141.117 60.4627 142.149 60.5143H142.157C143.107 60.4922 145.798 60.0868 149.38 58.9148C149.13 59.3497 149.093 59.6298 149.218 59.9099C149.402 60.3006 149.852 60.3374 150.184 60.3301L150.567 60.2932C151.341 60.19 153.383 59.6077 155.211 58.9074C155.189 59.1212 155.233 59.2834 155.263 59.3571C155.484 59.8436 156.118 60.1163 157.15 60.1679H157.157C158.204 60.1458 161.292 59.7109 165.427 58.2366V58.2293C165.892 58.0524 166.356 57.8681 166.732 57.6691C165.678 58.4357 165.221 58.9959 165.302 59.416C165.346 59.6077 165.501 59.8657 165.973 59.9615L166.378 59.9542C167.97 59.9173 171.251 58.7895 172.946 58.1777C173.123 58.4799 173.499 58.62 174.089 58.7895C174.258 58.8263 174.42 58.8632 174.398 58.8632C174.391 58.8632 174.354 58.8558 174.266 58.8411C172.305 59.2391 172.106 59.2834 172.113 59.7551L172.327 60.1753L172.408 60.1974C172.467 60.2121 172.659 60.2637 172.887 60.2564C173.44 60.2416 174.265 59.9615 174.899 59.5635C175.821 59.4087 176.845 59.1728 177.693 58.9148C178.438 58.701 179.108 58.4873 179.742 58.2809C179.543 58.5241 179.359 58.7453 179.145 59.0254L179.167 59.6077L179.418 59.7035H179.455L179.757 59.5856C182.145 57.1384 184.195 56.2391 185.322 56.2169C185.551 56.2096 185.735 56.2464 185.809 56.4455C185.389 57.2342 184.128 57.9713 182.949 58.3914C181.991 58.4504 181.467 58.502 181.113 58.8779L181.194 58.9517L181.121 59.475C181.217 59.5635 181.349 59.6151 181.688 59.6077C181.777 59.6077 181.88 59.6003 181.991 59.5856C182.352 59.5487 182.801 59.416 183.384 59.1802C184.357 59.0843 186.317 58.8632 189.384 58.0229C189.17 58.3325 189.03 58.6126 189.067 58.8337C189.074 59.0696 189.229 59.2834 189.465 59.3792L189.804 59.4087C190.438 59.3939 191.588 58.9517 193.497 57.7428C193.18 58.1187 193.069 58.4209 193.158 58.7379C193.224 58.9664 193.438 59.2465 194.094 59.2834L194.522 59.2907C197.175 59.2318 202.431 57.4995 202.748 57.3742C203.205 57.1973 203.669 57.013 204.052 56.8214C202.998 57.588 202.541 58.1482 202.622 58.5684C202.667 58.76 202.822 59.018 203.293 59.1138L203.699 59.1064C205.055 59.077 207.635 58.2514 209.434 57.6249C209.397 57.8755 209.397 58.1408 209.5 58.3988C209.647 58.7526 209.964 58.9369 210.399 58.9295C210.524 58.9295 210.657 58.9074 210.79 58.8485L209.293 60.1311C204.812 62.0033 202.291 63.2343 201.775 64.4211C201.679 64.7012 201.45 65.3572 201.952 65.7037L202.342 65.8216C202.873 65.8069 204.141 65.3351 209.087 61.3473L209.691 60.8387L210.163 60.4406C211.814 59.8878 213.414 59.2244 215.014 58.5462C216.333 57.9787 217.667 57.3005 219.06 56.9393C219.215 56.9025 219.635 56.7329 219.783 56.814C219.989 56.9246 219.812 56.8509 219.827 57.131C219.849 57.5438 219.488 57.9639 219.525 58.4136C219.591 59.3276 220.483 59.2613 221.154 59.0328C221.758 58.8264 222.326 58.5094 222.908 58.2514C223.107 58.163 223.277 58.1408 223.358 58.0524C223.328 58.1703 223.291 58.2882 223.313 58.3914C223.512 59.3497 224.692 58.9074 225.326 58.7821C226.476 58.561 227.869 59.1433 229.063 59.1359C230.397 59.1286 231.709 58.8411 232.837 58.104C233.316 57.8386 232.874 57.072 232.395 57.3816ZM204.856 56.2612L205.247 56.0769C205.077 56.1801 204.915 56.2833 204.768 56.3865C204.797 56.3422 204.826 56.298 204.856 56.2612ZM193.696 48.1307L193.718 48.2266C193.637 49.7745 188.625 52.524 184.482 54.5953C189.34 50.202 192.937 48.2634 193.696 48.2413V48.1307ZM167.543 57.1162L167.934 56.932C167.764 57.0352 167.602 57.1383 167.455 57.2415C167.484 57.2047 167.521 57.1605 167.543 57.1162ZM160.002 57.0499C159.951 57.0794 159.833 57.0867 159.766 57.1089L159.752 57.013L160.002 57.0499ZM160.717 49.5092C160.349 49.8187 159.936 50.1726 159.479 50.5559L159.553 50.6443L159.073 50.718C159.663 50.2758 160.216 49.8556 160.717 49.5092ZM158.27 51.3814L158.675 51.1972C157.754 51.8974 156.744 52.6567 155.779 53.4675C156.545 52.8114 158.27 51.3814 158.27 51.3814ZM145.009 57.389C144.958 57.4185 144.84 57.4258 144.773 57.4479L144.759 57.3521L145.009 57.389ZM202.446 65.0992C202.446 65.0992 202.453 64.996 202.6 64.6938C202.755 64.3105 203.625 63.566 206.817 62.1139C203.64 64.5833 202.667 64.9887 202.446 65.0992ZM210.274 58.1408C210.266 58.1408 210.259 58.1408 210.252 58.1408C210.178 57.9123 210.185 57.7944 210.296 57.647C210.473 57.3153 211.173 56.7034 213.79 56.2612L213.834 56.2538C213.06 56.8582 211.203 58.1187 210.274 58.1408Z" fill="#97D700"/>
<path d="M46.0731 64.4355C45.8077 64.4723 45.5792 64.8335 45.3433 65.0547C44.7315 65.6222 42.756 64.8335 42.1811 65.438C41.4071 66.2562 39.9992 65.7623 39.1073 64.9146C38.149 64.0153 37.4045 62.8802 36.6011 61.8261C36.1219 61.1922 35.7018 60.514 35.2006 59.7769C34.3455 60.4477 33.601 61.03 32.7902 61.6713C33.5126 62.0399 34.8394 62.4084 35.4291 62.7696C35.945 63.0866 36.2399 63.5731 36.2546 64.0817C36.262 64.3102 36.2104 64.5387 36.0998 64.7598C35.8713 65.2095 34.5666 65.5485 34.0433 65.5559C26.4583 65.5928 18.7186 65.8286 11.1483 65.4675C1.37413 65.0031 -1.77337 55.5606 0.924488 48.6538C2.31027 45.1082 4.62483 42.2556 7.44062 39.7715C7.65439 39.5872 7.81656 39.4176 7.9345 39.2629C8.26621 39.0122 13.6398 33.8155 14.7307 32.5919C20.3845 26.2969 23.4656 18.9331 23.7752 10.4415C23.8121 9.49058 23.5614 8.87141 22.699 8.37754C21.5565 7.72888 20.7751 6.719 20.7162 5.34059C20.7014 4.99414 20.7825 4.64034 20.9078 4.29389C20.9594 4.14647 21.0184 3.99903 21.0847 3.84424C21.1511 4.10223 21.2321 4.35286 21.3132 4.58874C22.1019 6.79272 23.6425 8.14165 26.1045 8.64289C25.9792 8.94511 25.9423 9.32105 25.7875 9.38739C24.704 9.81492 24.8293 10.7658 24.785 11.6135C24.3133 20.6137 20.8267 28.2503 14.4359 34.5748C13.2491 35.7468 7.98609 40.7813 7.47748 41.3047C4.72802 44.1278 2.32502 47.2164 1.30043 51.101C0.113663 55.6269 2.75255 63.3593 9.7773 64.089C12.2098 64.3397 14.6644 64.4281 17.1043 64.5166C17.6424 64.5387 18.2542 64.3249 18.7333 64.0448C20.6572 62.9391 22.559 61.7892 24.4312 60.5951C24.6671 60.4477 24.7998 59.9243 24.7629 59.6074C24.6155 58.3248 24.1733 57.0422 24.2249 55.7743C24.4091 50.7619 20.1928 47.1869 15.8512 46.5308C13.6988 46.2065 11.6643 46.4793 9.62251 47.0321C9.31292 47.1132 8.98857 47.1795 8.63475 47.1279C9.89523 45.9927 11.4432 45.5578 13.0354 45.3146C18.7407 44.4448 23.8637 47.8355 25.3453 53.4155C25.7065 54.7792 25.935 56.1871 26.3846 57.5287C27.1291 59.7622 29.2741 61.1037 31.5444 60.8899C32.5027 60.8015 33.0555 60.4256 33.0924 59.3199C33.144 57.6761 32.5985 56.2608 31.5444 55.1183C28.6181 51.9487 28.3454 48.1378 28.7139 44.1573C28.8097 43.1032 29.1267 42.0639 29.3699 41.0246C29.4215 40.7961 29.5984 40.597 29.7164 40.3906C29.827 40.398 29.9375 40.4128 30.0481 40.4201C30.1071 41.489 30.3356 42.5799 30.1955 43.6192C29.7311 46.9142 30.3061 49.9216 32.1562 52.7005C33.1956 54.2632 34.176 55.8628 35.1416 57.4697C35.488 58.0447 35.8271 58.1479 36.4463 57.8825C37.2055 57.5582 38.0164 57.3665 38.8935 57.0938C37.5225 52.8627 36.9623 48.7054 39.0852 44.5406C39.2547 46.3834 39.4169 48.2262 39.5864 50.069C39.7265 50.0911 39.8665 50.1059 40.0066 50.128C40.3235 49.0739 40.6995 48.0272 40.9501 46.9584C42.0926 42.0049 41.4808 37.0957 40.6626 32.1644C40.2793 29.8719 40.1098 27.5427 39.9476 25.2134C40.1835 25.2723 40.412 25.3534 40.6479 25.405C40.7879 25.4418 40.928 25.464 41.068 25.4935C41.0828 26.12 41.1196 26.7392 41.1712 27.3584C41.5177 31.4273 42.1884 35.474 42.7118 39.5282C43.1467 42.9042 42.7413 46.1918 41.3629 49.295C40.1688 51.9782 40.3899 54.3664 42.159 56.7105C43.1688 58.052 45.5202 61.1848 46.3827 62.6295C46.7439 63.2708 47.2082 64.2881 46.0731 64.4355Z" fill="#97D700"/>
<path d="M52.8251 2.75345C51.8963 2.17113 50.8275 1.78045 49.7955 1.42664C46.6922 0.320956 39.6306 0.144043 39.5348 0.144043C36.2177 0.239869 33.0039 0.859056 29.9154 2.09742C29.6426 2.20798 29.2225 2.04582 28.876 1.95736C27.7482 1.64777 26.6352 1.26447 25.4853 0.999105C24.7777 0.836938 24.3133 1.19813 24.2617 1.97948C24.2396 2.26695 24.2101 2.5618 24.1879 2.75345C23.3403 2.95985 22.5663 3.1515 21.7923 3.32841C21.5933 3.38 21.409 3.46846 21.2395 3.57902L21.1289 3.65274C21.1289 3.66748 21.1289 3.66748 21.1289 3.67485C21.3132 3.60114 21.5564 3.68222 21.8439 3.74119C22.1093 3.78542 22.6621 3.9402 22.7285 3.96232C24.0774 4.32351 25.4263 4.71418 26.7605 5.11222C27.0038 5.18593 27.2249 5.3776 27.4755 5.47343C27.9694 5.67245 28.2274 5.56925 28.279 4.9427C28.3085 4.58888 28.5738 4.13923 28.876 3.9697C31.397 2.5102 34.1317 1.71411 37.0433 1.49297C37.9721 1.42663 45.9993 1.96474 46.3974 3.46846C46.6038 4.29403 46.5522 5.31126 46.2647 6.1221C45.6013 8.00912 45.5349 9.77821 46.5964 11.5326C47.1566 12.4613 46.9502 13.169 46.0141 13.7439C44.7536 14.5179 43.729 15.4982 43.1762 16.9577C43.0582 17.2747 42.4833 17.5622 42.0705 17.6211C40.5004 17.8275 38.923 17.9381 37.3898 18.0855C37.3234 18.5352 37.3234 18.9332 37.3898 19.3018C37.5667 19.4197 37.7436 19.5303 37.9279 19.6409C38.2669 19.862 38.6576 20.0168 39.0557 20.1053C39.2842 20.1569 39.5053 20.1937 39.7043 20.2379C40.1761 20.3264 40.6331 20.3116 41.0827 20.3485C41.0901 19.7883 41.1049 19.2207 41.1049 18.6458C43.8469 18.4836 46.4048 18.3583 48.9626 18.174C50.3336 18.0782 51.8152 17.9971 52.5523 16.5597C53.599 14.5252 54.6826 12.4834 55.4934 10.3532C56.6802 7.20565 55.6851 4.54465 52.8251 2.75345ZM25.4927 1.59617C26.4435 1.9721 27.1954 2.26695 28.0799 2.6134C26.7752 3.36526 25.8465 3.01881 25.4927 1.59617ZM49.0657 6.91818C49.3532 6.49065 49.7586 6.27687 50.2673 6.35796C50.8201 6.45378 51.1813 6.78549 51.314 7.33096C51.3877 7.61844 51.314 7.90592 51.1149 8.21551C51.0486 8.07546 51.0191 7.99436 50.9823 7.92065C50.8643 7.69214 50.6948 7.58158 50.5105 7.61107C50.2599 7.6553 50.0903 7.83221 50.0609 8.09757C50.0461 8.1934 50.0609 8.30395 50.0461 8.40715C50.0166 8.702 49.8176 8.81258 49.5375 8.6799C48.9257 8.39243 48.6677 7.48576 49.0657 6.91818ZM50.2599 17.658C50.2599 17.658 49.1026 17.4516 48.2107 15.8005C48.3212 15.8889 49.4343 16.4123 51.5277 16.8619C52.1248 17.0167 50.2599 17.658 50.2599 17.658Z" fill="#97D700"/>
<path d="M30.9326 7.45638C33.5494 7.92077 35.9451 7.44901 38.208 6.02637C38.0311 7.07308 37.2645 7.56694 36.4094 7.90601C34.5372 8.65788 32.687 8.67263 30.9326 7.45638Z" fill="#97D700"/>
<path d="M32.0603 17.9015C31.5296 19.0367 30.5861 21.6387 30.9473 25.3022C30.9841 25.6634 31.3158 25.9361 31.6991 25.914C33.0554 25.833 36.1292 25.4718 37.8762 23.9902C38.0678 23.828 38.1858 23.6142 38.2226 23.371L38.429 22.0663C38.4659 21.823 38.4143 21.5724 38.2742 21.3586C37.8614 20.7321 36.6378 19.42 33.0407 17.5846C32.6795 17.4003 32.2225 17.5477 32.0603 17.9015Z" fill="#97D700"/>
<path d="M48.6233 20.2673C48.7781 21.5057 48.8666 24.2551 47.3849 27.6532C47.2375 27.9923 46.8395 28.1545 46.4783 28.0218C45.2105 27.5574 42.3799 26.3633 41.1784 24.4541C41.0457 24.2478 41.0015 24.0045 41.0384 23.7686L41.2448 22.4639C41.2816 22.2207 41.4143 21.9922 41.6133 21.83C42.1956 21.3509 43.7804 20.4295 47.7904 19.685C48.1884 19.6186 48.5717 19.884 48.6233 20.2673Z" fill="#97D700"/>
<path d="M38.3627 23.9826L38.746 21.5796C38.7681 21.4248 38.9229 21.3142 39.0924 21.3363L40.8394 21.5869C41.0016 21.609 41.1195 21.7565 41.09 21.9113L40.7067 24.3143C40.6846 24.4691 40.5298 24.5796 40.3603 24.5575L38.6133 24.3069C38.4511 24.2848 38.3406 24.1374 38.3627 23.9826Z" fill="#97D700"/>
<path d="M256.941 11.1201C255.253 11.1201 253.882 9.749 253.882 8.061C253.882 6.37299 255.253 5.00195 256.941 5.00195C258.629 5.00195 260 6.37299 260 8.061C260.007 9.74163 258.636 11.1201 256.941 11.1201ZM256.941 5.68747C255.636 5.68747 254.575 6.74894 254.575 8.05364C254.575 9.35834 255.636 10.4198 256.941 10.4198C258.246 10.4198 259.307 9.35834 259.307 8.05364C259.314 6.74894 258.253 5.68747 256.941 5.68747Z" fill="#97D700"/>
<path d="M258.172 9.63082C258.172 9.64557 258.172 9.65295 258.164 9.66769C258.157 9.67506 258.15 9.68981 258.135 9.68981C258.12 9.69718 258.091 9.70454 258.061 9.70454C258.032 9.70454 257.988 9.71192 257.943 9.71192C257.899 9.71192 257.862 9.71191 257.833 9.70454C257.803 9.70454 257.781 9.69718 257.766 9.68981C257.752 9.68243 257.737 9.67506 257.73 9.66031C257.722 9.64557 257.715 9.63082 257.707 9.60871L257.405 8.83474C257.368 8.74629 257.332 8.66519 257.295 8.59148C257.258 8.51777 257.214 8.45144 257.162 8.39985C257.11 8.34825 257.051 8.30401 256.978 8.27453C256.904 8.24504 256.823 8.2303 256.72 8.2303H256.432V9.62347C256.432 9.63821 256.425 9.64557 256.417 9.66031C256.41 9.67506 256.395 9.67506 256.381 9.68243C256.366 9.6898 256.344 9.69716 256.314 9.69716C256.285 9.70453 256.255 9.70454 256.211 9.70454C256.167 9.70454 256.137 9.70453 256.108 9.69716C256.078 9.68979 256.056 9.6898 256.042 9.68243C256.027 9.67506 256.012 9.66769 256.005 9.66031C255.997 9.65294 255.997 9.63821 255.997 9.62347V6.59389C255.997 6.52755 256.012 6.48332 256.049 6.45384C256.086 6.42435 256.123 6.41699 256.159 6.41699H256.852C256.933 6.41699 257.007 6.41698 257.059 6.42435C257.11 6.43172 257.162 6.43173 257.206 6.4391C257.332 6.46122 257.442 6.49806 257.538 6.54229C257.634 6.58652 257.715 6.65287 257.781 6.71921C257.847 6.79293 257.899 6.87401 257.929 6.96983C257.958 7.06566 257.98 7.16884 257.98 7.27941C257.98 7.38998 257.965 7.48582 257.936 7.57428C257.906 7.66273 257.862 7.73644 257.811 7.80278C257.752 7.86912 257.685 7.92808 257.612 7.97968C257.531 8.03128 257.449 8.06812 257.354 8.10498C257.405 8.12709 257.457 8.1566 257.501 8.19345C257.545 8.23031 257.582 8.27453 257.626 8.32613C257.663 8.37773 257.7 8.43669 257.737 8.50303C257.774 8.56937 257.803 8.6431 257.84 8.72418L258.135 9.44654C258.157 9.50551 258.172 9.54975 258.179 9.57186C258.172 9.60135 258.172 9.61608 258.172 9.63082ZM257.523 7.33101C257.523 7.2057 257.494 7.09513 257.435 7.00668C257.376 6.91822 257.28 6.85188 257.147 6.81502C257.103 6.80028 257.059 6.79291 257.007 6.79291C256.956 6.79291 256.882 6.78555 256.801 6.78555H256.432V7.89123H256.86C256.978 7.89123 257.074 7.87649 257.155 7.84701C257.236 7.81752 257.309 7.78066 257.361 7.72906C257.42 7.67747 257.457 7.61848 257.486 7.55214C257.508 7.4858 257.523 7.4121 257.523 7.33101Z" fill="#97D700"/>
</svg>
