<svg width="184" height="32" viewBox="0 0 184 32" fill="none" xmlns="http://www.w3.org/2000/svg">
<path d="M13.8102 2.1898L2.18978 13.8102C0.980397 15.0196 0.980397 16.9804 2.18978 18.1898L13.8102 29.8102C15.0196 31.0196 16.9804 31.0196 18.1898 29.8102L29.8102 18.1898C31.0196 16.9804 31.0196 15.0196 29.8102 13.8102L18.1898 2.1898C16.9804 0.980415 15.0196 0.980416 13.8102 2.1898Z" fill="#003057"/>
<path d="M16.0355 25.1629C21.0964 25.1629 25.199 21.0603 25.199 15.9994C25.199 10.9386 21.0964 6.83594 16.0355 6.83594C10.9747 6.83594 6.87207 10.9386 6.87207 15.9994C6.87207 21.0603 10.9747 25.1629 16.0355 25.1629Z" fill="#EAE8E6"/>
<path d="M18.7464 10.2734H13.4044C11.6941 10.2734 10.3076 11.6599 10.3076 13.3703V18.7123C10.3076 20.4226 11.6941 21.8091 13.4044 21.8091H18.7464C20.4568 21.8091 21.8432 20.4226 21.8432 18.7123V13.3703C21.8432 11.6599 20.4568 10.2734 18.7464 10.2734Z" fill="#003057"/>
<path d="M16.0192 19.9778C18.2244 19.9778 20.012 18.1902 20.012 15.985C20.012 13.7798 18.2244 11.9922 16.0192 11.9922C13.814 11.9922 12.0264 13.7798 12.0264 15.985C12.0264 18.1902 13.814 19.9778 16.0192 19.9778Z" fill="#EAE8E6"/>
<path d="M15.4193 14.9L15.0493 15.2701C14.6461 15.6732 14.6461 16.3268 15.0493 16.7299L15.4193 17.1C15.8225 17.5031 16.4761 17.5031 16.8792 17.1L17.2493 16.7299C17.6524 16.3268 17.6524 15.6732 17.2493 15.2701L16.8792 14.9C16.4761 14.4969 15.8225 14.4969 15.4193 14.9Z" fill="#003057"/>
<path d="M50.658 21.5L47.58 17.306H45.798V21.5H43.368V9.62H47.832C48.66 9.62 49.398 9.782 50.046 10.106C50.694 10.418 51.198 10.868 51.558 11.456C51.93 12.032 52.116 12.698 52.116 13.454C52.116 14.21 51.93 14.882 51.558 15.47C51.186 16.058 50.676 16.514 50.028 16.838L53.394 21.5H50.658ZM45.798 15.164H47.832C48.396 15.164 48.834 15.008 49.146 14.696C49.47 14.384 49.632 13.97 49.632 13.454C49.632 12.95 49.47 12.542 49.146 12.23C48.822 11.918 48.384 11.762 47.832 11.762H45.798V15.164ZM63.366 17.864H57.12C57.264 18.428 57.552 18.866 57.984 19.178C58.428 19.478 58.974 19.628 59.622 19.628C60.498 19.628 61.326 19.328 62.106 18.728L63.114 20.384C62.058 21.272 60.87 21.716 59.55 21.716C58.626 21.716 57.792 21.512 57.048 21.104C56.304 20.696 55.722 20.138 55.302 19.43C54.882 18.71 54.672 17.918 54.672 17.054C54.672 16.19 54.876 15.404 55.284 14.696C55.692 13.976 56.25 13.412 56.958 13.004C57.678 12.596 58.47 12.392 59.334 12.392C60.15 12.392 60.876 12.578 61.512 12.95C62.148 13.31 62.64 13.808 62.988 14.444C63.348 15.068 63.528 15.764 63.528 16.532C63.528 16.964 63.474 17.408 63.366 17.864ZM59.244 14.354C58.728 14.354 58.278 14.516 57.894 14.84C57.51 15.164 57.252 15.602 57.12 16.154H61.17C61.158 15.602 60.966 15.164 60.594 14.84C60.222 14.516 59.772 14.354 59.244 14.354ZM75.054 12.59V24.74H72.624V20.636C72.3 20.984 71.91 21.254 71.454 21.446C70.998 21.626 70.5 21.716 69.96 21.716C69.132 21.716 68.388 21.512 67.728 21.104C67.08 20.696 66.57 20.138 66.198 19.43C65.826 18.722 65.64 17.924 65.64 17.036C65.64 16.148 65.826 15.356 66.198 14.66C66.57 13.952 67.08 13.4 67.728 13.004C68.388 12.596 69.132 12.392 69.96 12.392C70.572 12.392 71.124 12.506 71.616 12.734C72.12 12.962 72.522 13.286 72.822 13.706V12.59H75.054ZM70.41 19.502C71.022 19.502 71.55 19.292 71.994 18.872C72.438 18.44 72.66 17.828 72.66 17.036C72.66 16.232 72.438 15.626 71.994 15.218C71.55 14.798 71.022 14.588 70.41 14.588C69.75 14.588 69.198 14.816 68.754 15.272C68.322 15.716 68.106 16.31 68.106 17.054C68.106 17.786 68.328 18.38 68.772 18.836C69.216 19.28 69.762 19.502 70.41 19.502ZM82.2164 21.716C81.4364 21.716 80.7284 21.548 80.0924 21.212C79.4684 20.864 78.9764 20.378 78.6164 19.754C78.2684 19.13 78.0944 18.404 78.0944 17.576V12.59H80.5244V17.774C80.5244 18.29 80.6804 18.704 80.9924 19.016C81.3164 19.328 81.7244 19.484 82.2164 19.484C82.6844 19.484 83.0744 19.328 83.3864 19.016C83.7104 18.704 83.8724 18.29 83.8724 17.774V12.59H86.3024V17.576C86.3024 18.404 86.1224 19.13 85.7624 19.754C85.4144 20.378 84.9284 20.864 84.3044 21.212C83.6804 21.548 82.9844 21.716 82.2164 21.716ZM97.5358 17.864H91.2898C91.4338 18.428 91.7218 18.866 92.1538 19.178C92.5978 19.478 93.1438 19.628 93.7918 19.628C94.6678 19.628 95.4958 19.328 96.2758 18.728L97.2838 20.384C96.2278 21.272 95.0398 21.716 93.7198 21.716C92.7958 21.716 91.9618 21.512 91.2178 21.104C90.4738 20.696 89.8918 20.138 89.4718 19.43C89.0518 18.71 88.8418 17.918 88.8418 17.054C88.8418 16.19 89.0458 15.404 89.4538 14.696C89.8618 13.976 90.4198 13.412 91.1278 13.004C91.8478 12.596 92.6398 12.392 93.5038 12.392C94.3198 12.392 95.0458 12.578 95.6818 12.95C96.3178 13.31 96.8098 13.808 97.1578 14.444C97.5178 15.068 97.6978 15.764 97.6978 16.532C97.6978 16.964 97.6438 17.408 97.5358 17.864ZM93.4138 14.354C92.8978 14.354 92.4478 14.516 92.0638 14.84C91.6798 15.164 91.4218 15.602 91.2898 16.154H95.3398C95.3278 15.602 95.1358 15.164 94.7638 14.84C94.3918 14.516 93.9418 14.354 93.4138 14.354ZM103.194 21.716C102.414 21.716 101.706 21.566 101.07 21.266C100.434 20.954 99.9118 20.528 99.5038 19.988L100.728 18.512C101.508 19.316 102.342 19.718 103.23 19.718C103.554 19.718 103.824 19.658 104.04 19.538C104.256 19.406 104.364 19.22 104.364 18.98C104.364 18.788 104.292 18.644 104.148 18.548C104.016 18.44 103.782 18.314 103.446 18.17L102.492 17.774C101.676 17.438 101.064 17.066 100.656 16.658C100.26 16.25 100.062 15.716 100.062 15.056C100.062 14.216 100.362 13.562 100.962 13.094C101.574 12.626 102.366 12.392 103.338 12.392C104.67 12.392 105.738 12.836 106.542 13.724L105.318 15.218C104.718 14.654 104.052 14.372 103.32 14.372C103.02 14.372 102.786 14.426 102.618 14.534C102.45 14.642 102.366 14.798 102.366 15.002C102.366 15.17 102.432 15.308 102.564 15.416C102.708 15.524 102.954 15.65 103.302 15.794L104.166 16.154C105.03 16.502 105.66 16.88 106.056 17.288C106.464 17.684 106.668 18.212 106.668 18.872C106.668 19.76 106.338 20.456 105.678 20.96C105.03 21.464 104.202 21.716 103.194 21.716ZM114.949 19.466V21.5C114.373 21.644 113.815 21.716 113.275 21.716C112.147 21.716 111.271 21.44 110.647 20.888C110.023 20.324 109.711 19.484 109.711 18.368V14.642H108.307V12.59H109.711V10.34H112.141V12.59H114.661V14.642H112.141V18.152C112.141 18.656 112.273 19.016 112.537 19.232C112.801 19.436 113.221 19.538 113.797 19.538C113.941 19.538 114.325 19.514 114.949 19.466ZM123.36 9.62H127.248C128.508 9.62 129.63 9.866 130.614 10.358C131.598 10.85 132.36 11.54 132.9 12.428C133.452 13.316 133.728 14.348 133.728 15.524C133.728 16.676 133.452 17.708 132.9 18.62C132.36 19.52 131.598 20.228 130.614 20.744C129.63 21.248 128.508 21.5 127.248 21.5H123.36V9.62ZM127.23 19.304C128.022 19.304 128.718 19.148 129.318 18.836C129.93 18.524 130.398 18.086 130.722 17.522C131.058 16.946 131.226 16.28 131.226 15.524C131.226 14.372 130.86 13.466 130.128 12.806C129.408 12.146 128.442 11.816 127.23 11.816H125.79V19.304H127.23ZM144.536 17.864H138.29C138.434 18.428 138.722 18.866 139.154 19.178C139.598 19.478 140.144 19.628 140.792 19.628C141.668 19.628 142.496 19.328 143.276 18.728L144.284 20.384C143.228 21.272 142.04 21.716 140.72 21.716C139.796 21.716 138.962 21.512 138.218 21.104C137.474 20.696 136.892 20.138 136.472 19.43C136.052 18.71 135.842 17.918 135.842 17.054C135.842 16.19 136.046 15.404 136.454 14.696C136.862 13.976 137.42 13.412 138.128 13.004C138.848 12.596 139.64 12.392 140.504 12.392C141.32 12.392 142.046 12.578 142.682 12.95C143.318 13.31 143.81 13.808 144.158 14.444C144.518 15.068 144.698 15.764 144.698 16.532C144.698 16.964 144.644 17.408 144.536 17.864ZM140.414 14.354C139.898 14.354 139.448 14.516 139.064 14.84C138.68 15.164 138.422 15.602 138.29 16.154H142.34C142.328 15.602 142.136 15.164 141.764 14.84C141.392 14.516 140.942 14.354 140.414 14.354ZM150.194 21.716C149.414 21.716 148.706 21.566 148.07 21.266C147.434 20.954 146.912 20.528 146.504 19.988L147.728 18.512C148.508 19.316 149.342 19.718 150.23 19.718C150.554 19.718 150.824 19.658 151.04 19.538C151.256 19.406 151.364 19.22 151.364 18.98C151.364 18.788 151.292 18.644 151.148 18.548C151.016 18.44 150.782 18.314 150.446 18.17L149.492 17.774C148.676 17.438 148.064 17.066 147.656 16.658C147.26 16.25 147.062 15.716 147.062 15.056C147.062 14.216 147.362 13.562 147.962 13.094C148.574 12.626 149.366 12.392 150.338 12.392C151.67 12.392 152.738 12.836 153.542 13.724L152.318 15.218C151.718 14.654 151.052 14.372 150.32 14.372C150.02 14.372 149.786 14.426 149.618 14.534C149.45 14.642 149.366 14.798 149.366 15.002C149.366 15.17 149.432 15.308 149.564 15.416C149.708 15.524 149.954 15.65 150.302 15.794L151.166 16.154C152.03 16.502 152.66 16.88 153.056 17.288C153.464 17.684 153.668 18.212 153.668 18.872C153.668 19.76 153.338 20.456 152.678 20.96C152.03 21.464 151.202 21.716 150.194 21.716ZM156.226 12.59H158.656V21.5H156.226V12.59ZM157.432 10.844C157 10.844 156.634 10.7 156.334 10.412C156.034 10.124 155.884 9.77 155.884 9.35C155.884 8.918 156.034 8.558 156.334 8.27C156.634 7.982 157 7.838 157.432 7.838C157.864 7.838 158.23 7.982 158.53 8.27C158.842 8.558 158.998 8.918 158.998 9.35C158.998 9.77 158.842 10.124 158.53 10.412C158.23 10.7 157.864 10.844 157.432 10.844ZM170.726 12.59V20.51C170.726 21.962 170.306 23.066 169.466 23.822C168.626 24.578 167.51 24.956 166.118 24.956C164.438 24.956 162.98 24.404 161.744 23.3L163.022 21.608C163.514 21.98 163.982 22.262 164.426 22.454C164.882 22.658 165.38 22.76 165.92 22.76C166.64 22.76 167.216 22.58 167.648 22.22C168.08 21.872 168.296 21.35 168.296 20.654V20.168C167.972 20.516 167.576 20.78 167.108 20.96C166.652 21.14 166.142 21.23 165.578 21.23C164.762 21.23 164.03 21.044 163.382 20.672C162.734 20.3 162.224 19.778 161.852 19.106C161.492 18.434 161.312 17.666 161.312 16.802C161.312 15.926 161.498 15.158 161.87 14.498C162.242 13.826 162.752 13.31 163.4 12.95C164.048 12.578 164.774 12.392 165.578 12.392C166.214 12.392 166.778 12.506 167.27 12.734C167.774 12.962 168.182 13.286 168.494 13.706V12.59H170.726ZM166.082 19.178C166.694 19.178 167.222 18.968 167.666 18.548C168.11 18.128 168.332 17.534 168.332 16.766C168.332 15.998 168.11 15.422 167.666 15.038C167.234 14.654 166.706 14.462 166.082 14.462C165.422 14.462 164.87 14.672 164.426 15.092C163.994 15.5 163.778 16.064 163.778 16.784C163.778 17.504 164 18.086 164.444 18.53C164.888 18.962 165.434 19.178 166.082 19.178ZM178.697 12.392C179.729 12.392 180.545 12.722 181.145 13.382C181.745 14.03 182.045 14.894 182.045 15.974V21.5H179.633V16.298C179.633 15.782 179.477 15.368 179.165 15.056C178.865 14.732 178.469 14.57 177.977 14.57C177.485 14.57 177.077 14.732 176.753 15.056C176.441 15.368 176.285 15.782 176.285 16.298V21.5H173.855V12.59H176.087V13.4C176.399 13.088 176.777 12.842 177.221 12.662C177.677 12.482 178.169 12.392 178.697 12.392Z" fill="#003057"/>
</svg>
