<svg width="1722" height="169" viewBox="0 0 1722 169" fill="none" xmlns="http://www.w3.org/2000/svg">
<path d="M65.7802 169C45.4262 169 29.4241 164.38 17.8411 155.207C6.25802 146.034 0.5 137.063 0.5 128.225C0.5 125.413 1.30328 123.203 2.84323 121.529C4.38317 119.855 6.52571 118.985 9.33778 118.985C12.2838 119.119 14.828 120.659 17.1045 123.471C19.314 126.35 21.5234 129.765 23.599 133.782C25.6746 137.799 28.2188 141.749 31.0978 145.7C34.0438 149.65 38.5299 152.998 44.6227 155.743C50.7155 158.555 58.0804 159.894 66.7174 159.894C77.6979 159.894 86.6029 157.015 93.4322 151.19C100.328 145.432 103.743 137.933 103.743 128.827C103.743 121.128 101.935 114.767 98.3197 109.812C94.7042 104.858 89.9506 101.309 84.1925 99.0326C78.4345 96.8232 72.0069 94.9485 64.9768 93.6094C57.9466 92.2033 50.9164 90.6634 43.8193 88.9895C36.7221 87.3157 30.2945 85.0393 24.4695 82.1603C18.7114 79.2813 13.9578 74.7952 10.3422 68.6354C6.72673 62.4757 4.91899 54.6421 4.91899 45.2686C4.91899 32.0117 10.0744 21.1652 20.3183 12.729C30.5623 4.29278 44.6896 0.141602 62.5663 0.141602C80.7778 0.141602 95.3068 4.15876 106.22 12.1932C117.134 20.2277 122.557 28.7978 122.557 37.9036C122.557 44.0633 119.41 47.1433 113.05 47.1433C109.97 47.1433 107.359 45.8042 105.283 43.193C103.207 40.5818 101.333 37.4349 99.5919 33.6854C97.918 30.003 95.7755 26.2537 93.3652 22.5712C90.8879 18.8888 87.0046 15.6749 81.6482 13.0637C76.2919 10.4525 69.7305 9.11342 61.8299 9.11342C50.5816 9.11342 41.7437 12.0594 35.45 17.8844C29.0894 23.7763 25.9424 31.2083 25.9424 40.314C25.9424 47.5451 27.7502 53.504 31.3657 58.1238C34.9812 62.7436 39.735 66.1582 45.6269 68.3008C51.5189 70.4433 57.9466 72.251 64.9768 73.724C72.0069 75.197 79.0371 76.8708 86.0672 78.6786C93.0974 80.5533 99.5249 82.9636 105.417 85.9765C111.309 88.9894 116.063 93.6763 119.678 100.104C123.294 106.532 125.101 114.432 125.101 123.873C125.101 137.464 119.41 148.378 107.961 156.546C96.512 164.915 82.4517 169 65.7802 169Z" fill="#003057"/>
<path d="M156.332 163.897V163.428C156.332 162.357 157.738 160.75 160.483 158.541C163.295 156.398 164.634 153.787 164.634 150.64V18.4056C164.634 15.3257 163.228 12.6475 160.483 10.4381C157.738 8.22857 156.332 6.55478 156.332 5.48352V5.01479C156.332 3.14008 157.872 2.26965 160.952 2.26965H189.876C192.956 2.26965 194.496 3.20703 194.496 5.01479V5.48352C194.496 6.55478 193.759 7.62612 192.286 8.69739C190.813 9.76865 189.34 11.1077 187.867 12.6477C186.394 14.1876 185.658 16.1292 185.658 18.4056V150.64C185.658 153.72 187.131 156.331 190.077 158.541C193.023 160.683 194.496 162.357 194.496 163.428V163.897C194.496 165.771 192.956 166.709 189.876 166.709H160.952C157.872 166.709 156.332 165.771 156.332 163.897Z" fill="#003057"/>
<path d="M413.429 149.77C414.031 152.849 415.772 155.594 418.517 158.005C421.329 160.415 422.668 162.223 422.668 163.428V163.897C422.668 165.771 421.128 166.709 418.049 166.709H389.593C386.513 166.709 384.973 165.771 384.973 163.897V163.428C384.973 162.357 386.379 160.549 389.258 158.072C392.137 155.595 393.209 152.849 392.606 149.703L371.984 30.1896L325.652 161.487C324.246 164.7 322.237 166.374 319.626 166.374C316.546 166.374 314.471 164.834 313.399 161.754L265.929 28.5827L246.244 149.703C245.776 152.782 247.182 155.595 250.396 158.072C253.609 160.549 255.283 162.29 255.283 163.428V163.897C255.283 165.771 253.676 166.709 250.396 166.709H229.573C226.493 166.709 224.953 165.771 224.953 163.897V163.428C224.953 162.223 226.359 160.348 229.104 157.871C231.916 155.394 233.523 152.716 233.992 149.77L256.488 18.9413C256.957 15.8615 255.819 13.1163 253.141 10.7059C250.463 8.29558 249.057 6.6218 249.057 5.75139V5.28267C249.057 3.27405 250.262 2.26965 252.739 2.26965H283.538C286.015 2.26965 287.22 3.27405 287.22 5.28267V5.75139C287.22 6.35398 285.948 7.96075 283.404 10.6389C280.86 13.2501 280.123 16.0622 281.194 19.0082L322.438 138.521L364.552 18.0709C365.49 15.2588 364.686 12.7145 362.142 10.4381C359.598 8.09466 358.326 6.55491 358.326 5.81841V5.34969C358.326 3.34106 359.531 2.33667 362.008 2.33667H393.477C395.82 2.33667 396.958 3.20711 396.958 4.88096V5.55054C396.958 6.4879 396.489 7.4252 395.552 8.42951C394.615 9.43382 393.61 10.3042 392.539 11.1076C391.468 11.9111 390.597 13.1164 389.861 14.7902C389.191 16.4641 389.057 18.4727 389.526 20.8161L413.429 149.77Z" fill="#003057"/>
<path d="M455.075 166.719C451.861 166.719 450.188 165.714 450.188 163.706V163.237C450.188 162.3 451.593 160.76 454.472 158.483C457.351 156.274 458.758 153.596 458.758 150.516V18.5495C458.758 15.7374 457.351 13.1931 454.472 10.9167C451.593 8.57327 450.188 6.89956 450.188 5.82829V5.15871C450.188 3.284 451.794 2.41357 455.075 2.41357H498.126C508.17 2.41357 517.409 3.41776 525.912 5.42638C534.416 7.435 542.115 10.5149 548.945 14.6661C555.841 18.8172 561.197 24.4414 565.147 31.4716C569.098 38.5018 571.039 46.6701 571.039 55.9098C571.039 73.5187 565.081 87.1103 553.23 96.6848C541.312 106.259 524.774 111.013 503.416 111.013H479.58V150.583C479.58 153.663 481.053 156.341 484.066 158.55C487.079 160.76 488.552 162.367 488.552 163.304V163.773C488.552 165.781 487.012 166.786 483.932 166.786H455.075V166.719ZM487.949 101.372H503.483C517.677 101.372 528.925 97.756 537.161 90.5919C545.396 83.4278 549.547 73.5186 549.547 60.8643C549.547 44.9962 544.593 32.8107 534.616 24.3745C524.64 15.9383 512.522 11.7201 498.126 11.7201H485.606C481.589 11.7201 479.58 14.1975 479.58 19.1521V93.0024C479.647 98.6265 482.392 101.372 487.949 101.372Z" fill="#003057"/>
<path d="M590.061 166.714C586.981 166.714 585.441 165.776 585.441 163.902V163.433C585.441 162.228 586.847 160.487 589.593 158.345C592.405 156.202 593.744 153.591 593.744 150.444V18.4776C593.744 15.2638 592.338 12.5856 589.593 10.5101C586.847 8.4345 585.441 6.76071 585.441 5.55554V5.08681C585.441 3.2121 586.981 2.34167 590.061 2.34167H619.253C622.333 2.34167 623.873 3.27906 623.873 5.08681V5.55554C623.873 6.76071 622.4 8.4345 619.387 10.5101C616.374 12.5856 614.901 15.2638 614.901 18.4776V148.168C614.901 154.193 617.379 157.206 622.333 157.206H673.754C676.834 157.206 679.646 155.867 682.123 153.256C684.6 150.645 686.542 147.699 687.881 144.485C689.287 141.271 690.894 138.325 692.769 135.714C694.643 133.103 696.384 131.764 698.125 131.764H700C702.477 131.764 703.347 133.17 702.544 135.915L696.786 161.357C695.983 164.906 694.108 166.714 691.028 166.714H590.061Z" fill="#003057"/>
<path d="M713.95 166.725C710.736 166.725 709.062 165.787 709.062 163.913V163.444C709.062 162.373 710.469 160.699 713.348 158.489C716.227 156.28 717.633 153.535 717.633 150.254V18.6893C717.633 16.212 716.963 14.2035 715.557 12.5296C714.151 10.9227 712.745 9.58345 711.272 8.57914C709.799 7.57483 709.062 6.50355 709.062 5.43229V4.76291C709.062 3.08906 710.469 2.21863 713.214 2.21863H811.435C814.515 2.21863 816.457 3.89234 817.193 7.30699L822.751 30.2054C823.353 33.2852 822.416 34.8252 820.005 34.8252H818.867C817.327 34.8252 815.586 33.62 813.645 31.2096C811.703 28.7993 809.962 26.1881 808.288 23.2421C806.682 20.2961 804.606 17.6179 802.062 15.2745C799.517 12.8642 796.839 11.6592 794.094 11.6592H745.017C740.665 11.6592 738.522 14.2703 738.522 19.5597V77.6757H780.703C782.712 77.6757 784.386 77.0062 785.792 75.6002C787.198 74.1941 788.202 72.6543 788.939 70.8465C789.608 69.1057 790.412 67.4989 791.282 66.0928C792.152 64.6868 793.09 64.0171 794.161 64.0171H795.098C797.107 64.0171 798.111 65.3563 798.111 67.9675V96.423C798.111 99.0342 797.107 100.373 795.098 100.373H794.161C793.09 100.373 792.085 99.7037 791.282 98.2977C790.412 96.8917 789.675 95.4186 788.939 93.8117C788.269 92.2048 787.198 90.6648 785.792 89.3257C784.386 87.9196 782.712 87.2501 780.703 87.2501H738.522L738.321 147.241C738.321 149.986 739.058 152.396 740.531 154.271C742.004 156.213 744.146 157.15 746.891 157.15H801.325C804.07 157.15 806.748 155.945 809.226 153.468C811.703 150.99 813.645 148.245 815.118 145.232C816.591 142.219 818.265 139.474 820.206 136.997C822.148 134.52 823.956 133.315 825.629 133.315H827.035C828.107 133.315 828.91 133.783 829.446 134.721C829.982 135.658 830.115 136.729 829.781 137.934L824.223 161.301C823.42 164.85 821.411 166.658 818.198 166.658H713.95V166.725Z" fill="#003057"/>
<path d="M972.193 168.986C951.639 168.986 933.494 160.349 917.76 143.075C902.026 125.801 894.125 105.715 894.125 82.8832C894.125 58.6459 901.356 38.8276 915.751 23.3612C930.213 7.89481 948.625 0.194946 970.988 0.194946C987.994 0.194946 1002.72 5.01566 1015.31 14.657C1027.9 24.2984 1034.19 33.7391 1034.19 43.0457C1034.19 46.1256 1033.32 48.5359 1031.51 50.3437C1029.71 52.1514 1027.23 53.0218 1024.02 53.0218C1020.94 53.0218 1018.12 51.5487 1015.58 48.5358C1013.04 45.5228 1010.49 41.9074 1008.08 37.7563C1005.6 33.6051 1002.79 29.387 999.644 25.1689C996.498 20.9508 992.012 17.2683 986.187 14.2553C980.429 11.2424 973.599 9.76953 965.699 9.76953C951.772 9.76953 939.854 15.5275 929.945 27.1106C919.969 38.6936 915.015 53.4234 915.015 71.3671C915.015 94.0645 921.308 112.946 933.896 128.01C946.483 143.075 961.213 150.574 978.018 150.574C990.539 150.574 1001.05 146.824 1009.62 139.259C1018.19 131.693 1024.62 122.654 1028.97 112.142C1030.38 109.665 1032.32 108.728 1034.73 109.33C1037.21 109.933 1038.14 111.874 1037.54 115.088C1034.73 130.086 1027.7 142.807 1016.38 153.319C1004.93 163.764 990.204 168.986 972.193 168.986Z" fill="#003057"/>
<path d="M1051.6 166.719C1048.52 166.719 1046.98 165.781 1046.98 163.907V163.438C1046.98 162.367 1048.39 160.693 1051.13 158.483C1053.88 156.274 1055.28 153.596 1055.28 150.516V18.5495C1055.28 15.4696 1053.88 12.7915 1051.13 10.582C1048.32 8.37249 1046.98 6.6985 1046.98 5.62724V5.15871C1046.98 3.284 1048.52 2.41357 1051.6 2.41357H1080.52C1083.6 2.41357 1085.14 3.35095 1085.14 5.15871V5.62724C1085.14 6.6985 1084.41 7.76984 1082.93 8.8411C1081.46 9.91237 1079.99 11.2514 1078.52 12.7914C1077.04 14.3313 1076.31 16.2731 1076.31 18.5495L1076.11 77.8039H1167.1L1166.9 18.5495C1166.9 15.4696 1165.49 12.7915 1162.74 10.582C1159.93 8.37249 1158.59 6.6985 1158.59 5.62724V5.15871C1158.59 3.284 1160.13 2.41357 1163.21 2.41357H1192.14C1195.35 2.41357 1197.02 3.35095 1197.02 5.15871V5.62724C1197.02 6.6985 1196.22 7.76984 1194.68 8.8411C1193.14 9.91237 1191.6 11.2514 1190.2 12.7914C1188.72 14.3313 1187.99 16.2731 1187.99 18.5495V150.516C1187.99 152.859 1188.72 154.734 1190.2 156.274C1191.67 157.814 1193.14 159.153 1194.68 160.224C1196.22 161.296 1197.02 162.367 1197.02 163.438V163.907C1197.02 165.781 1195.42 166.719 1192.14 166.719H1163.21C1160.13 166.719 1158.59 165.781 1158.59 163.907V163.438C1158.59 162.367 1160 160.693 1162.74 158.483C1165.56 156.274 1166.9 153.596 1166.9 150.516L1167.1 87.9808H1076.37V150.516C1076.37 152.859 1077.11 154.734 1078.58 156.274C1080.06 157.814 1081.53 159.153 1083 160.224C1084.47 161.296 1085.21 162.367 1085.21 163.438V163.907C1085.21 165.781 1083.67 166.719 1080.59 166.719H1051.6Z" fill="#003057"/>
<path d="M1294.32 168.992C1270.55 168.992 1250.87 160.556 1235.27 143.75C1219.67 126.945 1211.9 106.993 1211.9 84.0274C1211.9 59.7901 1219.47 39.7037 1234.6 23.8356C1249.73 7.96751 1269.08 0 1292.72 0C1316.02 0 1335.23 8.36939 1350.36 25.0409C1365.49 41.7125 1373.06 61.8657 1373.06 85.5004C1373.06 108.533 1365.43 128.217 1350.23 144.554C1335.03 160.824 1316.35 168.992 1294.32 168.992ZM1299.41 159.016C1314.54 159.016 1327.13 153.057 1337.17 141.206C1347.22 129.288 1352.24 115.362 1352.24 99.2929C1352.24 74.2521 1346.01 53.1615 1333.49 35.8204C1320.97 18.5463 1305.04 9.90927 1285.55 9.90927C1270.09 9.90927 1257.43 15.6003 1247.59 27.0495C1237.68 38.4986 1232.79 52.7598 1232.79 69.9C1232.79 94.4722 1239.09 115.429 1251.67 132.904C1264.13 150.312 1280.13 159.016 1299.41 159.016Z" fill="#003057"/>
<path d="M1389.45 163.897V163.428C1389.45 162.357 1390.86 160.75 1393.6 158.541C1396.35 156.398 1397.75 153.787 1397.75 150.64V18.4056C1397.75 15.3257 1396.35 12.6475 1393.6 10.4381C1390.79 8.22857 1389.45 6.55478 1389.45 5.48352V5.01479C1389.45 3.14008 1390.99 2.26965 1394.07 2.26965H1422.99C1426.07 2.26965 1427.61 3.20703 1427.61 5.01479V5.48352C1427.61 6.55478 1426.88 7.62612 1425.4 8.69739C1423.93 9.76865 1422.46 11.1077 1420.98 12.6477C1419.51 14.1876 1418.78 16.1292 1418.78 18.4056V150.64C1418.78 153.72 1420.25 156.331 1423.19 158.541C1426.14 160.683 1427.61 162.357 1427.61 163.428V163.897C1427.61 165.771 1426.07 166.709 1422.99 166.709H1394.07C1390.99 166.709 1389.45 165.771 1389.45 163.897Z" fill="#003057"/>
<path d="M1526.34 168.986C1505.79 168.986 1487.64 160.349 1471.91 143.075C1456.17 125.801 1448.27 105.715 1448.27 82.8832C1448.27 58.6459 1455.5 38.8276 1469.9 23.3612C1484.36 7.89481 1502.77 0.194946 1525.14 0.194946C1542.14 0.194946 1556.87 5.01566 1569.46 14.657C1582.05 24.2984 1588.34 33.7391 1588.34 43.0457C1588.34 46.1256 1587.47 48.5359 1585.66 50.3437C1583.86 52.1514 1581.38 53.0218 1578.16 53.0218C1575.08 53.0218 1572.27 51.5487 1569.73 48.5358C1567.18 45.5228 1564.64 41.9074 1562.23 37.7563C1559.75 33.6051 1556.94 29.387 1553.79 25.1689C1550.65 20.9508 1546.16 17.2683 1540.34 14.2553C1534.58 11.2424 1527.75 9.76953 1519.85 9.76953C1505.92 9.76953 1494 15.5275 1484.09 27.1106C1474.12 38.6936 1469.16 53.4234 1469.16 71.3671C1469.16 94.0645 1475.46 112.946 1488.04 128.01C1500.63 143.075 1515.36 150.574 1532.17 150.574C1544.69 150.574 1555.2 146.824 1563.77 139.259C1572.34 131.693 1578.77 122.654 1583.12 112.142C1584.52 109.665 1586.47 108.728 1588.88 109.33C1591.35 109.933 1592.29 111.874 1591.69 115.088C1588.88 130.086 1581.85 142.807 1570.53 153.319C1559.15 163.764 1544.42 168.986 1526.34 168.986Z" fill="#003057"/>
<path d="M1605.8 166.725C1602.59 166.725 1600.91 165.787 1600.91 163.913V163.444C1600.91 162.373 1602.32 160.699 1605.2 158.489C1608.08 156.28 1609.48 153.535 1609.48 150.254V18.6893C1609.48 16.212 1608.81 14.2035 1607.41 12.5296C1606 10.9227 1604.6 9.58345 1603.12 8.57914C1601.65 7.57483 1600.91 6.50355 1600.91 5.43229V4.76291C1600.91 3.08906 1602.32 2.21863 1605.07 2.21863H1703.29C1706.37 2.21863 1708.31 3.89234 1709.04 7.30699L1714.6 30.2054C1715.2 33.2852 1714.27 34.8252 1711.79 34.8252H1710.65C1709.11 34.8252 1707.37 33.62 1705.43 31.2096C1703.49 28.7993 1701.75 26.1881 1700.07 23.2421C1698.47 20.2961 1696.39 17.6179 1693.85 15.2745C1691.3 12.8642 1688.62 11.6592 1685.88 11.6592H1636.8C1632.45 11.6592 1630.31 14.2703 1630.31 19.5597V77.6757H1672.42C1674.43 77.6757 1676.1 77.0062 1677.51 75.6002C1678.92 74.1941 1679.92 72.6543 1680.66 70.8465C1681.33 69.1057 1682.13 67.4989 1683 66.0928C1683.87 64.6868 1684.81 64.0171 1685.88 64.0171H1686.82C1688.82 64.0171 1689.83 65.3563 1689.83 67.9675V96.423C1689.83 99.0342 1688.82 100.373 1686.82 100.373H1685.88C1684.81 100.373 1683.8 99.7037 1683 98.2977C1682.13 96.8917 1681.39 95.4186 1680.66 93.8117C1679.99 92.2048 1678.92 90.6648 1677.51 89.3257C1676.1 87.9196 1674.43 87.2501 1672.42 87.2501H1630.31L1630.11 147.241C1630.11 149.986 1630.84 152.396 1632.32 154.271C1633.79 156.213 1635.93 157.15 1638.68 157.15H1693.11C1695.92 157.15 1698.53 155.945 1701.01 153.468C1703.49 150.99 1705.43 148.245 1706.9 145.232C1708.38 142.219 1710.05 139.474 1711.99 136.997C1713.93 134.52 1715.74 133.315 1717.41 133.315H1718.82C1719.89 133.315 1720.7 133.783 1721.23 134.721C1721.77 135.658 1721.9 136.729 1721.57 137.934L1716.01 161.301C1715.2 164.85 1713.2 166.658 1709.98 166.658H1605.8V166.725Z" fill="#003057"/>
</svg>
