<svg width="156" height="234" fill="none" xmlns="http://www.w3.org/2000/svg"><g clip-path="url(#a)" fill="#A0BF38"><path d="M85.586 162.37h5.39c.58 0 .86-.19.86-.56v-.08c0-.17-.28-.47-.84-.89-.56-.42-.84-.91-.84-1.48v-7.38h4.45c3.95 0 7.05-.89 9.27-2.67 2.2-1.78 3.31-4.31 3.31-7.59 0-1.72-.38-3.23-1.09-4.53a8.35 8.35 0 0 0-3.02-3.14c-1.28-.77-2.72-1.34-4.3-1.72-1.58-.38-3.3-.56-5.17-.56h-8.02c-.61 0-.91.17-.91.52v.13c0 .2.27.52.8.95.53.43.8.91.8 1.42v24.58c0 .58-.27 1.06-.8 1.48-.53.42-.8.72-.8.89v.08c.01.36.3.55.91.55Zm4.57-27.47c0-.91.38-1.38 1.13-1.38h2.33c2.67 0 4.94.79 6.8 2.34 1.84 1.58 2.78 3.84 2.78 6.8 0 2.36-.78 4.2-2.31 5.55-1.53 1.33-3.63 2-6.27 2h-2.89c-1.03 0-1.56-.52-1.56-1.55V134.9h-.01Zm18.61 61.37c2.92 3.22 6.3 4.83 10.14 4.83 3.34 0 6.09-.98 8.22-2.94 2.09-1.95 3.41-4.33 3.94-7.11.09-.61-.06-.97-.53-1.08-.47-.12-.81.05-1.06.52-.81 1.95-2 3.64-3.63 5.05-1.59 1.41-3.53 2.11-5.88 2.11-3.13 0-5.88-1.41-8.22-4.2-2.33-2.81-3.5-6.31-3.5-10.55 0-3.33.92-6.08 2.78-8.23 1.84-2.16 4.06-3.23 6.66-3.23 1.47 0 2.75.28 3.81.84 1.09.56 1.91 1.23 2.5 2.03.59.78 1.13 1.56 1.59 2.34.44.78.91 1.45 1.38 2 .5.56 1 .84 1.59.84.59 0 1.06-.16 1.41-.48.31-.34.47-.8.47-1.36 0-1.73-1.16-3.48-3.5-5.28-2.34-1.8-5.09-2.7-8.25-2.7-4.17 0-7.59 1.44-10.28 4.31-2.69 2.88-4.03 6.56-4.03 11.08 0 4.24 1.46 7.99 4.39 11.21Zm-9.46-24.28c.27-.28.55-.53.81-.73.28-.2.42-.39.42-.59v-.09c0-.34-.3-.52-.88-.52h-5.39c-.56 0-.86.17-.86.52v.09c0 .2.27.5.78.92.52.42.78.91.78 1.48v24.63c0 .56-.27 1.06-.78 1.45-.52.41-.78.72-.78.91v.09c0 .34.3.52.86.52h5.39c.58 0 .88-.17.88-.52v-.09c0-.19-.28-.5-.83-.91-.55-.39-.81-.89-.81-1.45v-24.63c.01-.43.13-.79.41-1.08Zm34.49-9.62h19.39c.61 0 .98-.33 1.13-.98l1.03-4.36c.06-.23.05-.44-.06-.61-.09-.17-.25-.25-.45-.25h-.25c-.33 0-.66.22-1.02.69a8.6 8.6 0 0 0-.95 1.53c-.27.56-.64 1.06-1.09 1.53-.47.45-.95.69-1.47.69h-10.13c-.53 0-.92-.19-1.19-.55-.28-.36-.42-.8-.42-1.31l.05-11.16h7.84c.38 0 .7.13.95.38.27.27.45.55.58.84.14.31.28.58.44.84.16.26.34.39.53.39h.17c.38 0 .56-.25.56-.73V144c0-.47-.19-.72-.56-.72h-.17c-.19 0-.38.12-.53.38-.16.27-.3.56-.44.89-.12.33-.31.62-.58.89-.25.25-.58.38-.95.38h-7.84v-10.81c0-.98.41-1.47 1.2-1.47h9.14c.53 0 1.02.23 1.5.67.47.45.86.94 1.16 1.48.3.55.64 1.05 1 1.5.36.44.67.66.97.66h.2c.47 0 .64-.28.53-.86l-1.05-4.27c-.14-.62-.5-.95-1.08-.95h-18.28c-.52 0-.77.16-.77.48v.12c0 .2.12.4.41.59.27.19.53.43.8.73s.39.68.39 1.14v24.49c0 .61-.27 1.11-.8 1.53-.53.42-.8.73-.8.92v.09c0 .34.3.51.91.51Zm21.65 62.67c-1.34.88-2.96 1.04-4.53.87-.59-.06-1.15-.25-1.73-.33-.58-.08-1.07.09-1.63.19-.7.13-.25-.09-.41-.55a.567.567 0 0 0-.48-.42c-.69-.13-3.06 1.64-3.37 1-.1-.21.33-1.02.34-1.28 0-.25-.04-.46-.22-.65-.42-.43-1.17-.23-1.67-.1-1.25.33-2.44.91-3.62 1.42-1.01.44-2.05.81-3.08 1.22l2.42-2.05.5-.63-.38-.41c-.11-.16-.31-.33-.83-.31-.07 0-.14.01-.21.01-.92.14-2.34.44-3.29 1.02-.01 0-.01-.01-.02-.01-.02 0-.03 0-.05.01-1.35.51-5.17 1.85-6.9 2.05.23-.4 1.84-1.55 3.46-2.45.19-.16.25-.35.16-.5l-.39-.29h-.09c-.57.12-1.18.17-1.51.26-.12-.46-.48-.87-.76-1.02l-.64.05c-.32.25-.21.68-.12.98.08.24.24.39.39.38.04 0 .08-.01.11-.04-.31.23-.93.47-1.64.75l-.01.01c-.21.09-5.48 1.81-7.99 1.87l-.56.1c.02-.17.41-.63 2.1-1.83.34-.21.69-.42.47-.79l-.29-.21h-.06c-.15 0-.32.1-.52.23-1.62.86-5 2.65-5.79 2.81.06-.23.52-.85 1.86-1.73.23-.14.4-.27.59-.43l.34-.28-.07-.09.18-.49-.57-.08-.43.3c-.12.1-.29.24-.52.37-.27.18-.49.35-.72.53-.01 0 0-.01-.01-.01h-.04c-2.67.83-4.55 1.16-5.65 1.55.54-.34 1.26-.88 1.66-1.57.23-.49.14-.96-.23-1.2-.24-.18-.59-.27-1.03-.26-.94.02-2.15.49-3.26 1.49.36-.38.66-.66 1.07-1.06 1.16-.48 11.33-4.8 11.49-7.68.03-.31-.12-.6-.39-.73l-.42-.07c-1.78.04-6.7 3.47-11.43 8.03-.31.29-.91.86-1.68 1.74-.03.01-.12.03-.46.14-.57.19-1.65.54-2.83.9-.37.1-.78.2-1.2.3l-.81.32c-.09-.5-.71-.64-1.2-.75-.31-.08-.63-.19-.65-.2 0-.06.15-.3.57-.56.72-.48 1.84-.86 2.6-.88.28-.01.49.04.57.13l.61-.01c.14-.15.14-.43-.01-.57-.26-.27-.67-.4-1.23-.38-.91.02-2.14.44-2.99 1.01-.42.27-.63.51-.78.73h-.01c-1.35.51-5.17 1.85-6.9 2.05.23-.4 1.84-1.55 3.46-2.45.19-.15.25-.35.16-.5l-.39-.29h-.09c-.57.12-1.18.17-1.51.26-.12-.46-.48-.87-.76-1.02l-.64.05c-.32.25-.21.68-.12.98.08.24.24.39.39.38.04 0 .08-.01.11-.04-.31.23-.92.47-1.64.74-3.74 1.33-6.94 1.88-8.18 1.9h-.01c-.56-.03-.93-.2-.86-.59.21-.28.65-.59 1.12-.85.38.15.89.22 1.45.21.68-.02 1.31-.16 1.74-.39.72-.42.69-.84.62-1.04-.07-.21-.28-.46-1.26-.43h-.13c-.51.05-1.52.33-2.57.83-.39.19-.72.38-.99.57h-.02c-1.96.86-4.82 1.73-5.7 1.81l-.5.1c-.03-.12.4-.7 1.44-1.93.27-.31.57-.63.98-1.06 2.02-1.23 5.16-3.48 7.38-5.31l2.89.04c.22 0 .41-.18.45-.43a.431.431 0 0 0-.43-.42l-2.06.15c2.35-1.93 2.46-2.35 2.49-2.49.07-.29-.09-.51-.52-.67-.6.01-2.11 1-4.56 2.98-3.34.12-3.88.5-4.01.78-.07.19.06.49.36.59l.37-.16c.27-.2 1.87-.28 2.39-.51-1.02.85-4.51 3.79-6.38 5.97-.24.28-.4.49-.58.71-.01 0-.01-.01-.02-.01h-.05c-3.74 1.34-6.95 1.88-8.19 1.91h-.01c-.56-.03-.93-.2-.86-.59.21-.28.65-.59 1.12-.85.38.15.89.22 1.45.21.68-.02 1.31-.16 1.74-.39.72-.42.69-.83.62-1.04-.07-.21-.28-.46-1.26-.43h-.13c-.5.05-1.52.33-2.57.83-.8.39-1.35.78-1.63 1.17-.45.55-.29.98-.24 1.12.23.49.87.77 1.9.82h.01c.96-.02 3.68-.43 7.29-1.61-.25.44-.29.72-.16 1.01.18.39.64.43.97.42l.39-.04c.78-.11 2.84-.69 4.69-1.4-.02.21.02.38.05.46.22.49.86.77 1.9.82h.01c1.06-.02 4.17-.46 8.35-1.95.47-.18.94-.37 1.32-.56-1.06.77-1.53 1.34-1.44 1.76.05.19.2.45.67.55l.41-.01c1.61-.04 4.92-1.17 6.63-1.8.18.3.56.44 1.15.62.17.04.33.07.31.07-.01 0-.05-.01-.13-.03-1.98.4-2.18.45-2.17.92l.22.42.08.03c.06.01.25.07.48.06.56-.01 1.39-.3 2.03-.7.93-.16 1.96-.39 2.82-.65.75-.22 1.43-.43 2.07-.64-.2.25-.39.47-.6.75l.03.59.26.1h.04l.3-.12c2.41-2.47 4.48-3.38 5.62-3.4.23-.01.42.03.49.23-.43.79-1.69 1.54-2.89 1.97-.97.06-1.49.11-1.85.49l.08.08-.07.53c.1.09.23.14.58.13.09 0 .19-.01.3-.02.36-.04.82-.17 1.4-.41.98-.1 2.96-.32 6.06-1.17-.22.31-.35.6-.32.82.01.24.16.46.4.55l.35.03c.64-.01 1.8-.46 3.73-1.68-.32.38-.43.69-.35 1.01.07.23.28.52.94.55l.43.01c2.68-.06 7.99-1.81 8.3-1.94.46-.18.93-.36 1.31-.56-1.06.77-1.53 1.34-1.44 1.76.05.19.21.45.67.55l.41-.01c1.37-.03 3.98-.86 5.79-1.5-.04.26-.04.52.06.78.15.36.47.54.91.53.12 0 .26-.02.4-.08l-1.51 1.29c-4.52 1.89-7.07 3.13-7.59 4.33-.1.28-.33.94.18 1.3l.39.12c.53-.01 1.82-.49 6.81-4.51l.61-.51.66-.55c1.56-.54 3.09-1.15 4.61-1.8 1.34-.57 2.69-1.26 4.11-1.63.53-.14.91-.34.86.28-.04.43-.34.83-.3 1.27.07.87.93.77 1.56.56.61-.21 1.17-.52 1.75-.78.92-.41.36-.42.51.2.22.89 1.35.45 1.94.33 1.17-.23 2.58.36 3.79.36 1.34-.01 2.64-.29 3.77-1.03.41-.3.03-.96-.38-.69Zm-27.77-1.21.39-.19c-.17.11-.33.21-.48.31l.09-.12Zm-11.27-8.21.02.09c-.08 1.56-5.14 4.34-9.32 6.43 4.91-4.44 8.53-6.4 9.31-6.41l-.01-.11Zm-26.4 9.07.39-.19c-.17.11-.33.21-.48.31.03-.03.06-.08.09-.12Zm-7.62-.07c-.05.03-.17.03-.24.06l-.01-.09.25.03Zm.72-7.61c-.37.31-.79.67-1.25 1.06l.07.09-.48.07c.6-.45 1.16-.87 1.66-1.22Zm-2.47 1.89.41-.19c-.93.71-1.95 1.47-2.92 2.29.77-.66 2.51-2.1 2.51-2.1Zm-13.39 6.07c-.05.03-.17.03-.24.06l-.01-.09.25.03Zm58 7.78s.01-.1.15-.41c.15-.38 1.04-1.14 4.26-2.6-3.21 2.49-4.18 2.9-4.41 3.01Zm7.91-7.03h-.02c-.07-.23-.06-.35.04-.5.18-.33.89-.95 3.53-1.4l.05-.01c-.79.62-2.67 1.89-3.6 1.91Zm-22.42-63.35h18.75c.58 0 .94-.33 1.08-.98l1.08-4.75c.14-.52-.02-.78-.47-.78h-.34c-.33 0-.66.25-1 .73-.34.5-.64 1.03-.91 1.64-.25.61-.61 1.16-1.08 1.64-.45.48-.97.73-1.55.73h-9.58c-.92 0-1.38-.56-1.38-1.69v-24.14c0-.6.28-1.09.84-1.48.56-.39.84-.7.84-.93v-.09c0-.34-.3-.52-.88-.52h-5.42c-.58 0-.86.17-.86.52v.09c0 .23.25.54.77.93s.78.88.78 1.48v24.58c0 .58-.27 1.06-.78 1.47-.52.39-.77.72-.77.94v.09c.02.35.3.52.88.52Zm22.95 38.29h19.39c.61 0 .98-.33 1.13-.98l1.03-4.36c.06-.23.05-.44-.06-.61-.09-.17-.25-.25-.45-.25h-.25c-.33 0-.66.22-1.02.69a8.6 8.6 0 0 0-.95 1.53c-.27.56-.64 1.06-1.09 1.53-.47.45-.95.69-1.47.69h-10.13c-.53 0-.92-.19-1.19-.55-.28-.36-.42-.8-.42-1.31l.05-11.16h7.84c.38 0 .7.12.95.38.27.27.45.55.58.84.14.31.28.58.44.84.16.27.34.39.53.39h.17c.38 0 .56-.25.56-.73v-5.3c0-.5-.19-.73-.56-.73h-.17c-.19 0-.38.12-.53.39-.16.25-.3.55-.44.88-.12.33-.31.63-.58.89-.25.25-.58.38-.95.38h-7.84V173.3c0-.98.41-1.47 1.2-1.47h9.14c.53 0 1.02.22 1.5.67.47.44.86.94 1.16 1.48.3.55.64 1.05 1 1.48.36.45.67.67.97.67h.2c.47 0 .64-.28.53-.86l-1.05-4.27c-.14-.64-.5-.95-1.08-.95h-18.28c-.52 0-.77.16-.77.47v.14c0 .2.12.39.41.58.27.19.53.42.8.73.27.3.39.67.39 1.14v24.49c0 .61-.27 1.11-.8 1.53-.53.42-.8.73-.8.92v.09c0 .35.3.52.91.52ZM4.196 160.23c2.16 1.72 5.13 2.58 8.92 2.58 3.11 0 5.72-.77 7.84-2.3 2.13-1.52 3.19-3.55 3.19-6.08 0-1.75-.33-3.22-1.02-4.41-.67-1.2-1.55-2.08-2.64-2.64s-2.3-1.02-3.61-1.36c-1.3-.34-2.61-.66-3.92-.92-1.3-.27-2.5-.61-3.59-1.02-1.09-.41-1.98-1.03-2.66-1.91-.67-.84-1.02-1.97-1.02-3.31 0-1.69.59-3.09 1.77-4.19 1.19-1.09 2.83-1.63 4.92-1.63 1.47 0 2.69.24 3.69.73.98.49 1.72 1.09 2.17 1.77.47.69.84 1.38 1.17 2.06.31.69.66 1.28 1.05 1.78.39.47.88.72 1.45.72 1.17 0 1.77-.56 1.77-1.72 0-1.69-1.02-3.28-3.05-4.79-2.02-1.49-4.73-2.24-8.13-2.24-3.33 0-5.95.79-7.86 2.35-1.92 1.57-2.88 3.59-2.88 6.06 0 1.75.34 3.22 1.02 4.36.67 1.14 1.55 1.98 2.63 2.52 1.08.53 2.28.95 3.61 1.28 1.31.31 2.64.59 3.94.86 1.31.25 2.5.59 3.58 1.02 1.08.41 1.95 1.08 2.64 2 .67.92 1 2.09 1 3.53 0 1.7-.64 3.09-1.91 4.17-1.28 1.06-2.94 1.61-4.98 1.61-1.61 0-2.98-.27-4.13-.78-1.13-.52-1.97-1.14-2.52-1.88-.55-.73-1.02-1.47-1.41-2.22-.38-.75-.78-1.39-1.2-1.92-.42-.53-.89-.81-1.44-.83-.52 0-.92.16-1.22.47-.28.31-.42.73-.42 1.25.01 1.65 1.09 3.33 3.25 5.03Zm36.23 56.16c-.54.01-1.89.89-4.07 2.65-2.98.11-3.46.45-3.57.7-.06.17.06.43.32.52l.33-.14c.24-.18 1.67-.25 2.13-.46-.44.37-1.42 1.2-2.49 2.15-3.37.92-6.92 1.69-10.31 2.81-.12-.84-.72-1.51-1.32-2.11-.58-.58-1.43-1.36-2.14-2.2 2.26-1.06 11.76-5.65 9.12-7.71-1.38-1.08-4.94.83-6.25 1.41-1.62.71-4.68 2.04-4.74 4.21-.01.53.31 1 .59 1.47-5.61 2.46-11.31 4.21-17.64 4.32-.51.01-.52.81 0 .8 6.38-.11 12.44-1.53 18.22-4.2 1.33 1.47 3.06 2.83 3.09 4.39-2.21.81-4.34 1.76-6.19 3.23-.79.62-3.33 2.52-2.23 3.8 1.25 1.45 4.07-.78 5.01-1.51 1.46-1.13 3.91-3.03 4.41-5.04 3.01-1.07 6.14-1.75 9.23-2.54-.74.7-1.52 1.41-2.07 2.05-.2.23-.33.4-.48.59l-.51.66c-.43.61-.55.96-.41 1.28.16.35.57.38.87.38l.34-.04c.85-.12 3.43-.86 5.24-1.67.16-.08.28-.3.19-.51l-.38-.2h-.06c-1.74.76-4.29 1.54-5.08 1.61l-.44.09c-.03-.11.36-.62 1.29-1.72.24-.28.51-.56.88-.95 1.8-1.1 4.6-3.1 6.58-4.73l2.58.03c.19 0 .36-.16.4-.39 0-.21-.17-.38-.38-.37l-1.84.13c2.1-1.72 2.19-2.1 2.22-2.22.09-.24-.05-.43-.44-.57Zm-22.18 1.83c.03-1.56 2.51-2.66 3.68-3.21 1.42-.68 3-1.33 4.54-1.67.86-.19 1.98-.19 1.13.92-.49.63-1.15 1.14-1.79 1.6-1.24.9-2.6 1.59-3.95 2.29-.99.51-2.02.77-3.02 1.22-.21-.38-.59-.75-.59-1.15Zm.64 10.79c-.74.66-3.02 2.84-4.2 2.6-1.95-.39 1.64-3.01 2.25-3.41 1.44-.95 3.11-1.6 4.74-2.23-.58 1.14-1.85 2.22-2.79 3.04Zm15.5-7.34c.68-.59 2.24-1.88 2.24-1.88l.37-.17c-.83.64-1.74 1.32-2.61 2.05Zm3.33-2.61.06.08-.43.07c.53-.4 1.03-.78 1.48-1.09-.33.28-.7.59-1.11.94Zm1.1 5.17c-.65.02-1.16.55-1.14 1.2.01.65.55 1.16 1.2 1.14a1.16 1.16 0 0 0 1.14-1.2c-.02-.65-.55-1.16-1.2-1.14Zm29.52-6.7c.67-1.45.67-2.59-.02-3.3-.34-.38-.94-.57-1.73-.57h-.11c-1.98.05-4.72 1.2-6.41 2.3-1.8 1.19-3.41 2.42-4.89 3.73 1.7-2.23 3.47-4.59 5.25-7.07.11-.16.17-.25.22-.32 0 0 .18-.45-.05-.64-.27-.22-.59.09-.59.09l-.5.6c-1.16 1.6-4.22 5.84-7.75 10.21-5.42 5.03-8.66 9.45-8.66 9.45-.08.09-.11.23-.09.38.03.1.08.17.14.22l.25.14h.08l.27-.12c2.17-1.8 5.08-4.97 8.66-9.42 2.83-2.61 5.5-4.73 8.19-6.48 1.86-1.23 4.28-2.13 5.91-2.16.03-.01.08-.01.11-.01.5 0 .88.1 1.06.28.5.55.2 1.57-.14 2.31-1.78 3.91-8.67 9.83-14.5 9.96h-.58c-.17-.03-.52-.13-.58-.2l.05-.55v-.05l-.42-.27-.05-.02-.31.18-.08.1c-.16.33-.16.66 0 .98.19.36.61.6 1.31.74l.64.01c6.2-.17 13.45-6.39 15.32-10.5Zm-52.83-47.87c-4.16 0-7.59 1.44-10.28 4.31-2.69 2.88-4.03 6.56-4.03 11.08 0 4.25 1.47 8 4.41 11.22 2.92 3.22 6.3 4.83 10.13 4.83 3.36 0 6.11-.98 8.22-2.94 2.11-1.95 3.42-4.33 3.94-7.11.12-.61-.05-.97-.52-1.08-.45-.12-.81.05-1.08.52-.8 1.95-2 3.64-3.59 5.05-1.59 1.41-3.56 2.11-5.89 2.11-3.13 0-5.88-1.41-8.22-4.2-2.33-2.81-3.5-6.31-3.5-10.55 0-3.33.92-6.08 2.78-8.23 1.84-2.16 4.06-3.23 6.66-3.23 1.47 0 2.73.28 3.81.84 1.08.56 1.91 1.23 2.5 2.03.59.78 1.11 1.56 1.58 2.34.45.78.92 1.45 1.39 2 .48.56 1 .84 1.58.84.61 0 1.08-.16 1.41-.48.33-.34.5-.8.5-1.36 0-1.73-1.17-3.48-3.52-5.28-2.36-1.81-5.11-2.71-8.28-2.71Zm15.33-7.29h5.39c.58 0 .86-.17.86-.52v-.09c0-.19-.27-.5-.81-.91-.55-.39-.83-.89-.83-1.45v-24.63c0-.43.14-.79.41-1.08.28-.28.55-.53.83-.73.27-.2.41-.41.41-.61v-.09c0-.34-.28-.52-.86-.52h-5.39c-.58 0-.86.17-.86.52v.09c0 .2.25.52.77.93.53.41.78.91.78 1.48v24.63c0 .56-.25 1.06-.78 1.45-.52.41-.77.72-.77.91v.09c-.01.36.27.53.85.53Zm-.33 38.29h5.39c.58 0 .88-.17.88-.52v-.09c0-.19-.14-.39-.42-.59a6 6 0 0 1-.81-.73c-.28-.3-.41-.66-.41-1.08v-11.64h16.89l-.03 11.64c0 .58-.27 1.06-.78 1.48-.52.42-.78.73-.78.92v.09c0 .34.3.52.86.52h5.39c.61 0 .91-.17.91-.52v-.09c0-.19-.14-.39-.42-.59-.3-.2-.58-.45-.84-.73-.28-.3-.41-.66-.41-1.08v-24.58c0-.42.12-.78.41-1.08.27-.28.55-.53.84-.73.28-.2.42-.39.42-.59v-.09c0-.34-.3-.52-.91-.52h-5.39c-.56 0-.86.17-.86.52v.09c0 .2.27.5.78.92.52.42.78.91.78 1.48l.03 11.03h-16.94l.05-11.03c0-.42.12-.78.41-1.08.27-.28.55-.53.81-.73.28-.2.42-.39.42-.59v-.09c0-.34-.3-.52-.88-.52h-5.39c-.56 0-.86.17-.86.52v.09c0 .2.27.5.78.92.51.42.78.91.78 1.48v24.58c0 .58-.27 1.06-.78 1.48-.52.42-.78.73-.78.92v.09c0 .35.3.52.86.52Zm13.1-38.29h3.88c.61 0 .91-.17.91-.52v-.09c0-.19-.3-.53-.91-.98-.61-.45-.86-.98-.78-1.55l3.67-22.55 8.83 24.78c.2.58.59.86 1.17.86.48 0 .86-.3 1.12-.91l8.63-24.44 3.83 22.25c.11.56-.09 1.09-.62 1.55-.53.45-.8.8-.8.98v.09c0 .34.28.52.86.52h5.31c.56 0 .86-.17.86-.52v-.09c0-.22-.27-.56-.78-1-.52-.45-.83-.97-.95-1.53l-4.44-24.02c-.08-.44-.06-.81.06-1.13.14-.31.3-.55.5-.69.2-.15.39-.31.56-.5.17-.19.27-.37.27-.54v-.12c0-.32-.22-.48-.66-.48h-5.86c-.47 0-.69.19-.69.56v.09c0 .14.23.43.7.86.48.43.62.91.45 1.41l-7.84 22.42-7.67-22.24c-.2-.55-.06-1.07.41-1.55.47-.49.72-.79.72-.91v-.09c0-.38-.23-.56-.69-.56h-5.73c-.47 0-.7.19-.7.56v.09c0 .17.25.48.77.92.5.45.7.96.63 1.54l-4.19 24.36c-.08.55-.39 1.05-.91 1.5-.52.47-.78.81-.78 1.03v.09c-.02.38.28.55.86.55Zm20.97 11.69c-2.81 2.95-4.22 6.69-4.22 11.2 0 4.28 1.45 7.99 4.36 11.13 2.91 3.13 6.56 4.7 10.99 4.7 4.11 0 7.58-1.53 10.42-4.58 2.83-3.05 4.23-6.7 4.23-10.99 0-4.41-1.41-8.16-4.22-11.27-2.81-3.09-6.39-4.66-10.74-4.66-4.39.02-8 1.51-10.82 4.47Zm18.42 2.24c2.33 3.22 3.48 7.16 3.48 11.81 0 2.98-.94 5.59-2.8 7.8-1.88 2.22-4.22 3.33-7.03 3.33-3.59 0-6.56-1.63-8.91-4.88-2.34-3.25-3.52-7.16-3.52-11.72 0-3.2.92-5.86 2.77-7.98 1.84-2.13 4.2-3.19 7.08-3.19 3.62 0 6.6 1.61 8.93 4.83Zm35.63-59.1c-.45.06-.83.67-1.23 1.04-1.04.95-4.35-.38-5.32.64-1.3 1.37-3.67.55-5.18-.88-1.61-1.52-2.86-3.42-4.22-5.2-.81-1.06-1.52-2.21-2.36-3.44-1.44 1.13-2.69 2.11-4.06 3.19 1.21.62 3.45 1.23 4.45 1.85.87.54 1.36 1.36 1.39 2.21.01.38-.08.77-.27 1.14-.39.76-2.58 1.33-3.47 1.34-12.77.06-25.8.45-38.54-.15-16.45-.78-21.75-16.68-17.21-28.31 2.33-5.97 6.23-10.77 10.97-14.96.36-.31.63-.59.83-.86.55-.42 9.6-9.17 11.45-11.23 9.52-10.6 14.71-22.99 15.23-37.29.06-1.59-.36-2.64-1.81-3.47-1.92-1.1-3.23-2.79-3.34-5.11-.03-.58.11-1.17.32-1.77.09-.25.19-.5.29-.75.11.44.24.86.39 1.26 1.33 3.71 3.93 5.99 8.06 6.82-.21.51-.27 1.14-.54 1.25-1.82.71-1.61 2.33-1.68 3.74-.79 15.15-6.66 28.01-17.43 38.66-1.99 1.97-10.86 10.45-11.72 11.33-4.63 4.75-8.68 9.95-10.39 16.49-2 7.63 2.45 20.63 14.27 21.87 4.09.43 8.22.57 12.34.72.91.03 1.93-.33 2.74-.79 3.24-1.86 6.44-3.8 9.59-5.81.39-.25.62-1.12.56-1.67-.25-2.16-.99-4.31-.91-6.45.31-8.44-6.79-14.46-14.1-15.56-3.62-.55-7.04-.09-10.49.84-.53.14-1.06.25-1.66.16 2.12-1.91 4.73-2.65 7.41-3.06 9.61-1.46 18.23 4.24 20.72 13.64.61 2.3 1 4.67 1.75 6.92 1.25 3.76 4.87 6.01 8.68 5.66 1.61-.15 2.55-.78 2.61-2.64.09-2.76-.84-5.16-2.6-7.07-4.93-5.34-5.39-11.76-4.77-18.46.16-1.78.69-3.52 1.1-5.27.09-.38.39-.71.59-1.07.18.02.37.03.55.05.1 1.8.49 3.64.24 5.39-.78 5.54.18 10.61 3.31 15.29 1.75 2.63 3.4 5.32 5.02 8.03.58.97 1.16 1.14 2.2.69 1.27-.55 2.65-.87 4.12-1.33-2.31-7.12-3.25-14.12.32-21.14l.84 9.31.7.09c.53-1.78 1.17-3.53 1.58-5.33 1.92-8.34.89-16.6-.49-24.91-.64-3.86-.93-7.78-1.2-11.7.39.1.78.23 1.18.33.23.06.47.1.71.15.03 1.05.08 2.09.17 3.14.58 6.85 1.71 13.66 2.59 20.49.74 5.68.05 11.22-2.27 16.44-2.01 4.52-1.63 8.54 1.35 12.49 1.7 2.25 5.66 7.54 7.11 9.97.67 1.1 1.45 2.8-.47 3.05Zm11.369-103.83c-1.56-.99-3.37-1.64-5.1-2.23-5.23-1.86-17.11-2.16-17.28-2.16-5.58.17-10.99 1.21-16.2 3.29-.46.19-1.17-.09-1.75-.24-1.9-.52-3.78-1.17-5.71-1.62-1.19-.28-1.97.33-2.06 1.66-.04.48-.09.99-.13 1.3-1.43.35-2.73.67-4.04.97-.33.09-.65.24-.93.43l-.19.13v.04c.32-.13.73.02 1.21.11.45.07 1.38.33 1.49.37 2.27.61 4.54 1.26 6.79 1.93.41.13.78.45 1.21.61.84.33 1.26.17 1.36-.89.06-.6.5-1.36 1-1.64 4.24-2.45 8.85-3.79 13.74-4.17 1.56-.11 15.08.8 15.75 3.33.35 1.39.26 3.11-.22 4.46-1.12 3.18-1.23 6.16.56 9.11.95 1.56.6 2.75-.99 3.72-2.12 1.3-3.85 2.96-4.78 5.41-.2.54-1.17 1.02-1.86 1.12-2.64.35-5.3.54-7.89.78-.11.76-.11 1.43 0 2.05.3.2.6.39.91.58.58.37 1.23.63 1.9.78.39.09.76.15 1.1.22.8.15 1.56.13 2.32.19.02-.95.04-1.9.04-2.86 4.61-.28 8.93-.48 13.22-.8 2.31-.17 4.8-.3 6.04-2.72 1.77-3.42 3.59-6.86 4.95-10.45 2.03-5.31.36-9.79-4.46-12.81Zm-46.01-1.95c1.6.63 2.86 1.13 4.35 1.71-2.19 1.27-3.75.69-4.35-1.71Zm39.69 8.96c.48-.73 1.17-1.08 2.03-.95.93.17 1.54.73 1.77 1.64.13.48 0 .97-.33 1.49-.11-.24-.17-.37-.22-.5-.2-.39-.48-.58-.8-.52-.43.07-.71.37-.76.82-.02.17 0 .35-.02.52-.06.5-.39.69-.86.46-1.05-.48-1.48-2.01-.81-2.96Zm2 18.08s-1.95-.35-3.45-3.12c.19.15 2.06 1.03 5.59 1.79 1 .26-2.14 1.33-2.14 1.33Z"/><path d="M93.144 21.28c4.41.78 8.431-.02 12.251-2.41-.3 1.77-1.59 2.59-3.03 3.17-3.15 1.27-6.27 1.29-9.22-.76Zm1.904 17.59c-.9 1.91-2.48 6.3-1.88 12.46.06.61.62 1.06 1.27 1.02 2.29-.14 7.46-.74 10.4-3.24.32-.27.52-.64.59-1.04l.35-2.2c.07-.41-.03-.83-.26-1.19-.69-1.05-2.75-3.27-8.81-6.36-.62-.3-1.38-.05-1.66.55Zm27.88 3.991c.26 2.08.41 6.71-2.08 12.43-.25.57-.92.84-1.53.62-2.14-.78-6.9-2.79-8.93-6-.22-.35-.3-.76-.24-1.15l.35-2.2c.07-.41.28-.79.62-1.06.99-.81 3.64-2.35 10.39-3.61.69-.13 1.34.31 1.42.97Zm-17.27 6.239.64-4.05c.04-.26.3-.44.58-.4l2.94.42c.28.04.47.29.43.55l-.64 4.05c-.04.26-.3.44-.58.4l-2.94-.42a.486.486 0 0 1-.43-.55ZM56.006 10.88c-3 0-5.44-2.44-5.44-5.44 0-3 2.44-5.44 5.44-5.44 3 0 5.44 2.44 5.44 5.44 0 3-2.44 5.44-5.44 5.44Zm0-9.65c-2.32 0-4.21 1.89-4.21 4.21 0 2.32 1.89 4.21 4.21 4.21 2.32 0 4.21-1.89 4.21-4.21 0-2.32-1.89-4.21-4.21-4.21Z"/><path d="M58.185 8.24c0 .02 0 .04-.01.06-.01.02-.03.03-.06.05-.03.02-.07.02-.13.03-.05.01-.13.01-.22.01-.08 0-.14 0-.19-.01-.05-.01-.09-.02-.12-.03a.134.134 0 0 1-.07-.06c-.02-.02-.03-.05-.04-.09l-.54-1.37c-.06-.16-.13-.3-.2-.43s-.15-.24-.24-.34a.955.955 0 0 0-.33-.22c-.13-.05-.28-.08-.45-.08h-.52v2.48c0 .02-.01.04-.02.06-.01.02-.03.03-.06.04-.03.01-.07.02-.12.03-.05.01-.11.01-.19.01-.07 0-.14 0-.19-.01a1.04 1.04 0 0 1-.12-.03c-.03-.01-.05-.02-.06-.04a.142.142 0 0 1-.02-.06V2.85c0-.12.03-.2.09-.24.06-.05.13-.07.2-.07h1.24c.15 0 .27 0 .37.01.1.01.18.02.26.02.22.04.42.1.6.18a1.314 1.314 0 0 1 .69.76c.06.17.09.35.09.55 0 .2-.03.37-.08.52-.05.15-.13.29-.23.41s-.22.22-.36.31c-.14.09-.29.16-.46.22.1.04.18.1.26.16.08.06.15.14.22.23s.13.19.19.31.12.25.18.4l.52 1.28c.04.11.07.18.08.23.04.06.04.09.04.11Zm-1.16-4.08c0-.23-.05-.42-.15-.58-.1-.16-.27-.27-.51-.34-.07-.02-.16-.04-.25-.05-.09-.01-.22-.01-.37-.01h-.65v1.96h.76c.2 0 .38-.02.53-.07.15-.05.27-.12.37-.21.1-.09.17-.19.22-.31.03-.12.05-.25.05-.39Z"/></g><defs><clipPath id="a"><path fill="#fff" d="M0 0h156v234H0z"/></clipPath></defs></svg>