<svg width="260" height="66" fill="none" xmlns="http://www.w3.org/2000/svg"><path d="M71.63 34.384c-2.242 0-4.004-.509-5.279-1.519-1.275-1.01-1.909-1.997-1.909-2.97 0-.31.089-.553.258-.738.17-.184.406-.28.715-.28.325.015.605.185.855.494.243.317.487.693.715 1.135.229.443.509.878.826 1.312.324.435.818.804 1.489 1.106.67.31 1.481.457 2.432.457 1.21 0 2.19-.317 2.941-.958.76-.634 1.135-1.46 1.135-2.462 0-.848-.199-1.548-.597-2.093a3.45 3.45 0 0 0-1.555-1.187 12.382 12.382 0 0 0-2.115-.597 69.556 69.556 0 0 1-2.33-.509 9.935 9.935 0 0 1-2.13-.752c-.634-.317-1.157-.81-1.555-1.489-.398-.678-.597-1.54-.597-2.572 0-1.46.567-2.654 1.695-3.583 1.128-.928 2.683-1.385 4.651-1.385 2.005 0 3.605.442 4.806 1.326 1.202.885 1.799 1.828 1.799 2.83 0 .679-.347 1.018-1.047 1.018-.339 0-.626-.147-.855-.435a5.17 5.17 0 0 1-.626-1.047 9.288 9.288 0 0 0-.686-1.223c-.273-.406-.7-.76-1.29-1.047-.59-.287-1.312-.435-2.182-.435-1.238 0-2.211.325-2.904.966-.7.648-1.047 1.467-1.047 2.47 0 .795.2 1.451.597 1.96.398.509.922.884 1.57 1.12.649.236 1.357.435 2.13.597.775.163 1.549.347 2.322.546.775.206 1.482.472 2.13.803.65.332 1.173.848 1.57 1.556.399.707.598 1.577.598 2.616 0 1.497-.627 2.698-1.887 3.598-1.26.921-2.808 1.37-4.644 1.37Zm9.965-.561v-.052c0-.118.155-.294.457-.538.31-.236.457-.523.457-.87V17.805c0-.339-.155-.634-.457-.877-.302-.243-.457-.427-.457-.545v-.052c0-.206.17-.302.509-.302h3.184c.339 0 .509.103.509.302v.052c0 .118-.081.236-.244.354a3.684 3.684 0 0 0-.486.434.885.885 0 0 0-.243.634v14.558c0 .34.162.627.486.87.324.236.487.42.487.538v.052c0 .206-.17.31-.51.31h-3.183c-.34 0-.509-.104-.509-.31Zm28.305-1.555c.067.339.258.64.561.906.309.266.457.465.457.597v.052c0 .206-.17.31-.509.31h-3.133c-.339 0-.508-.104-.508-.31v-.052c0-.118.154-.317.471-.59.317-.272.435-.574.369-.92l-2.27-13.158-5.101 14.454c-.155.354-.376.539-.664.539-.339 0-.567-.17-.685-.509l-5.226-14.661-2.168 13.334c-.051.34.104.649.457.922.354.272.539.464.539.59v.05c0 .207-.177.31-.539.31H89.66c-.34 0-.509-.103-.509-.31v-.05c0-.133.155-.34.457-.612.31-.273.487-.568.538-.892l2.477-14.404c.052-.339-.073-.641-.368-.906-.295-.266-.45-.45-.45-.546v-.052c0-.22.133-.331.405-.331h3.39c.273 0 .406.11.406.331v.052c0 .067-.14.243-.42.538-.28.288-.362.597-.244.922l4.54 13.157 4.637-13.26c.104-.31.015-.59-.265-.84-.28-.259-.42-.428-.42-.51v-.051c0-.221.132-.332.405-.332h3.465c.258 0 .383.096.383.28v.074c0 .103-.052.206-.155.317-.103.11-.214.206-.332.295a.989.989 0 0 0-.294.405c-.074.184-.089.406-.037.664l2.631 14.197Zm4.585 1.864c-.354 0-.538-.11-.538-.331v-.052c0-.103.155-.273.472-.523.317-.243.472-.538.472-.877v-14.53c0-.309-.155-.589-.472-.84-.317-.257-.472-.442-.472-.56v-.073c0-.207.177-.302.538-.302h4.74c1.105 0 2.123.11 3.059.331a8.71 8.71 0 0 1 2.536 1.017 4.94 4.94 0 0 1 1.783 1.85c.435.774.649 1.674.649 2.691 0 1.939-.656 3.435-1.961 4.49-1.312 1.053-3.132 1.577-5.484 1.577h-2.624v4.356c0 .339.162.634.494.877.332.243.494.42.494.523v.052c0 .221-.17.332-.509.332h-3.177v-.008Zm3.619-7.194h1.71c1.563 0 2.802-.398 3.708-1.187.907-.788 1.364-1.88 1.364-3.273 0-1.747-.546-3.088-1.644-4.017-1.098-.929-2.432-1.393-4.017-1.393h-1.379c-.442 0-.663.273-.663.818v8.13c.007.62.31.922.921.922Zm11.249 7.195c-.339 0-.509-.103-.509-.31v-.051c0-.133.155-.325.457-.56.31-.236.457-.524.457-.87V17.813c0-.354-.155-.649-.457-.877-.302-.229-.457-.413-.457-.546v-.051c0-.207.17-.302.509-.302h3.214c.339 0 .508.103.508.302v.051c0 .133-.162.317-.494.546-.331.228-.493.523-.493.877v14.278c0 .663.272.995.818.995h5.661c.339 0 .649-.147.921-.435.273-.287.487-.612.634-.965a5.31 5.31 0 0 1 .538-.966c.207-.287.398-.435.59-.435h.206c.273 0 .369.155.28.457l-.633 2.801c-.089.39-.295.59-.634.59h-11.116Zm13.637 0c-.354 0-.539-.104-.539-.31v-.052c0-.118.155-.302.472-.545.317-.243.472-.546.472-.907V17.835c0-.273-.074-.494-.229-.678a2.533 2.533 0 0 0-.471-.435c-.162-.11-.244-.229-.244-.347v-.073c0-.185.155-.28.457-.28h10.814c.339 0 .553.184.634.56l.612 2.52c.066.34-.037.51-.303.51h-.125c-.169 0-.361-.133-.575-.399a6.446 6.446 0 0 1-.589-.877 3.41 3.41 0 0 0-.686-.877c-.28-.265-.575-.398-.877-.398h-5.403c-.479 0-.715.287-.715.87v6.398h4.644a.756.756 0 0 0 .56-.229 1.54 1.54 0 0 0 .346-.523c.074-.192.162-.369.258-.523.096-.155.199-.229.317-.229h.103c.222 0 .332.148.332.435v3.133c0 .287-.11.435-.332.435h-.103c-.118 0-.228-.074-.317-.229a4.402 4.402 0 0 1-.258-.494 1.456 1.456 0 0 0-.346-.494.756.756 0 0 0-.56-.228h-4.644l-.022 6.605c0 .302.081.567.243.773.162.214.398.317.7.317h5.993c.302 0 .597-.132.87-.405.272-.273.486-.575.648-.907.163-.331.347-.634.561-.906.213-.273.412-.406.597-.406h.154c.118 0 .207.052.266.155a.446.446 0 0 1 .037.354l-.612 2.572c-.089.391-.31.59-.664.59H142.99v.008Zm28.43.25c-2.263 0-4.26-.95-5.993-2.853-1.732-1.901-2.602-4.113-2.602-6.626 0-2.669.797-4.85 2.381-6.553 1.593-1.703 3.62-2.55 6.082-2.55 1.872 0 3.494.53 4.879 1.591 1.386 1.062 2.079 2.101 2.079 3.126 0 .339-.096.604-.295.803-.199.2-.472.295-.825.295-.34 0-.649-.162-.929-.494a8.38 8.38 0 0 1-.826-1.186 16.166 16.166 0 0 0-.929-1.386c-.346-.465-.84-.87-1.481-1.202-.634-.331-1.386-.494-2.256-.494-1.533 0-2.845.634-3.936 1.91-1.098 1.275-1.644 2.896-1.644 4.872 0 2.499.693 4.577 2.079 6.236 1.386 1.658 3.007 2.484 4.858 2.484 1.378 0 2.535-.413 3.479-1.246a8.026 8.026 0 0 0 2.13-2.985c.155-.273.369-.376.634-.31.273.067.376.28.31.634-.31 1.651-1.084 3.052-2.33 4.21-1.26 1.15-2.882 1.724-4.865 1.724Zm8.742-.251c-.339 0-.508-.103-.508-.31v-.05c0-.119.155-.303.457-.546.302-.243.457-.538.457-.877v-14.53c0-.338-.155-.633-.457-.876-.31-.244-.457-.428-.457-.546v-.051c0-.207.169-.302.508-.302h3.185c.339 0 .508.103.508.302v.051c0 .118-.081.236-.243.354a3.681 3.681 0 0 0-.486.435.882.882 0 0 0-.244.634l-.022 6.523h10.018l-.022-6.523c0-.34-.155-.634-.457-.877-.31-.244-.457-.428-.457-.546v-.051c0-.207.169-.302.508-.302h3.185c.353 0 .538.103.538.302v.051c0 .118-.089.236-.258.354-.17.118-.339.265-.494.435a.886.886 0 0 0-.243.634v14.529c0 .258.081.464.243.634.162.169.324.316.494.434.169.118.258.236.258.354v.052c0 .206-.177.31-.538.31h-3.185c-.339 0-.508-.104-.508-.31v-.052c0-.118.154-.302.457-.545.309-.243.457-.538.457-.877l.022-6.885h-9.988v6.885c0 .258.081.464.243.634.162.169.324.316.487.434.162.118.243.236.243.354v.052c0 .206-.17.31-.509.31h-3.192Zm26.721.251c-2.617 0-4.784-.928-6.501-2.779-1.718-1.85-2.573-4.046-2.573-6.575 0-2.668.833-4.88 2.499-6.627 1.666-1.747 3.796-2.624 6.398-2.624 2.565 0 4.681.922 6.347 2.757 1.666 1.836 2.499 4.054 2.499 6.656 0 2.536-.841 4.703-2.514 6.502-1.673 1.79-3.73 2.69-6.155 2.69Zm.56-1.098c1.666 0 3.052-.656 4.158-1.96 1.105-1.313 1.658-2.846 1.658-4.615 0-2.757-.685-5.079-2.064-6.988-1.378-1.902-3.133-2.853-5.278-2.853-1.702 0-3.095.627-4.179 1.887-1.091 1.26-1.629 2.83-1.629 4.718 0 2.705.693 5.012 2.079 6.936 1.371 1.917 3.132 2.875 5.255 2.875Zm9.915.538v-.052c0-.118.154-.294.457-.538.302-.236.457-.523.457-.87V17.805c0-.339-.155-.634-.457-.877-.31-.243-.457-.427-.457-.545v-.052c0-.206.169-.302.508-.302h3.185c.339 0 .508.103.508.302v.052c0 .118-.081.236-.243.354a3.75 3.75 0 0 0-.487.434.885.885 0 0 0-.243.634v14.558c0 .34.162.627.487.87.324.236.486.42.486.538v.052c0 .206-.169.31-.508.31h-3.185c-.339 0-.508-.104-.508-.31Zm15.066.56c-2.263 0-4.26-.95-5.992-2.853-1.733-1.901-2.602-4.113-2.602-6.626 0-2.669.796-4.85 2.38-6.553 1.593-1.703 3.62-2.55 6.082-2.55 1.872 0 3.494.53 4.879 1.591 1.386 1.062 2.079 2.101 2.079 3.126 0 .339-.096.604-.295.803-.199.2-.471.295-.825.295-.339 0-.649-.162-.929-.494a8.38 8.38 0 0 1-.826-1.186 16.149 16.149 0 0 0-.928-1.386c-.347-.465-.841-.87-1.482-1.202-.634-.331-1.386-.494-2.256-.494-1.533 0-2.845.634-3.936 1.91-1.098 1.275-1.644 2.896-1.644 4.872 0 2.499.693 4.577 2.079 6.236 1.386 1.658 3.008 2.484 4.858 2.484 1.378 0 2.535-.413 3.479-1.246a8.026 8.026 0 0 0 2.13-2.985c.155-.273.369-.376.634-.31.273.067.376.28.31.634-.31 1.651-1.084 3.052-2.33 4.21-1.253 1.15-2.874 1.724-4.865 1.724Zm8.75-.25c-.354 0-.538-.104-.538-.31v-.052c0-.118.155-.302.472-.545.316-.243.471-.546.471-.907V17.835c0-.273-.073-.494-.228-.678a2.568 2.568 0 0 0-.472-.435c-.162-.11-.243-.229-.243-.347v-.073c0-.185.155-.28.457-.28h10.813c.339 0 .553.184.634.56l.612 2.52c.066.34-.037.51-.31.51h-.125c-.169 0-.361-.133-.575-.399a6.544 6.544 0 0 1-.59-.877 3.384 3.384 0 0 0-.685-.877c-.28-.265-.575-.398-.877-.398h-5.403c-.479 0-.715.287-.715.87v6.398h4.636a.755.755 0 0 0 .56-.229c.155-.155.266-.324.347-.523.074-.192.162-.369.258-.523.096-.155.199-.229.317-.229h.103c.221 0 .332.148.332.435v3.133c0 .287-.111.435-.332.435h-.103c-.118 0-.229-.074-.317-.229a4.402 4.402 0 0 1-.258-.494 1.474 1.474 0 0 0-.347-.494.755.755 0 0 0-.56-.228h-4.636l-.022 6.605c0 .302.081.567.243.773.162.214.398.317.7.317h5.993c.309 0 .597-.132.87-.405.272-.273.486-.575.648-.907.163-.331.347-.634.561-.906.213-.273.412-.406.597-.406h.154c.118 0 .207.052.266.155a.446.446 0 0 1 .037.354l-.612 2.572c-.089.391-.31.59-.664.59h-11.469v.008Zm-95.066 15.892c.663-1.43.656-2.573-.015-3.295-.361-.376-.944-.56-1.732-.56h-.118c-1.961.044-4.674 1.179-6.347 2.277a45.11 45.11 0 0 0-4.725 3.582 238.935 238.935 0 0 0 5.285-7.128l.096-.132-.133-.089.015-.493-.619.103h-.052l-.029.044c-.015.015-.17.214-.347.457-1.032 1.43-4.172 5.779-7.732 10.202-5.3 4.916-8.58 9.339-8.595 9.369a.512.512 0 0 0-.066.383.361.361 0 0 0 .14.228l.214.14h.095l.266-.088.029-.022c2.72-2.263 6.163-6.332 8.566-9.34 2.815-2.594 5.469-4.695 8.115-6.42 1.828-1.223 4.231-2.1 5.846-2.138h.11c.494 0 .855.096 1.025.266.501.545.206 1.533-.133 2.27-1.769 3.878-8.58 9.723-14.344 9.855-.214 0-.406 0-.575-.007-.17-.022-.442-.11-.546-.221l.037-.45v-.103l-.405-.265-.059-.044-.369.213-.037.089a1.126 1.126 0 0 0-.007.995c.192.361.619.604 1.32.737l.633.007c6.141-.17 13.342-6.339 15.193-10.422Zm-29.257 6.633a1.161 1.161 0 1 0 .052 2.322 1.156 1.156 0 0 0 1.128-1.186 1.146 1.146 0 0 0-1.18-1.136Zm2.175-7.142c.059-.228.015-.538-.531-.737l-.044-.007c-.56.015-1.895.87-4.076 2.631-2.927.111-3.465.45-3.612.774a.46.46 0 0 0 .029.354.63.63 0 0 0 .369.317l.044.015.398-.17c.096-.066.553-.14.921-.191.207-.03.421-.067.612-.096a85.777 85.777 0 0 0-2.373 2.079c-1.113.294-2.249.575-3.362.84-2.071.494-4.179 1.002-6.213 1.666-.163-.723-.73-1.29-1.246-1.799l-.148-.155c-.199-.199-.442-.42-.7-.663-.457-.42-.988-.907-1.437-1.43 3.074-1.467 9.287-4.673 9.509-6.745.036-.39-.118-.722-.472-.987-1.231-.937-4.106.405-5.654 1.127-.221.104-.42.192-.575.266l-.074.03c-1.607.707-4.607 2.026-4.658 4.179-.015.619.206 1.18.567 1.71-5.94 2.594-11.558 3.87-17.396 3.973a.44.44 0 0 0-.434.464c0 .214.154.435.427.435h.007a44.616 44.616 0 0 0 18-4.105c.362.398.775.78 1.18 1.157 1.017.943 1.983 1.85 2.108 2.867-2.27.811-4.43 1.858-6.331 3.361l-.118.089c-.73.575-2.256 1.769-2.381 2.875-.03.324.059.619.265.87.302.36.7.508 1.143.508 1.341 0 3.073-1.349 3.847-1.953l.258-.2c1.445-1.12 3.797-2.933 4.276-4.872 2.174-.766 4.452-1.312 6.648-1.85.531-.125 1.069-.265 1.607-.398a26.203 26.203 0 0 0-1.489 1.57c-.132.162-.235.288-.339.413l-.648.833c-.391.553-.605.98-.413 1.393.192.405.649.442.892.442h.088l.347-.037c.855-.117 3.42-.862 5.226-1.658.214-.11.368-.39.236-.663l-.015-.037-.405-.214-.118-.015-.052.008c-1.717.751-4.224 1.518-5.005 1.592l-.214.037c.162-.244.553-.73 1.165-1.453.199-.236.427-.471.708-.766l.147-.155c1.835-1.12 4.548-3.074 6.479-4.659l2.514.03c.258-.008.472-.214.516-.509a.478.478 0 0 0-.155-.353.465.465 0 0 0-.339-.133h-.015l-1.43.103c1.828-1.511 1.909-1.865 1.939-1.998Zm-23.72 11.22c1.51-.996 3.25-1.755 4.665-2.3-.501 1.017-1.607 1.982-2.499 2.756l-.53.465c-.848.766-2.83 2.55-3.863 2.359-.331-.06-.516-.185-.545-.354-.148-.73 1.983-2.403 2.771-2.927Zm4.761-12.96.17-.08c1.702-.819 3.169-1.357 4.489-1.659.258-.059.494-.088.7-.088.31 0 .538.066.619.191.089.14 0 .391-.25.715-.48.62-1.136 1.12-1.77 1.578-1.164.848-2.462 1.518-3.715 2.16l-.184.095a67.72 67.72 0 0 1-3.052 1.482c-.28-.45-.464-.907-.45-1.356.052-1.43 2.264-2.477 3.443-3.037Zm132.328 9.606c-1.32.862-2.912 1.017-4.452.855-.583-.06-1.128-.244-1.696-.325-.597-.08-1.076.104-1.651.192-.398.059-.258.177-.339-.037-.044-.125.052-.317.007-.464-.081-.266-.265-.413-.538-.465-.693-.118-2.926 1.563-3.273 1.077-.095-.133.34-1.091.34-1.29.007-.266-.045-.494-.236-.693-.435-.443-1.194-.25-1.725-.11-1.239.324-2.425.906-3.597 1.414a121.52 121.52 0 0 1-3.059 1.26l2.373-2.004.501-.627-.376-.405c-.103-.155-.309-.324-.825-.31-.066 0-.14.008-.214.015-.914.133-2.314.435-3.258 1.01-.015 0-.007-.015-.022-.015s-.03 0-.052.008c-1.334.508-5.123 1.835-6.833 2.027.229-.398 1.821-1.534 3.428-2.433.191-.155.243-.346.162-.494l-.383-.287h-.089c-.567.118-1.172.162-1.496.258-.118-.457-.472-.863-.759-1.003l-.634.052c-.317.25-.207.67-.126.973.081.243.244.383.384.376a.195.195 0 0 0 .11-.037c-.302.229-.921.464-1.629.737 0 0 0 .008-.007.008-.214.088-5.425 1.798-7.917 1.85l-.553.096c.022-.17.413-.627 2.086-1.806.332-.207.679-.42.465-.782l-.288-.214h-.066c-.155 0-.317.096-.516.222-1.607.855-4.953 2.624-5.735 2.778.059-.228.516-.84 1.843-1.71.228-.132.398-.272.59-.427l.331-.28-.073-.089.184-.479-.56-.08-.428.294a3.631 3.631 0 0 1-.516.368c-.265.177-.486.354-.707.524-.008 0-.008-.007-.015-.007h-.044c-2.647.818-4.504 1.15-5.595 1.533.531-.34 1.246-.877 1.644-1.548.228-.487.14-.951-.229-1.187-.236-.177-.59-.265-1.017-.258-.929.022-2.13.486-3.229 1.474.362-.383.656-.656 1.062-1.054 1.142-.479 11.226-4.747 11.374-7.607a.72.72 0 0 0-.384-.722l-.413-.074c-1.769.044-6.634 3.442-11.314 7.953-.31.288-.9.856-1.666 1.718-.037.007-.118.03-.45.133-.567.191-1.636.538-2.808.892-.369.103-.774.199-1.194.294l-.804.317c-.096-.5-.708-.634-1.187-.744-.309-.081-.619-.192-.648-.2-.008-.058.147-.301.56-.552.708-.472 1.821-.848 2.572-.87.273-.007.48.037.568.125l.604-.007a.427.427 0 0 0-.014-.567c-.251-.266-.664-.391-1.217-.384-.906.022-2.122.435-2.963 1.003-.413.265-.626.501-.766.722h-.008c-1.334.509-5.123 1.836-6.833 2.027.229-.398 1.821-1.533 3.428-2.432.191-.155.25-.347.162-.494l-.383-.288h-.089c-.567.118-1.172.163-1.496.258-.118-.457-.472-.862-.759-1.002l-.634.051c-.317.251-.207.671-.126.974.081.243.244.383.384.375a.195.195 0 0 0 .11-.036c-.302.228-.914.464-1.621.737-3.701 1.32-6.878 1.857-8.109 1.887h-.007c-.56-.03-.929-.2-.855-.583.206-.28.649-.59 1.113-.84.376.148.884.221 1.437.206.671-.014 1.305-.154 1.718-.39.715-.413.685-.826.612-1.032-.067-.214-.281-.45-1.254-.428h-.132c-.501.044-1.511.332-2.543.819a6.839 6.839 0 0 0-.981.56h-.022c-1.938.847-4.769 1.71-5.646 1.79l-.494.097c-.037-.118.398-.693 1.43-1.91.265-.309.568-.626.973-1.053 2.005-1.224 5.108-3.443 7.305-5.264l2.867.037c.214-.007.406-.177.443-.427a.416.416 0 0 0-.428-.413l-2.042.147c2.33-1.909 2.433-2.329 2.47-2.461.073-.288-.089-.51-.516-.664-.597.015-2.094.988-4.519 2.949-3.31.117-3.848.493-3.966.773-.073.185.059.48.362.583l.368-.155c.265-.199 1.85-.28 2.374-.509-1.01.84-4.46 3.76-6.318 5.92-.235.28-.398.479-.574.707-.015 0-.008-.015-.023-.015h-.044c-3.708 1.327-6.877 1.858-8.108 1.887h-.007c-.561-.03-.929-.199-.856-.582.207-.28.649-.59 1.114-.84.375.147.884.22 1.437.206.671-.015 1.305-.155 1.717-.39.715-.413.686-.826.612-1.033-.066-.213-.28-.45-1.253-.427h-.133c-.501.044-1.511.332-2.543.818-.796.383-1.341.774-1.614 1.157-.442.546-.287.966-.236 1.113.221.487.855.76 1.887.811h.008c.95-.022 3.641-.427 7.223-1.6-.25.436-.287.716-.162.996.184.39.634.427.966.42l.383-.037c.774-.103 2.816-.685 4.644-1.386a.973.973 0 0 0 .052.45c.221.487.855.76 1.887.81h.007c1.047-.021 4.135-.456 8.27-1.93v-.008c.465-.177.929-.36 1.305-.56-1.054.767-1.511 1.327-1.43 1.747.044.192.199.45.671.546l.405-.008c1.592-.037 4.873-1.165 6.568-1.776.177.302.553.442 1.143.611.169.037.331.074.309.074-.007 0-.044-.007-.132-.022-1.961.398-2.16.442-2.153.914l.214.42.081.022c.059.015.251.067.479.06.553-.015 1.378-.295 2.012-.694a23.25 23.25 0 0 0 2.794-.648 59.5 59.5 0 0 0 2.049-.634c-.199.243-.383.464-.597.744l.022.583.251.096h.037l.302-.118c2.388-2.448 4.438-3.347 5.565-3.37.229-.006.413.03.487.23-.42.788-1.681 1.525-2.86 1.945-.958.06-1.482.111-1.836.487l.081.074-.073.523c.096.088.228.14.567.133.089 0 .192-.008.303-.022.361-.037.81-.17 1.393-.406.973-.096 2.933-.317 6-1.157-.214.31-.354.59-.317.81.007.237.162.45.398.546l.339.03c.634-.015 1.784-.457 3.693-1.666-.317.376-.428.678-.339.995.066.228.28.508.936.545l.428.008c2.653-.06 7.909-1.791 8.226-1.917.457-.177.921-.361 1.304-.553-1.054.767-1.511 1.327-1.43 1.747.045.192.2.45.671.546l.406-.008c1.356-.029 3.936-.855 5.735-1.481-.037.25-.037.516.066.774.147.354.464.538.899.53a.957.957 0 0 0 .391-.08l-1.497 1.282c-4.481 1.872-7.002 3.103-7.518 4.29-.096.28-.325.936.177 1.283l.39.118c.531-.015 1.799-.487 6.745-4.475l.604-.508.472-.398c1.651-.553 3.251-1.217 4.851-1.895 1.319-.567 2.653-1.245 4.046-1.607.155-.036.575-.206.723-.125.206.11.029.037.044.317.022.413-.339.833-.302 1.283.066.914.958.847 1.629.619.604-.207 1.172-.524 1.754-.782.199-.088.369-.11.45-.199-.03.118-.067.236-.045.34.199.958 1.379.515 2.013.39 1.15-.221 2.543.361 3.737.354 1.334-.007 2.646-.295 3.774-1.032.479-.265.037-1.032-.442-.722Zm-27.539-1.12.391-.185c-.17.103-.332.206-.479.31.029-.045.058-.089.088-.126Zm-11.16-8.131.022.096c-.081 1.548-5.093 4.297-9.236 6.368 4.858-4.393 8.455-6.332 9.214-6.354v-.11Zm-26.153 8.985.391-.184c-.17.103-.332.206-.479.31.029-.037.066-.081.088-.126Zm-7.541-.066c-.051.03-.169.037-.236.059l-.014-.096.25.037Zm.715-7.54c-.368.309-.781.663-1.238 1.046l.074.088-.48.074c.59-.442 1.143-.862 1.644-1.209Zm-2.447 1.871.405-.184c-.921.7-1.931 1.46-2.896 2.27a298.55 298.55 0 0 1 2.491-2.086Zm-13.261 6.008c-.051.03-.169.037-.236.059l-.014-.096.25.037Zm57.437 7.71s.007-.103.154-.405c.155-.383 1.025-1.128 4.217-2.58-3.177 2.47-4.15 2.875-4.371 2.985Zm7.828-6.958h-.022c-.074-.229-.067-.347.044-.494.177-.332.877-.944 3.494-1.386l.044-.007c-.774.604-2.631 1.865-3.56 1.887ZM46.073 64.436c-.265.036-.494.397-.73.619-.612.567-2.587-.222-3.162.383-.774.818-2.182.324-3.074-.523-.958-.9-1.703-2.035-2.506-3.089-.48-.634-.9-1.312-1.4-2.05-.855.672-1.6 1.254-2.41 1.895.722.369 2.048.737 2.638 1.099.516.317.81.803.826 1.312.007.228-.045.457-.155.678-.229.45-1.533.788-2.057.796-7.585.037-15.324.273-22.895-.088C1.374 65.002-1.773 55.56.924 48.654c1.386-3.546 3.7-6.398 6.517-8.883a3.46 3.46 0 0 0 .494-.508c.331-.25 5.705-5.447 6.796-6.671 5.653-6.295 8.735-13.659 9.044-22.15.037-.951-.214-1.57-1.076-2.064-1.143-.65-1.924-1.659-1.983-3.037-.015-.347.066-.7.192-1.047.051-.148.11-.295.177-.45.066.258.147.509.228.745.789 2.204 2.33 3.553 4.792 4.054-.126.302-.163.678-.317.744-1.084.428-.959 1.379-1.003 2.226-.472 9-3.958 16.637-10.35 22.962-1.186 1.172-6.449 6.206-6.958 6.73C4.728 44.128 2.325 47.216 1.3 51.1.114 55.627 2.753 63.359 9.777 64.089c2.433.25 4.887.34 7.327.428.538.022 1.15-.192 1.63-.472a144.446 144.446 0 0 0 5.697-3.45c.236-.147.369-.67.332-.988-.148-1.282-.59-2.565-.538-3.833.184-5.012-4.032-8.587-8.374-9.243-2.152-.325-4.187-.052-6.228.501-.31.081-.634.148-.988.096 1.26-1.135 2.808-1.57 4.4-1.813 5.706-.87 10.829 2.52 12.31 8.1.361 1.364.59 2.772 1.04 4.114a4.924 4.924 0 0 0 5.16 3.36c.958-.088 1.51-.463 1.547-1.57.052-1.643-.493-3.058-1.548-4.2-2.926-3.17-3.199-6.981-2.83-10.962.096-1.054.413-2.093.656-3.132.052-.229.228-.428.346-.634.111.007.221.022.332.03.06 1.068.288 2.159.148 3.198-.465 3.295.11 6.303 1.96 9.081 1.04 1.563 2.02 3.163 2.986 4.77.346.575.685.678 1.304.413.76-.325 1.57-.517 2.448-.79-1.371-4.23-1.932-8.388.191-12.552.17 1.842.332 3.685.501 5.528.14.022.28.037.42.059.318-1.054.694-2.1.944-3.17 1.143-4.953.53-9.862-.287-14.794-.384-2.292-.553-4.621-.715-6.95.236.058.464.14.7.191.14.037.28.059.42.088.015.627.052 1.246.103 1.865.347 4.07 1.017 8.116 1.54 12.17.436 3.376.03 6.664-1.348 9.767-1.194 2.683-.973 5.071.796 7.416 1.01 1.341 3.361 4.474 4.224 5.919.36.64.825 1.658-.31 1.806Zm6.752-61.683c-.929-.582-1.998-.973-3.03-1.326C46.692.32 39.631.144 39.535.144c-3.317.096-6.531.715-9.62 1.953-.272.111-.692-.051-1.039-.14-1.128-.31-2.24-.693-3.39-.958-.708-.162-1.173.2-1.224.98a21.73 21.73 0 0 1-.074.774c-.848.207-1.622.398-2.396.575-.199.052-.383.14-.553.251l-.11.074v.022c.184-.074.427.007.715.066.265.044.818.2.884.221 1.35.362 2.698.752 4.032 1.15.244.074.465.266.715.361.494.2.752.096.804-.53.03-.354.295-.804.597-.973 2.521-1.46 5.256-2.256 8.167-2.477.93-.066 8.956.472 9.354 1.975a4.856 4.856 0 0 1-.132 2.654c-.664 1.887-.73 3.656.331 5.41.56.93.354 1.637-.582 2.212-1.26.774-2.285 1.754-2.838 3.214-.118.317-.693.604-1.105.663-1.57.207-3.148.317-4.681.465a3.73 3.73 0 0 0 0 1.216c.177.118.354.228.538.339.339.221.73.376 1.128.464.228.052.45.089.648.133.472.088.93.074 1.379.11.007-.56.022-1.127.022-1.702 2.742-.162 5.3-.288 7.858-.472 1.37-.096 2.852-.177 3.59-1.614 1.046-2.035 2.13-4.077 2.94-6.207 1.187-3.147.192-5.808-2.668-7.6ZM25.493 1.596c.95.376 1.702.67 2.587 1.017-1.305.752-2.233.406-2.587-1.017Zm23.573 5.322c.287-.427.693-.641 1.201-.56.553.096.914.427 1.047.973.074.287 0 .575-.2.885-.065-.14-.095-.222-.132-.295-.118-.229-.287-.34-.471-.31a.527.527 0 0 0-.45.487c-.015.095 0 .206-.015.31-.03.294-.228.405-.508.272-.612-.288-.87-1.194-.472-1.762Zm1.194 10.74s-1.157-.206-2.05-1.858c.111.089 1.224.612 3.318 1.062.597.155-1.268.796-1.268.796Z" fill="#97D700"/><path d="M30.933 7.456c2.616.465 5.012-.007 7.275-1.43-.177 1.047-.944 1.54-1.799 1.88-1.872.752-3.722.767-5.476-.45Zm1.127 10.445c-.53 1.136-1.474 3.738-1.113 7.401.037.361.369.634.752.612 1.356-.081 4.43-.442 6.177-1.924a.994.994 0 0 0 .347-.619l.206-1.305a1.01 1.01 0 0 0-.155-.707c-.413-.627-1.636-1.939-5.233-3.774-.361-.185-.819-.037-.98.316Zm16.563 2.366c.155 1.239.244 3.988-1.238 7.386a.714.714 0 0 1-.907.369c-1.267-.465-4.098-1.659-5.3-3.568a.98.98 0 0 1-.14-.685l.207-1.305a1.03 1.03 0 0 1 .368-.634c.583-.48 2.167-1.4 6.177-2.145.398-.066.782.199.833.582Zm-10.26 3.716.383-2.403c.022-.155.177-.266.346-.244l1.747.25c.163.023.28.17.251.325l-.383 2.403c-.022.155-.177.266-.347.244l-1.747-.251a.29.29 0 0 1-.25-.324ZM256.941 11.12a3.06 3.06 0 0 1-3.059-3.059 3.06 3.06 0 0 1 3.059-3.059A3.06 3.06 0 0 1 260 8.06a3.057 3.057 0 0 1-3.059 3.06Zm0-5.433a2.369 2.369 0 0 0-2.366 2.367 2.369 2.369 0 0 0 2.366 2.366 2.369 2.369 0 0 0 2.366-2.366 2.36 2.36 0 0 0-2.366-2.367Z" fill="#97D700"/><path d="M258.172 9.63c0 .016 0 .023-.008.038-.007.007-.014.022-.029.022a.186.186 0 0 1-.074.015c-.029 0-.073.007-.118.007-.044 0-.081 0-.11-.007a.15.15 0 0 1-.067-.015c-.014-.008-.029-.015-.036-.03a.352.352 0 0 1-.023-.051l-.302-.774a3.908 3.908 0 0 0-.11-.244.731.731 0 0 0-.133-.191.554.554 0 0 0-.184-.125.676.676 0 0 0-.258-.045h-.288v1.393c0 .015-.007.023-.015.037-.007.015-.022.015-.036.022a.15.15 0 0 1-.067.015.419.419 0 0 1-.103.008c-.044 0-.074 0-.103-.008-.03-.007-.052-.007-.066-.015-.015-.007-.03-.014-.037-.022-.008-.007-.008-.022-.008-.037v-3.03c0-.065.015-.11.052-.14a.167.167 0 0 1 .11-.036h.693c.081 0 .155 0 .207.007.051.008.103.008.147.015.126.022.236.06.332.103.096.045.177.11.243.177a.676.676 0 0 1 .148.25c.029.097.051.2.051.31a.784.784 0 0 1-.169.523 1.167 1.167 0 0 1-.199.178 1.419 1.419 0 0 1-.258.125.607.607 0 0 1 .147.088c.044.037.081.082.125.133.037.052.074.11.111.177.037.066.066.14.103.221l.295.723c.022.059.037.103.044.125-.007.03-.007.044-.007.059Zm-.649-2.299a.577.577 0 0 0-.088-.324.489.489 0 0 0-.288-.192.426.426 0 0 0-.14-.022c-.051 0-.125-.007-.206-.007h-.369V7.89h.428a.857.857 0 0 0 .295-.044.564.564 0 0 0 .206-.118.48.48 0 0 0 .125-.177.698.698 0 0 0 .037-.221Z" fill="#97D700"/></svg>