<svg width="177" height="45" fill="none" xmlns="http://www.w3.org/2000/svg"><path d="M48.763 23.31c-1.526 0-2.725-.347-3.593-1.034-.868-.688-1.3-1.36-1.3-2.023 0-.21.06-.376.176-.501.115-.126.276-.191.486-.191.221.01.412.125.583.336.165.216.33.472.486.773.156.301.347.597.562.893.221.296.557.547 1.014.753.457.21 1.009.311 1.656.311.823 0 1.49-.216 2.002-.652.517-.432.773-.994.773-1.676 0-.578-.136-1.054-.406-1.426a2.348 2.348 0 0 0-1.06-.808 8.415 8.415 0 0 0-1.44-.406 47.289 47.289 0 0 1-1.585-.346 6.762 6.762 0 0 1-1.45-.512 2.533 2.533 0 0 1-1.06-1.014c-.27-.461-.406-1.049-.406-1.751 0-.994.387-1.806 1.154-2.439.768-.632 1.827-.943 3.167-.943 1.365 0 2.454.3 3.272.903.818.602 1.224 1.245 1.224 1.927 0 .462-.236.693-.712.693a.72.72 0 0 1-.583-.297 3.52 3.52 0 0 1-.426-.712 6.328 6.328 0 0 0-.467-.833c-.185-.276-.477-.517-.878-.713-.401-.195-.893-.296-1.485-.296-.843 0-1.506.221-1.977.658-.477.441-.713.998-.713 1.68 0 .543.136.99.406 1.335.271.347.628.603 1.07.763.44.16.923.296 1.45.407.526.11 1.053.235 1.58.371a7.3 7.3 0 0 1 1.45.547c.442.226.798.577 1.07 1.059.27.482.406 1.074.406 1.781 0 1.019-.427 1.837-1.285 2.449-.858.627-1.912.933-3.161.933Zm6.784-.382v-.036c0-.08.106-.2.312-.366.21-.16.31-.356.31-.592v-9.91c0-.231-.105-.432-.31-.598-.206-.165-.312-.29-.312-.371v-.035c0-.14.116-.206.347-.206h2.167c.231 0 .347.07.347.206v.035c0 .08-.056.16-.166.24-.11.081-.22.181-.331.297a.602.602 0 0 0-.166.431v9.911c0 .23.11.427.332.592.22.16.33.286.33.366v.036c0 .14-.115.21-.346.21h-2.167c-.231 0-.347-.07-.347-.21Zm19.269-1.059c.046.23.176.436.382.617.21.18.31.316.31.406v.036c0 .14-.115.21-.345.21H73.03c-.23 0-.346-.07-.346-.21v-.036c0-.08.105-.215.32-.4.217-.187.297-.392.252-.628l-1.546-8.958-3.472 9.841c-.106.24-.256.366-.452.366-.23 0-.386-.115-.467-.346l-3.558-9.98-1.475 9.077c-.035.23.07.441.311.627s.367.316.367.401v.036c0 .14-.12.21-.367.21h-1.56c-.231 0-.347-.07-.347-.21v-.036c0-.09.106-.23.312-.416.21-.186.33-.386.366-.607l1.686-9.806c.035-.23-.05-.436-.251-.617-.2-.18-.306-.306-.306-.371v-.035c0-.15.09-.226.276-.226h2.308c.186 0 .276.075.276.226v.035c0 .045-.095.166-.286.366-.19.196-.246.407-.165.627l3.09 8.958 3.157-9.028c.07-.21.01-.401-.18-.572-.191-.175-.287-.29-.287-.346v-.035c0-.15.09-.226.276-.226h2.359c.176 0 .26.065.26.19v.05c0 .071-.034.141-.105.217-.07.075-.145.14-.225.2a.668.668 0 0 0-.201.276.788.788 0 0 0-.025.452l1.791 9.665Zm3.122 1.269c-.241 0-.367-.075-.367-.226v-.035c0-.07.106-.185.321-.356.216-.166.322-.366.322-.597v-9.89c0-.212-.106-.402-.322-.573-.215-.176-.32-.301-.32-.381v-.05c0-.141.12-.206.366-.206h3.226c.753 0 1.445.075 2.083.226.637.15 1.214.38 1.726.692a3.36 3.36 0 0 1 1.214 1.26c.296.526.442 1.139.442 1.831 0 1.32-.447 2.339-1.335 3.056-.893.718-2.133 1.074-3.733 1.074h-1.787v2.966c0 .23.11.431.336.597.226.166.337.286.337.356v.035c0 .15-.116.226-.347.226h-2.162v-.005ZM80.4 18.24h1.165c1.063 0 1.907-.27 2.524-.807s.928-1.28.928-2.229c0-1.189-.371-2.102-1.119-2.734-.748-.633-1.656-.949-2.735-.949h-.938c-.301 0-.452.186-.452.557v5.535c.005.422.211.628.627.628Zm7.66 4.899c-.231 0-.347-.07-.347-.211v-.035c0-.09.106-.22.312-.381.21-.161.31-.357.31-.593v-9.89a.723.723 0 0 0-.31-.598c-.206-.155-.312-.28-.312-.37v-.036c0-.14.116-.206.347-.206h2.188c.23 0 .346.07.346.206v.035c0 .09-.11.216-.336.371-.226.156-.337.357-.337.598v9.72c0 .451.186.677.557.677h3.854c.231 0 .442-.1.628-.296a2.16 2.16 0 0 0 .431-.657 3.61 3.61 0 0 1 .366-.658c.14-.195.271-.296.402-.296h.14c.186 0 .251.106.191.311l-.431 1.907c-.06.266-.201.402-.432.402H88.06Zm9.283 0c-.241 0-.366-.07-.366-.211v-.035c0-.08.105-.206.32-.372.216-.165.322-.371.322-.617v-9.86a.686.686 0 0 0-.156-.462 1.74 1.74 0 0 0-.32-.296c-.111-.075-.166-.156-.166-.236V11c0-.126.105-.19.31-.19h7.362c.231 0 .377.124.432.38l.416 1.717c.045.23-.025.346-.205.346h-.086c-.115 0-.246-.09-.391-.271a4.435 4.435 0 0 1-.402-.597 2.32 2.32 0 0 0-.466-.597c-.191-.181-.392-.271-.597-.271h-3.679c-.326 0-.487.195-.487.592v4.356h3.162c.15 0 .276-.05.381-.156a1.04 1.04 0 0 0 .236-.356c.05-.13.111-.251.176-.357.065-.105.135-.155.216-.155h.07c.15 0 .226.1.226.296v2.132c0 .196-.076.297-.226.297h-.07c-.081 0-.156-.05-.216-.156a3.02 3.02 0 0 1-.176-.336.991.991 0 0 0-.236-.336.514.514 0 0 0-.381-.156h-3.162l-.014 4.496c0 .206.055.387.165.527.11.146.271.216.477.216h4.079c.206 0 .407-.09.593-.276.185-.186.331-.392.441-.617.111-.226.236-.432.382-.617.145-.186.281-.277.406-.277h.105c.081 0 .141.036.181.106.04.07.05.15.025.24l-.416 1.752c-.061.266-.211.402-.452.402h-7.813v.005Zm19.355.17c-1.541 0-2.901-.648-4.08-1.942-1.179-1.295-1.771-2.8-1.771-4.512 0-1.816.542-3.301 1.621-4.46 1.083-1.16 2.463-1.737 4.139-1.737 1.275 0 2.379.362 3.322 1.084.944.723 1.416 1.43 1.416 2.128 0 .23-.066.411-.201.547-.136.135-.321.2-.562.2-.231 0-.442-.11-.633-.336a5.757 5.757 0 0 1-.562-.808 10.844 10.844 0 0 0-.632-.943c-.236-.316-.572-.592-1.008-.818-.432-.226-.944-.336-1.536-.336-1.044 0-1.937.431-2.68 1.3-.747.868-1.119 1.972-1.119 3.316 0 1.702.472 3.117 1.415 4.246.944 1.129 2.048 1.69 3.307 1.69.939 0 1.727-.28 2.369-.847a5.462 5.462 0 0 0 1.45-2.033c.105-.185.251-.255.432-.21.185.045.256.19.21.431a5.092 5.092 0 0 1-1.585 2.866c-.858.782-1.962 1.174-3.312 1.174Zm5.951-.171c-.231 0-.346-.07-.346-.21v-.036c0-.08.105-.206.311-.371.206-.166.311-.366.311-.597v-9.89c0-.232-.105-.433-.311-.598-.211-.166-.311-.291-.311-.371v-.035c0-.141.115-.206.346-.206h2.168c.231 0 .346.07.346.206v.035c0 .08-.055.16-.166.24-.11.08-.22.181-.331.296a.604.604 0 0 0-.165.432l-.015 4.441h6.819l-.015-4.44c0-.232-.105-.433-.311-.598-.211-.166-.311-.291-.311-.371v-.035c0-.141.115-.206.346-.206h2.168c.241 0 .366.07.366.206v.035c0 .08-.06.16-.175.24-.116.08-.231.181-.337.296a.604.604 0 0 0-.165.432v9.89c0 .176.055.317.165.432.111.116.221.216.337.296.115.08.175.16.175.241v.035c0 .14-.12.211-.366.211h-2.168c-.231 0-.346-.07-.346-.21v-.036c0-.08.105-.206.311-.371.211-.166.311-.366.311-.597l.015-4.687h-6.799v4.687c0 .175.055.316.165.431.111.116.221.216.331.296.111.08.166.16.166.241v.035c0 .14-.115.211-.346.211h-2.173Zm18.19.172c-1.781 0-3.256-.633-4.426-1.893-1.169-1.26-1.751-2.755-1.751-4.476 0-1.816.567-3.322 1.701-4.511 1.134-1.19 2.585-1.786 4.356-1.786 1.746 0 3.186.627 4.321 1.876 1.134 1.25 1.701 2.76 1.701 4.532 0 1.726-.572 3.201-1.712 4.426-1.139 1.219-2.539 1.831-4.19 1.831Zm.382-.748c1.134 0 2.077-.447 2.83-1.335.753-.893 1.129-1.937 1.129-3.142 0-1.876-.467-3.457-1.405-4.757-.938-1.294-2.133-1.942-3.593-1.942-1.159 0-2.108.427-2.845 1.285-.743.858-1.109 1.927-1.109 3.211 0 1.842.471 3.413 1.415 4.723.933 1.304 2.133 1.956 3.578 1.956Zm6.749.366v-.036c0-.08.106-.2.311-.366.206-.16.311-.356.311-.592v-9.91c0-.231-.105-.432-.311-.598-.21-.165-.311-.29-.311-.371v-.035c0-.14.116-.206.346-.206h2.168c.231 0 .347.07.347.206v.035c0 .08-.056.16-.166.24-.11.081-.221.181-.331.297a.6.6 0 0 0-.166.431v9.911c0 .23.111.427.331.592.221.16.332.286.332.366v.036c0 .14-.116.21-.347.21h-2.168c-.23 0-.346-.07-.346-.21Zm10.258.381c-1.541 0-2.901-.648-4.08-1.942-1.179-1.295-1.772-2.8-1.772-4.512 0-1.816.542-3.301 1.621-4.46 1.084-1.16 2.464-1.737 4.14-1.737 1.275 0 2.379.362 3.322 1.084.944.723 1.415 1.43 1.415 2.128 0 .23-.065.411-.2.547-.136.135-.322.2-.562.2-.231 0-.442-.11-.633-.336a5.757 5.757 0 0 1-.562-.808 10.844 10.844 0 0 0-.632-.943c-.236-.316-.572-.592-1.009-.818-.431-.226-.943-.336-1.535-.336-1.044 0-1.937.431-2.68 1.3-.748.868-1.119 1.972-1.119 3.316 0 1.702.472 3.117 1.415 4.246.944 1.129 2.048 1.69 3.307 1.69.939 0 1.726-.28 2.369-.847a5.462 5.462 0 0 0 1.45-2.033c.105-.185.251-.255.431-.21.186.045.256.19.211.431a5.094 5.094 0 0 1-1.586 2.866c-.853.782-1.957 1.174-3.311 1.174Zm5.956-.17c-.241 0-.367-.07-.367-.211v-.035c0-.08.106-.206.322-.372.215-.165.321-.371.321-.617v-9.86a.683.683 0 0 0-.156-.462 1.74 1.74 0 0 0-.321-.296c-.11-.075-.166-.156-.166-.236V11c0-.126.106-.19.312-.19h7.361c.231 0 .376.124.432.38l.416 1.717c.045.23-.025.346-.211.346h-.085c-.115 0-.246-.09-.391-.271a4.435 4.435 0 0 1-.402-.597 2.302 2.302 0 0 0-.467-.597c-.19-.181-.391-.271-.597-.271h-3.678c-.326 0-.487.195-.487.592v4.356h3.157c.15 0 .276-.05.381-.156.105-.106.181-.22.236-.356.05-.13.11-.251.176-.357.065-.105.135-.155.215-.155h.071c.15 0 .225.1.225.296v2.132c0 .196-.075.297-.225.297h-.071c-.08 0-.155-.05-.215-.156a2.86 2.86 0 0 1-.176-.336 1.005 1.005 0 0 0-.236-.336.514.514 0 0 0-.381-.156h-3.157l-.015 4.496c0 .206.055.387.166.527.11.146.271.216.477.216h4.079c.211 0 .407-.09.592-.276a2.27 2.27 0 0 0 .442-.617c.11-.226.236-.432.381-.617.146-.186.281-.277.407-.277h.105c.081 0 .141.036.181.106.04.07.05.15.025.24l-.417 1.752c-.06.266-.21.402-.451.402h-7.808v.005ZM99.466 33.957c.451-.973.446-1.751-.01-2.243-.246-.256-.643-.381-1.18-.381h-.08c-1.335.03-3.181.803-4.32 1.55a30.695 30.695 0 0 0-3.217 2.44 163.47 163.47 0 0 0 3.598-4.853l.065-.09-.09-.06.01-.337-.422.07h-.035l-.02.03c-.01.01-.115.146-.236.311-.702.974-2.84 3.935-5.264 6.945-3.608 3.348-5.84 6.358-5.85 6.378a.347.347 0 0 0-.046.261c.015.07.05.126.096.156l.145.095h.065l.18-.06.02-.015c1.853-1.54 4.196-4.31 5.832-6.358 1.917-1.766 3.723-3.196 5.525-4.37 1.244-.834 2.88-1.43 3.98-1.456h.075c.336 0 .582.065.697.18.341.372.14 1.044-.09 1.546-1.205 2.64-5.841 6.62-9.766 6.71-.145 0-.275 0-.39-.005-.116-.016-.302-.076-.372-.151l.025-.306v-.07l-.276-.181-.04-.03-.251.145-.025.06a.765.765 0 0 0-.005.678c.13.246.421.412.898.502l.431.005c4.18-.116 9.083-4.316 10.343-7.096Zm-19.917 4.516a.79.79 0 1 0 .035 1.581.786.786 0 0 0 .768-.808.78.78 0 0 0-.803-.773Zm1.481-4.862c.04-.155.01-.366-.362-.502l-.03-.005c-.382.01-1.29.593-2.775 1.792-1.992.075-2.359.306-2.46.527a.314.314 0 0 0 .02.24c.051.1.141.181.252.216l.03.01.27-.115c.066-.045.377-.095.628-.13.14-.02.286-.046.417-.066-.392.331-.989.843-1.616 1.415-.758.201-1.53.392-2.288.572-1.41.337-2.846.683-4.23 1.135-.111-.492-.497-.879-.849-1.225l-.1-.105c-.136-.136-.301-.286-.477-.452-.31-.286-.672-.617-.978-.973 2.092-.999 6.323-3.182 6.473-4.592.025-.266-.08-.492-.321-.672-.838-.638-2.795.276-3.849.767-.15.07-.286.13-.391.181l-.05.02c-1.095.482-3.137 1.38-3.172 2.845-.01.422.14.803.386 1.164-4.044 1.767-7.868 2.635-11.842 2.705a.3.3 0 0 0-.296.316c0 .146.105.296.29.296h.006A30.374 30.374 0 0 0 65.97 36.18c.246.271.527.532.803.788.692.643 1.35 1.26 1.435 1.952-1.546.552-3.016 1.265-4.31 2.288l-.08.06c-.498.392-1.536 1.205-1.622 1.958-.02.22.04.421.18.592.207.246.478.346.779.346.913 0 2.092-.918 2.62-1.33l.175-.135c.983-.763 2.584-1.997 2.91-3.317 1.48-.522 3.031-.893 4.527-1.26.36-.085.727-.18 1.094-.27a17.57 17.57 0 0 0-1.014 1.068l-.231.281-.442.567c-.266.377-.411.668-.28.949.13.276.441.3.607.3h.06l.236-.024c.582-.08 2.328-.587 3.558-1.13.145-.075.25-.265.16-.45l-.01-.026-.276-.145-.08-.01-.035.004c-1.17.512-2.876 1.034-3.408 1.084l-.145.025c.11-.165.376-.496.793-.988.135-.16.29-.321.481-.522l.1-.105c1.25-.763 3.097-2.093 4.412-3.172l1.71.02c.176-.005.322-.145.352-.346 0-.095-.04-.18-.105-.24a.318.318 0 0 0-.231-.091h-.01l-.974.07c1.245-1.029 1.3-1.27 1.32-1.36ZM64.88 41.25c1.03-.678 2.214-1.195 3.177-1.566-.34.693-1.094 1.35-1.7 1.877l-.362.316c-.577.522-1.927 1.736-2.63 1.606-.225-.04-.35-.126-.37-.241-.101-.497 1.349-1.636 1.886-1.992Zm3.243-8.822.115-.055c1.16-.557 2.158-.924 3.056-1.13.176-.04.336-.06.477-.06.21 0 .366.046.421.13.06.096 0 .267-.17.488-.327.421-.773.762-1.205 1.073-.793.578-1.676 1.034-2.529 1.47l-.125.066a46.05 46.05 0 0 1-2.078 1.009c-.19-.306-.316-.618-.306-.924.035-.973 1.54-1.686 2.344-2.067Zm90.085 6.538c-.899.587-1.982.692-3.031.582-.397-.04-.768-.166-1.154-.22-.407-.056-.733.07-1.124.13-.271.04-.176.12-.231-.026-.03-.085.035-.215.005-.316-.055-.18-.181-.28-.367-.316-.471-.08-1.992 1.064-2.228.733-.065-.09.231-.743.231-.878.005-.181-.03-.337-.16-.472-.296-.301-.813-.17-1.175-.075-.843.22-1.651.617-2.448.963-.693.296-1.385.582-2.083.858l1.616-1.365.341-.426-.256-.276c-.07-.106-.211-.221-.562-.211-.045 0-.095.005-.145.01-.623.09-1.576.296-2.218.688-.01 0-.005-.01-.015-.01-.01 0-.02 0-.036.005-.908.346-3.487 1.249-4.651 1.38.155-.271 1.239-1.044 2.333-1.656.131-.106.166-.236.111-.337l-.261-.195h-.061c-.386.08-.798.11-1.018.175-.081-.31-.321-.587-.517-.682l-.432.035c-.216.17-.14.457-.085.662.055.166.166.261.261.256.025 0 .055-.01.075-.025-.206.156-.627.316-1.109.502 0 0 0 .005-.005.005-.145.06-3.693 1.224-5.389 1.26l-.377.065c.015-.116.281-.427 1.42-1.23.226-.14.462-.286.317-.532l-.196-.145h-.045c-.106 0-.216.065-.351.15-1.094.583-3.373 1.787-3.905 1.892.041-.155.352-.572 1.255-1.164.156-.09.271-.186.401-.291l.226-.19-.05-.06.125-.327-.381-.055-.291.2c-.085.07-.196.161-.351.251-.181.12-.331.241-.482.357-.005 0-.005-.005-.01-.005h-.03c-1.802.557-3.066.782-3.809 1.043.361-.23.848-.597 1.119-1.053.156-.332.096-.648-.155-.808-.161-.12-.402-.181-.693-.176-.632.015-1.45.331-2.198 1.004.246-.261.447-.447.723-.718.778-.326 7.642-3.232 7.743-5.179a.49.49 0 0 0-.261-.491l-.281-.05c-1.205.03-4.516 2.343-7.703 5.414-.211.196-.612.582-1.134 1.17-.025.004-.08.02-.306.09-.387.13-1.114.366-1.912.607-.251.07-.527.135-.813.2l-.547.216c-.065-.341-.482-.431-.808-.507-.211-.055-.421-.13-.441-.135-.005-.04.1-.206.381-.377.482-.32 1.239-.577 1.751-.592.186-.005.326.025.387.086l.411-.005a.293.293 0 0 0-.01-.387c-.171-.18-.452-.266-.828-.26-.617.014-1.445.295-2.017.682-.281.18-.427.341-.522.492h-.005c-.908.346-3.488 1.25-4.652 1.38.156-.272 1.24-1.044 2.334-1.656.13-.106.17-.236.11-.337l-.261-.195h-.06c-.387.08-.798.11-1.019.175-.08-.31-.321-.587-.517-.682l-.431.035c-.216.17-.141.457-.086.662.056.166.166.261.261.256.025 0 .056-.01.076-.025-.206.156-.623.316-1.104.502-2.519.898-4.682 1.264-5.52 1.285h-.005c-.382-.02-.633-.136-.582-.397.14-.19.441-.401.757-.572.256.1.603.15.979.14.457-.01.888-.105 1.169-.265.487-.281.467-.562.417-.703-.046-.145-.191-.306-.853-.29h-.091c-.341.03-1.028.225-1.731.556a4.584 4.584 0 0 0-.667.382h-.015c-1.32.577-3.247 1.164-3.844 1.219l-.337.065c-.025-.08.271-.472.974-1.3.181-.21.386-.426.662-.717 1.365-.833 3.478-2.344 4.973-3.583l1.952.025c.146-.005.276-.12.301-.291a.282.282 0 0 0-.291-.281l-1.39.1c1.586-1.3 1.656-1.585 1.681-1.676.051-.195-.06-.346-.351-.451-.406.01-1.425.672-3.076 2.007-2.253.08-2.619.336-2.7.527-.05.125.04.326.246.396l.251-.105c.181-.136 1.26-.19 1.616-.346-.688.572-3.036 2.559-4.301 4.03-.16.19-.271.325-.391.48-.01 0-.005-.01-.015-.01h-.03c-2.524.904-4.682 1.265-5.52 1.285h-.005c-.382-.02-.632-.135-.582-.396.14-.19.441-.401.758-.572.255.1.602.15.978.14.457-.01.888-.105 1.17-.266.486-.28.466-.562.416-.702-.045-.146-.19-.306-.853-.291h-.09c-.342.03-1.03.226-1.732.557-.542.26-.913.527-1.099.788-.3.371-.196.657-.16.758.15.33.582.516 1.284.552h.005c.648-.016 2.48-.292 4.918-1.09-.171.297-.196.487-.11.678.125.266.431.291.657.286l.261-.025c.527-.07 1.917-.467 3.161-.944a.67.67 0 0 0 .035.307c.151.33.583.517 1.285.552h.005c.713-.016 2.815-.312 5.63-1.315v-.005a8.22 8.22 0 0 0 .889-.382c-.718.522-1.029.904-.974 1.19.03.13.136.306.457.371l.276-.005c1.084-.025 3.317-.793 4.471-1.21.12.207.376.302.778.417.115.025.225.05.21.05l-.09-.015c-1.335.271-1.47.301-1.465.623l.145.286.055.015c.041.01.171.045.327.04.376-.01.938-.2 1.37-.472a15.905 15.905 0 0 0 1.901-.441c.507-.146.964-.291 1.395-.432-.135.166-.26.316-.406.507l.015.396.171.066h.025l.206-.08c1.625-1.667 3.02-2.279 3.788-2.294.156-.005.281.02.331.155-.286.537-1.144 1.04-1.947 1.325-.652.04-1.008.075-1.249.331l.055.05-.05.357c.065.06.155.095.386.09.06 0 .131-.005.206-.015.246-.025.552-.115.948-.276.663-.065 1.998-.216 4.085-.788-.145.211-.241.402-.216.552.005.16.111.306.271.372l.231.02c.432-.01 1.215-.311 2.514-1.134-.216.256-.291.461-.231.677.046.156.191.346.638.371l.291.005c1.806-.04 5.384-1.219 5.6-1.304.311-.12.627-.246.888-.377-.717.522-1.029.904-.973 1.19.03.13.135.306.456.371l.276-.005c.924-.02 2.68-.582 3.904-1.009-.025.171-.025.352.045.527.101.241.317.367.613.362a.653.653 0 0 0 .266-.056l-1.019.873c-3.051 1.275-4.767 2.113-5.118 2.921-.066.19-.221.637.12.873l.266.08c.361-.01 1.224-.33 4.591-3.045l.412-.347.321-.27c1.124-.377 2.213-.829 3.302-1.29.898-.387 1.807-.848 2.755-1.094.105-.025.391-.14.492-.086.14.076.02.026.03.216.015.281-.231.567-.206.873.045.623.652.577 1.109.422.412-.14.798-.357 1.194-.532.136-.06.251-.075.306-.136-.02.08-.045.161-.03.231.136.653.939.352 1.37.266.783-.15 1.732.246 2.545.241.908-.005 1.801-.2 2.569-.702.326-.181.025-.703-.301-.492Zm-18.748-.763.266-.125c-.115.07-.226.14-.326.21.02-.03.04-.06.06-.085Zm-7.597-5.535.015.065c-.055 1.054-3.468 2.926-6.288 4.336 3.307-2.99 5.756-4.31 6.273-4.326v-.075Zm-17.804 6.117.266-.125c-.116.07-.226.14-.327.21.02-.025.046-.055.061-.085Zm-5.134-.045c-.035.02-.115.025-.161.04l-.01-.065.171.025Zm.487-5.134c-.251.211-.532.452-.843.713l.05.06-.326.05c.401-.3.778-.587 1.119-.823Zm-1.666 1.275.276-.125c-.627.476-1.315.993-1.972 1.545.522-.446 1.696-1.42 1.696-1.42Zm-9.028 4.09c-.035.02-.115.025-.16.04l-.01-.065.17.025Zm39.101 5.249s.005-.07.106-.276c.105-.261.697-.768 2.87-1.757-2.163 1.681-2.825 1.957-2.976 2.033Zm5.329-4.737h-.015c-.05-.156-.045-.236.03-.337.121-.225.598-.642 2.379-.943l.03-.005c-.527.411-1.791 1.27-2.424 1.285ZM31.365 43.768c-.18.025-.336.27-.497.421-.416.387-1.761-.15-2.152.261-.527.557-1.486.221-2.093-.356-.652-.612-1.16-1.385-1.706-2.103-.326-.431-.612-.893-.954-1.395-.582.457-1.088.853-1.64 1.29.491.25 1.395.502 1.796.748.351.215.552.547.562.893a.956.956 0 0 1-.105.462c-.156.306-1.044.536-1.4.542-5.164.025-10.433.185-15.587-.06-6.654-.317-8.796-6.745-6.96-11.447.944-2.414 2.52-4.356 4.436-6.047.146-.125.256-.24.337-.346.225-.17 3.884-3.708 4.626-4.541 3.85-4.286 5.947-9.299 6.157-15.08.026-.647-.145-1.069-.732-1.405-.778-.441-1.31-1.129-1.35-2.067a1.89 1.89 0 0 1 .13-.713c.035-.1.076-.2.12-.306.046.176.101.346.156.507.537 1.5 1.586 2.419 3.262 2.76-.085.206-.11.461-.216.507-.737.29-.652.938-.682 1.515-.321 6.127-2.695 11.326-7.045 15.631-.808.798-4.391 4.226-4.738 4.582-1.87 1.922-3.507 4.024-4.205 6.669-.808 3.081.989 8.345 5.771 8.842 1.656.17 3.327.23 4.988.29.366.016.783-.13 1.11-.32a98.427 98.427 0 0 0 3.878-2.349c.16-.1.25-.456.226-.672-.1-.873-.402-1.746-.367-2.61.126-3.412-2.744-5.846-5.7-6.292-1.465-.221-2.85-.035-4.24.341-.211.055-.432.1-.673.065.858-.773 1.912-1.069 2.996-1.234 3.884-.592 7.372 1.716 8.38 5.515.246.928.402 1.887.708 2.8a3.352 3.352 0 0 0 3.512 2.288c.653-.06 1.03-.316 1.054-1.069.035-1.119-.336-2.082-1.053-2.86-1.993-2.158-2.178-4.752-1.927-7.462.065-.718.28-1.425.446-2.133.035-.155.156-.29.236-.431.075.005.15.015.226.02.04.727.195 1.47.1 2.178-.316 2.243.075 4.29 1.335 6.182a83.653 83.653 0 0 1 2.032 3.247c.236.391.467.461.889.28.516-.22 1.068-.35 1.665-.536-.933-2.88-1.314-5.71.131-8.546.115 1.254.226 2.509.341 3.763.096.015.19.026.286.04.216-.717.472-1.43.643-2.157.777-3.372.36-6.714-.196-10.072-.261-1.56-.377-3.146-.487-4.731.16.04.316.095.477.13.095.025.19.04.286.06.01.427.035.848.07 1.27.236 2.77.693 5.525 1.049 8.285.296 2.298.02 4.536-.918 6.649-.813 1.826-.663 3.452.542 5.048.687.913 2.288 3.046 2.875 4.03.246.436.562 1.128-.21 1.229Zm4.597-41.992c-.633-.396-1.36-.662-2.063-.903C31.786.12 26.98 0 26.914 0c-2.258.065-4.446.487-6.549 1.33-.185.075-.471-.035-.707-.096-.768-.21-1.526-.471-2.309-.652-.481-.11-.797.136-.832.668-.016.195-.036.396-.05.526-.578.14-1.105.271-1.632.392a1.29 1.29 0 0 0-.376.17l-.075.05v.016c.125-.05.29.005.486.045.181.03.558.135.603.15.918.246 1.836.512 2.745.783.165.05.316.18.486.246.337.136.512.065.547-.361.02-.241.201-.547.407-.663 1.716-.993 3.578-1.535 5.56-1.686.632-.045 6.097.321 6.368 1.345a3.32 3.32 0 0 1-.09 1.807c-.452 1.284-.497 2.489.225 3.683.382.632.241 1.114-.396 1.505-.858.527-1.556 1.195-1.932 2.188-.08.216-.472.412-.753.452-1.069.14-2.143.216-3.186.316a2.539 2.539 0 0 0 0 .828c.12.08.24.156.366.23.23.151.497.257.768.317.155.035.306.06.441.09.322.06.633.05.939.076.005-.382.015-.768.015-1.16 1.866-.11 3.608-.195 5.35-.32.932-.066 1.941-.121 2.443-1.1.712-1.385 1.45-2.775 2.002-4.225.808-2.143.13-3.954-1.816-5.174ZM17.354.99l1.762.692c-.888.512-1.52.276-1.761-.692Zm16.048 3.623c.196-.291.472-.437.818-.382.377.065.623.291.713.663.05.195 0 .391-.136.602-.045-.096-.065-.15-.09-.2-.08-.156-.196-.232-.321-.212a.358.358 0 0 0-.306.332c-.01.065 0 .14-.01.21-.02.201-.156.276-.346.186-.417-.196-.593-.813-.322-1.2Zm.813 7.311s-.788-.14-1.395-1.265c.075.06.833.417 2.258.723.407.105-.863.542-.863.542Z" fill="#003057"/><path d="M21.058 4.978c1.782.316 3.412-.005 4.953-.974-.12.713-.642 1.05-1.224 1.28-1.275.512-2.535.522-3.729-.306Zm.768 7.111c-.362.773-1.004 2.544-.758 5.038.025.246.25.432.512.417.923-.056 3.016-.302 4.205-1.31.13-.11.21-.256.236-.422l.14-.888a.687.687 0 0 0-.105-.482c-.281-.426-1.114-1.32-3.563-2.569-.246-.125-.557-.025-.667.216ZM33.101 13.7c.106.842.166 2.714-.843 5.027a.486.486 0 0 1-.617.251c-.863-.316-2.79-1.129-3.608-2.429a.668.668 0 0 1-.095-.466l.14-.888a.697.697 0 0 1 .251-.432c.396-.326 1.475-.953 4.205-1.46.271-.045.532.135.567.396Zm-6.985 2.529.261-1.636c.015-.106.12-.18.236-.166l1.19.17c.11.016.19.116.17.222l-.261 1.635c-.015.106-.12.181-.236.166l-1.19-.17a.197.197 0 0 1-.17-.221Zm148.801-8.757a2.083 2.083 0 0 1 0-4.165 2.084 2.084 0 0 1 0 4.165Zm0-3.698a1.612 1.612 0 0 0 0 3.221c.889 0 1.611-.722 1.611-1.61a1.606 1.606 0 0 0-1.611-1.611Z" fill="#003057"/><path d="M175.756 6.458c0 .01 0 .015-.005.025-.005.005-.01.015-.02.015a.127.127 0 0 1-.051.01c-.02 0-.05.005-.08.005s-.055 0-.075-.005a.1.1 0 0 1-.045-.01c-.01-.005-.02-.01-.025-.02a.245.245 0 0 1-.015-.035l-.206-.527a2.657 2.657 0 0 0-.075-.166.53.53 0 0 0-.091-.13.37.37 0 0 0-.125-.085.461.461 0 0 0-.176-.03h-.196v.948c0 .01-.005.015-.01.025-.005.01-.015.01-.025.015a.1.1 0 0 1-.045.01c-.02.005-.04.005-.07.005-.03 0-.05 0-.07-.005-.02-.005-.035-.005-.046-.01a.11.11 0 0 1-.025-.015c-.005-.005-.005-.015-.005-.025V4.39c0-.045.01-.075.036-.095a.113.113 0 0 1 .075-.025h.471c.056 0 .106 0 .141.005.035.005.07.005.1.01a.91.91 0 0 1 .226.07.59.59 0 0 1 .166.12c.045.05.08.106.1.171.02.066.035.136.035.211 0 .075-.01.14-.03.2a.517.517 0 0 1-.221.277.945.945 0 0 1-.175.085c.035.015.07.035.1.06.03.025.055.056.085.09.025.036.051.076.076.121s.045.095.07.15l.201.492.03.086c-.005.02-.005.03-.005.04Zm-.442-1.566c0-.085-.02-.16-.06-.22a.33.33 0 0 0-.196-.131.29.29 0 0 0-.095-.015c-.035 0-.085-.005-.141-.005h-.251v.753h.291c.081 0 .146-.01.201-.03a.385.385 0 0 0 .141-.08.331.331 0 0 0 .085-.121.475.475 0 0 0 .025-.15Z" fill="#003057"/></svg>