<svg width="184" height="32" fill="none" xmlns="http://www.w3.org/2000/svg"><path d="M13.81 2.19 2.19 13.81a3.097 3.097 0 0 0 0 4.38l11.62 11.62a3.097 3.097 0 0 0 4.38 0l11.62-11.62a3.097 3.097 0 0 0 0-4.38L18.19 2.19a3.097 3.097 0 0 0-4.38 0Z" fill="#003057"/><path d="M16.035 25.163a9.163 9.163 0 1 0 0-18.327 9.163 9.163 0 0 0 0 18.327Z" fill="#EAE8E6"/><path d="M18.746 10.273h-5.342a3.097 3.097 0 0 0-3.096 3.097v5.342a3.097 3.097 0 0 0 3.096 3.097h5.342a3.097 3.097 0 0 0 3.097-3.097V13.37a3.097 3.097 0 0 0-3.097-3.097Z" fill="#003057"/><path d="M16.02 19.978a3.993 3.993 0 1 0 0-7.986 3.993 3.993 0 0 0 0 7.986Z" fill="#EAE8E6"/><path d="m15.42 14.9-.37.37a1.032 1.032 0 0 0 0 1.46l.37.37a1.032 1.032 0 0 0 1.46 0l.37-.37a1.032 1.032 0 0 0 0-1.46l-.37-.37a1.032 1.032 0 0 0-1.46 0Zm35.238 6.6-3.078-4.194h-1.782V21.5h-2.43V9.62h4.464c.828 0 1.566.162 2.214.486a3.518 3.518 0 0 1 1.512 1.35c.372.576.558 1.242.558 1.998s-.186 1.428-.558 2.016a3.759 3.759 0 0 1-1.53 1.368l3.366 4.662h-2.736Zm-4.86-6.336h2.034c.564 0 1.002-.156 1.314-.468.324-.312.486-.726.486-1.242 0-.504-.162-.912-.486-1.224-.324-.312-.762-.468-1.314-.468h-2.034v3.402Zm17.568 2.7H57.12c.144.564.432 1.002.864 1.314.444.3.99.45 1.638.45.876 0 1.704-.3 2.484-.9l1.008 1.656c-1.056.888-2.244 1.332-3.564 1.332-.924 0-1.758-.204-2.502-.612a4.507 4.507 0 0 1-1.746-1.674 4.63 4.63 0 0 1-.63-2.376c0-.864.204-1.65.612-2.358a4.445 4.445 0 0 1 1.674-1.692 4.736 4.736 0 0 1 2.376-.612c.816 0 1.542.186 2.178.558a3.76 3.76 0 0 1 1.476 1.494c.36.624.54 1.32.54 2.088 0 .432-.054.876-.162 1.332Zm-4.122-3.51c-.516 0-.966.162-1.35.486-.384.324-.642.762-.774 1.314h4.05c-.012-.552-.204-.99-.576-1.314-.372-.324-.822-.486-1.35-.486Zm15.81-1.764v12.15h-2.43v-4.104a3.356 3.356 0 0 1-1.17.81c-.456.18-.954.27-1.494.27-.828 0-1.572-.204-2.232-.612a4.297 4.297 0 0 1-1.53-1.674c-.372-.708-.558-1.506-.558-2.394 0-.888.186-1.68.558-2.376a4.165 4.165 0 0 1 1.53-1.656c.66-.408 1.404-.612 2.232-.612.612 0 1.164.114 1.656.342.504.228.906.552 1.206.972V12.59h2.232Zm-4.644 6.912c.612 0 1.14-.21 1.584-.63.444-.432.666-1.044.666-1.836 0-.804-.222-1.41-.666-1.818a2.226 2.226 0 0 0-1.584-.63c-.66 0-1.212.228-1.656.684-.432.444-.648 1.038-.648 1.782 0 .732.222 1.326.666 1.782.444.444.99.666 1.638.666Zm11.806 2.214c-.78 0-1.488-.168-2.124-.504a3.829 3.829 0 0 1-1.476-1.458c-.348-.624-.522-1.35-.522-2.178V12.59h2.43v5.184c0 .516.156.93.468 1.242.324.312.732.468 1.224.468.468 0 .858-.156 1.17-.468.324-.312.486-.726.486-1.242V12.59h2.43v4.986c0 .828-.18 1.554-.54 2.178a3.704 3.704 0 0 1-1.458 1.458c-.624.336-1.32.504-2.088.504Zm15.32-3.852H91.29c.144.564.432 1.002.864 1.314.444.3.99.45 1.638.45.876 0 1.704-.3 2.484-.9l1.008 1.656c-1.056.888-2.244 1.332-3.564 1.332-.924 0-1.758-.204-2.502-.612a4.507 4.507 0 0 1-1.746-1.674 4.63 4.63 0 0 1-.63-2.376c0-.864.204-1.65.612-2.358a4.445 4.445 0 0 1 1.674-1.692 4.736 4.736 0 0 1 2.376-.612c.816 0 1.542.186 2.178.558a3.76 3.76 0 0 1 1.476 1.494c.36.624.54 1.32.54 2.088 0 .432-.054.876-.162 1.332Zm-4.122-3.51c-.516 0-.966.162-1.35.486-.384.324-.642.762-.774 1.314h4.05c-.012-.552-.204-.99-.576-1.314-.372-.324-.822-.486-1.35-.486Zm9.78 7.362c-.78 0-1.488-.15-2.124-.45a4.305 4.305 0 0 1-1.566-1.278l1.224-1.476c.78.804 1.614 1.206 2.502 1.206.324 0 .594-.06.81-.18a.62.62 0 0 0 .324-.558.485.485 0 0 0-.216-.432c-.132-.108-.366-.234-.702-.378l-.954-.396c-.816-.336-1.428-.708-1.836-1.116-.396-.408-.594-.942-.594-1.602 0-.84.3-1.494.9-1.962.612-.468 1.404-.702 2.376-.702 1.332 0 2.4.444 3.204 1.332l-1.224 1.494c-.6-.564-1.266-.846-1.998-.846-.3 0-.534.054-.702.162a.523.523 0 0 0-.252.468c0 .168.066.306.198.414.144.108.39.234.738.378l.864.36c.864.348 1.494.726 1.89 1.134.408.396.612.924.612 1.584 0 .888-.33 1.584-.99 2.088-.648.504-1.476.756-2.484.756Zm11.755-2.25V21.5a6.893 6.893 0 0 1-1.674.216c-1.128 0-2.004-.276-2.628-.828-.624-.564-.936-1.404-.936-2.52v-3.726h-1.404V12.59h1.404v-2.25h2.43v2.25h2.52v2.052h-2.52v3.51c0 .504.132.864.396 1.08.264.204.684.306 1.26.306.144 0 .528-.024 1.152-.072Zm8.411-9.846h3.888c1.26 0 2.382.246 3.366.738s1.746 1.182 2.286 2.07c.552.888.828 1.92.828 3.096 0 1.152-.276 2.184-.828 3.096-.54.9-1.302 1.608-2.286 2.124-.984.504-2.106.756-3.366.756h-3.888V9.62Zm3.87 9.684c.792 0 1.488-.156 2.088-.468a3.308 3.308 0 0 0 1.404-1.314c.336-.576.504-1.242.504-1.998 0-1.152-.366-2.058-1.098-2.718-.72-.66-1.686-.99-2.898-.99h-1.44v7.488h1.44Zm17.306-1.44h-6.246c.144.564.432 1.002.864 1.314.444.3.99.45 1.638.45.876 0 1.704-.3 2.484-.9l1.008 1.656c-1.056.888-2.244 1.332-3.564 1.332-.924 0-1.758-.204-2.502-.612a4.507 4.507 0 0 1-1.746-1.674 4.63 4.63 0 0 1-.63-2.376c0-.864.204-1.65.612-2.358a4.445 4.445 0 0 1 1.674-1.692 4.736 4.736 0 0 1 2.376-.612c.816 0 1.542.186 2.178.558a3.76 3.76 0 0 1 1.476 1.494c.36.624.54 1.32.54 2.088 0 .432-.054.876-.162 1.332Zm-4.122-3.51c-.516 0-.966.162-1.35.486-.384.324-.642.762-.774 1.314h4.05c-.012-.552-.204-.99-.576-1.314-.372-.324-.822-.486-1.35-.486Zm9.78 7.362c-.78 0-1.488-.15-2.124-.45a4.305 4.305 0 0 1-1.566-1.278l1.224-1.476c.78.804 1.614 1.206 2.502 1.206.324 0 .594-.06.81-.18a.62.62 0 0 0 .324-.558.485.485 0 0 0-.216-.432c-.132-.108-.366-.234-.702-.378l-.954-.396c-.816-.336-1.428-.708-1.836-1.116-.396-.408-.594-.942-.594-1.602 0-.84.3-1.494.9-1.962.612-.468 1.404-.702 2.376-.702 1.332 0 2.4.444 3.204 1.332l-1.224 1.494c-.6-.564-1.266-.846-1.998-.846-.3 0-.534.054-.702.162a.523.523 0 0 0-.252.468c0 .168.066.306.198.414.144.108.39.234.738.378l.864.36c.864.348 1.494.726 1.89 1.134.408.396.612.924.612 1.584 0 .888-.33 1.584-.99 2.088-.648.504-1.476.756-2.484.756Zm6.032-9.126h2.43v8.91h-2.43v-8.91Zm1.206-1.746c-.432 0-.798-.144-1.098-.432-.3-.288-.45-.642-.45-1.062 0-.432.15-.792.45-1.08.3-.288.666-.432 1.098-.432.432 0 .798.144 1.098.432.312.288.468.648.468 1.08 0 .42-.156.774-.468 1.062-.3.288-.666.432-1.098.432Zm13.294 1.746v7.92c0 1.452-.42 2.556-1.26 3.312-.84.756-1.956 1.134-3.348 1.134-1.68 0-3.138-.552-4.374-1.656l1.278-1.692c.492.372.96.654 1.404.846.456.204.954.306 1.494.306.72 0 1.296-.18 1.728-.54.432-.348.648-.87.648-1.566v-.486c-.324.348-.72.612-1.188.792-.456.18-.966.27-1.53.27-.816 0-1.548-.186-2.196-.558a4.001 4.001 0 0 1-1.53-1.566c-.36-.672-.54-1.44-.54-2.304 0-.876.186-1.644.558-2.304a3.877 3.877 0 0 1 1.53-1.548c.648-.372 1.374-.558 2.178-.558.636 0 1.2.114 1.692.342.504.228.912.552 1.224.972V12.59h2.232Zm-4.644 6.588c.612 0 1.14-.21 1.584-.63.444-.42.666-1.014.666-1.782s-.222-1.344-.666-1.728c-.432-.384-.96-.576-1.584-.576-.66 0-1.212.21-1.656.63-.432.408-.648.972-.648 1.692s.222 1.302.666 1.746c.444.432.99.648 1.638.648Zm12.615-6.786c1.032 0 1.848.33 2.448.99.6.648.9 1.512.9 2.592V21.5h-2.412v-5.202c0-.516-.156-.93-.468-1.242-.3-.324-.696-.486-1.188-.486s-.9.162-1.224.486c-.312.312-.468.726-.468 1.242V21.5h-2.43v-8.91h2.232v.81c.312-.312.69-.558 1.134-.738.456-.18.948-.27 1.476-.27Z" fill="#003057"/></svg>