<svg width="1722" height="169" fill="none" xmlns="http://www.w3.org/2000/svg"><path d="M65.78 169c-20.354 0-36.356-4.62-47.939-13.793C6.258 146.034.5 137.063.5 128.225c0-2.812.803-5.022 2.343-6.696 1.54-1.674 3.683-2.544 6.495-2.544 2.946.134 5.49 1.674 7.767 4.486 2.209 2.879 4.418 6.294 6.494 10.311 2.076 4.017 4.62 7.967 7.499 11.918 2.946 3.95 7.432 7.298 13.525 10.043 6.093 2.812 13.457 4.151 22.094 4.151 10.98 0 19.886-2.879 26.715-8.704 6.896-5.758 10.311-13.257 10.311-22.363 0-7.699-1.808-14.06-5.423-19.015-3.616-4.954-8.37-8.503-14.127-10.78-5.758-2.209-12.186-4.084-19.216-5.423a632.011 632.011 0 0 1-21.158-4.62c-7.097-1.673-13.525-3.95-19.35-6.829-5.758-2.879-10.511-7.365-14.127-13.525C6.727 62.475 4.92 54.642 4.92 45.27c0-13.257 5.155-24.104 15.4-32.54C30.561 4.293 44.688.142 62.565.142c18.212 0 32.74 4.017 43.654 12.051 10.914 8.035 16.337 16.605 16.337 25.71 0 6.16-3.147 9.24-9.507 9.24-3.08 0-5.691-1.339-7.767-3.95-2.076-2.611-3.95-5.758-5.691-9.508-1.674-3.682-3.817-7.431-6.227-11.114-2.477-3.682-6.36-6.896-11.717-9.507-5.356-2.611-11.917-3.95-19.818-3.95-11.248 0-20.086 2.945-26.38 8.77-6.36 5.892-9.508 13.324-9.508 22.43 0 7.231 1.808 13.19 5.424 17.81 3.615 4.62 8.369 8.034 14.26 10.177 5.893 2.142 12.32 3.95 19.35 5.423 7.03 1.473 14.061 3.147 21.091 4.955 7.03 1.874 13.458 4.285 19.35 7.297 5.892 3.013 10.646 7.7 14.261 14.128 3.616 6.428 5.423 14.328 5.423 23.769 0 13.591-5.691 24.505-17.14 32.673C96.512 164.915 82.451 169 65.781 169Zm90.552-5.103v-.469c0-1.071 1.406-2.678 4.151-4.887 2.812-2.143 4.151-4.754 4.151-7.901V18.406c0-3.08-1.406-5.758-4.151-7.968s-4.151-3.883-4.151-4.954v-.47c0-1.874 1.54-2.744 4.62-2.744h28.924c3.08 0 4.62.937 4.62 2.745v.469c0 1.07-.737 2.142-2.21 3.213-1.473 1.072-2.946 2.41-4.419 3.95-1.473 1.54-2.209 3.482-2.209 5.759V150.64c0 3.08 1.473 5.691 4.419 7.901 2.946 2.142 4.419 3.816 4.419 4.887v.469c0 1.874-1.54 2.812-4.62 2.812h-28.924c-3.08 0-4.62-.938-4.62-2.812Zm257.097-14.127c.602 3.079 2.343 5.824 5.088 8.235 2.812 2.41 4.151 4.218 4.151 5.423v.469c0 1.874-1.54 2.812-4.619 2.812h-28.456c-3.08 0-4.62-.938-4.62-2.812v-.469c0-1.071 1.406-2.879 4.285-5.356 2.879-2.477 3.951-5.223 3.348-8.369L371.984 30.19l-46.332 131.297c-1.406 3.213-3.415 4.887-6.026 4.887-3.08 0-5.155-1.54-6.227-4.62l-47.47-133.171-19.685 121.12c-.468 3.079.938 5.892 4.152 8.369 3.213 2.477 4.887 4.218 4.887 5.356v.469c0 1.874-1.607 2.812-4.887 2.812h-20.823c-3.08 0-4.62-.938-4.62-2.812v-.469c0-1.205 1.406-3.08 4.151-5.557 2.812-2.477 4.419-5.155 4.888-8.101l22.496-130.829c.469-3.08-.669-5.825-3.347-8.235-2.678-2.41-4.084-4.084-4.084-4.955v-.468c0-2.009 1.205-3.013 3.682-3.013h30.799c2.477 0 3.682 1.004 3.682 3.013v.468c0 .603-1.272 2.21-3.816 4.888-2.544 2.611-3.281 5.423-2.21 8.37l41.244 119.512 42.114-120.45c.938-2.812.134-5.357-2.41-7.633-2.544-2.343-3.816-3.883-3.816-4.62V5.35c0-2.009 1.205-3.013 3.682-3.013h31.469c2.343 0 3.481.87 3.481 2.544v.67c0 .937-.469 1.874-1.406 2.879a22.69 22.69 0 0 1-3.013 2.678c-1.071.803-1.942 2.008-2.678 3.682-.67 1.674-.804 3.683-.335 6.026l23.903 128.954Zm41.646 16.949c-3.214 0-4.887-1.005-4.887-3.013v-.469c0-.937 1.405-2.477 4.284-4.754 2.879-2.209 4.286-4.887 4.286-7.967V18.55c0-2.813-1.407-5.357-4.286-7.633-2.879-2.344-4.284-4.017-4.284-5.089v-.67c0-1.874 1.606-2.744 4.887-2.744h43.051c10.044 0 19.283 1.004 27.786 3.012 8.504 2.009 16.203 5.089 23.033 9.24 6.896 4.151 12.252 9.775 16.202 16.806 3.951 7.03 5.892 15.198 5.892 24.438 0 17.609-5.958 31.2-17.809 40.775-11.918 9.574-28.456 14.328-49.814 14.328H479.58v39.57c0 3.08 1.473 5.758 4.486 7.967 3.013 2.21 4.486 3.817 4.486 4.754v.469c0 2.008-1.54 3.013-4.62 3.013h-28.857v-.067Zm32.874-65.347h15.534c14.194 0 25.442-3.616 33.678-10.78 8.235-7.164 12.386-17.073 12.386-29.728 0-15.868-4.954-28.053-14.931-36.49-9.976-8.436-22.094-12.654-36.49-12.654h-12.52c-4.017 0-6.026 2.477-6.026 7.432v73.85c.067 5.624 2.812 8.37 8.369 8.37Zm102.112 65.342c-3.08 0-4.62-.938-4.62-2.812v-.469c0-1.205 1.406-2.946 4.152-5.088 2.812-2.143 4.151-4.754 4.151-7.901V18.478c0-3.214-1.406-5.892-4.151-7.968-2.746-2.075-4.152-3.75-4.152-4.954v-.47c0-1.874 1.54-2.744 4.62-2.744h29.192c3.08 0 4.62.937 4.62 2.745v.469c0 1.205-1.473 2.878-4.486 4.954-3.013 2.076-4.486 4.754-4.486 7.968v129.69c0 6.025 2.478 9.038 7.432 9.038h51.421c3.08 0 5.892-1.339 8.369-3.95 2.477-2.611 4.419-5.557 5.758-8.771 1.406-3.214 3.013-6.16 4.888-8.771 1.874-2.611 3.615-3.95 5.356-3.95H700c2.477 0 3.347 1.406 2.544 4.151l-5.758 25.442c-.803 3.549-2.678 5.357-5.758 5.357H590.061Zm123.889.011c-3.214 0-4.888-.938-4.888-2.812v-.469c0-1.071 1.407-2.745 4.286-4.955 2.879-2.209 4.285-4.954 4.285-8.235V18.689c0-2.477-.67-4.486-2.076-6.16-1.406-1.606-2.812-2.946-4.285-3.95-1.473-1.004-2.21-2.075-2.21-3.147v-.67c0-1.673 1.407-2.543 4.152-2.543h98.221c3.08 0 5.022 1.673 5.758 5.088l5.558 22.898c.602 3.08-.335 4.62-2.746 4.62h-1.138c-1.54 0-3.281-1.205-5.222-3.615-1.942-2.41-3.683-5.022-5.357-7.968a30.907 30.907 0 0 0-6.226-7.968c-2.545-2.41-5.223-3.615-7.968-3.615h-49.077c-4.352 0-6.495 2.611-6.495 7.9v58.117h42.181c2.009 0 3.683-.67 5.089-2.076a14.043 14.043 0 0 0 3.147-4.753 28.558 28.558 0 0 1 2.343-4.754c.87-1.406 1.808-2.076 2.879-2.076h.937c2.009 0 3.013 1.34 3.013 3.95v28.456c0 2.611-1.004 3.95-3.013 3.95h-.937c-1.071 0-2.076-.67-2.879-2.075-.87-1.406-1.607-2.88-2.343-4.486-.67-1.607-1.741-3.147-3.147-4.486-1.406-1.406-3.08-2.076-5.089-2.076h-42.181l-.201 59.991c0 2.745.737 5.155 2.21 7.03 1.473 1.942 3.615 2.879 6.36 2.879h54.434c2.745 0 5.423-1.205 7.901-3.682a30.516 30.516 0 0 0 5.892-8.236c1.473-3.013 3.147-5.758 5.088-8.235 1.942-2.477 3.75-3.682 5.423-3.682h1.406c1.072 0 1.875.468 2.411 1.406.536.937.669 2.008.335 3.213l-5.558 23.367c-.803 3.549-2.812 5.357-6.025 5.357H713.95v.067Zm258.243 2.261c-20.554 0-38.699-8.637-54.433-25.911-15.734-17.274-23.635-37.36-23.635-60.192 0-24.237 7.231-44.055 21.626-59.522C930.213 7.895 948.625.195 970.988.195c17.006 0 31.732 4.82 44.322 14.462 12.59 9.641 18.88 19.082 18.88 28.389 0 3.08-.87 5.49-2.68 7.298-1.8 1.807-4.28 2.678-7.49 2.678-3.08 0-5.9-1.473-8.44-4.486-2.54-3.013-5.09-6.629-7.5-10.78-2.48-4.15-5.29-8.369-8.436-12.587s-7.632-7.9-13.457-10.914c-5.758-3.013-12.588-4.485-20.488-4.485-13.927 0-25.845 5.758-35.754 17.34-9.976 11.584-14.93 26.313-14.93 44.257 0 22.697 6.293 41.579 18.881 56.643 12.587 15.065 27.317 22.564 44.122 22.564 12.521 0 23.032-3.75 31.602-11.315 8.57-7.566 15-16.605 19.35-27.117 1.41-2.477 3.35-3.414 5.76-2.812 2.48.603 3.41 2.544 2.81 5.758-2.81 14.998-9.84 27.719-21.16 38.231-11.45 10.445-26.176 15.667-44.187 15.667Zm79.407-2.267c-3.08 0-4.62-.938-4.62-2.812v-.469c0-1.071 1.41-2.745 4.15-4.955 2.75-2.209 4.15-4.887 4.15-7.967V18.55c0-3.08-1.4-5.759-4.15-7.968-2.81-2.21-4.15-3.884-4.15-4.955V5.16c0-1.875 1.54-2.745 4.62-2.745h28.92c3.08 0 4.62.937 4.62 2.745v.468c0 1.072-.73 2.143-2.21 3.214-1.47 1.071-2.94 2.41-4.41 3.95-1.48 1.54-2.21 3.482-2.21 5.758l-.2 59.255h90.99l-.2-59.255c0-3.08-1.41-5.758-4.16-7.967-2.81-2.21-4.15-3.884-4.15-4.955V5.16c0-1.875 1.54-2.745 4.62-2.745h28.93c3.21 0 4.88.937 4.88 2.745v.468c0 1.072-.8 2.143-2.34 3.214a26.839 26.839 0 0 0-4.48 3.95c-1.48 1.54-2.21 3.482-2.21 5.758v131.967c0 2.343.73 4.218 2.21 5.758 1.47 1.54 2.94 2.879 4.48 3.95 1.54 1.072 2.34 2.143 2.34 3.214v.469c0 1.874-1.6 2.812-4.88 2.812h-28.93c-3.08 0-4.62-.938-4.62-2.812v-.469c0-1.071 1.41-2.745 4.15-4.955 2.82-2.209 4.16-4.887 4.16-7.967l.2-62.535h-90.73v62.535c0 2.343.74 4.218 2.21 5.758 1.48 1.54 2.95 2.879 4.42 3.95 1.47 1.072 2.21 2.143 2.21 3.214v.469c0 1.874-1.54 2.812-4.62 2.812h-28.99Zm242.72 2.273c-23.77 0-43.45-8.436-59.05-25.242-15.6-16.805-23.37-36.757-23.37-59.723 0-24.237 7.57-44.323 22.7-60.191C1249.73 7.968 1269.08 0 1292.72 0c23.3 0 42.51 8.37 57.64 25.04 15.13 16.672 22.7 36.826 22.7 60.46 0 23.033-7.63 42.717-22.83 59.054-15.2 16.27-33.88 24.438-55.91 24.438Zm5.09-9.976c15.13 0 27.72-5.959 37.76-17.81 10.05-11.918 15.07-25.844 15.07-41.913 0-25.04-6.23-46.132-18.75-63.473-12.52-17.274-28.45-25.91-47.94-25.91-15.46 0-28.12 5.69-37.96 17.14-9.91 11.449-14.8 25.71-14.8 42.85 0 24.572 6.3 45.529 18.88 63.004 12.46 17.408 28.46 26.112 47.74 26.112Zm90.04 4.881v-.469c0-1.071 1.41-2.678 4.15-4.887 2.75-2.143 4.15-4.754 4.15-7.901V18.406c0-3.08-1.4-5.758-4.15-7.968-2.81-2.21-4.15-3.883-4.15-4.954v-.47c0-1.874 1.54-2.744 4.62-2.744h28.92c3.08 0 4.62.937 4.62 2.745v.469c0 1.07-.73 2.142-2.21 3.213-1.47 1.072-2.94 2.41-4.42 3.95-1.47 1.54-2.2 3.482-2.2 5.759V150.64c0 3.08 1.47 5.691 4.41 7.901 2.95 2.142 4.42 3.816 4.42 4.887v.469c0 1.874-1.54 2.812-4.62 2.812h-28.92c-3.08 0-4.62-.938-4.62-2.812Zm136.89 5.089c-20.55 0-38.7-8.637-54.43-25.911-15.74-17.274-23.64-37.36-23.64-60.192 0-24.237 7.23-44.055 21.63-59.522C1484.36 7.895 1502.77.195 1525.14.195c17 0 31.73 4.82 44.32 14.462 12.59 9.641 18.88 19.082 18.88 28.389 0 3.08-.87 5.49-2.68 7.298-1.8 1.807-4.28 2.678-7.5 2.678-3.08 0-5.89-1.473-8.43-4.486-2.55-3.013-5.09-6.629-7.5-10.78-2.48-4.15-5.29-8.369-8.44-12.587-3.14-4.218-7.63-7.9-13.45-10.914-5.76-3.013-12.59-4.485-20.49-4.485-13.93 0-25.85 5.758-35.76 17.34-9.97 11.584-14.93 26.313-14.93 44.257 0 22.697 6.3 41.579 18.88 56.643 12.59 15.065 27.32 22.564 44.13 22.564 12.52 0 23.03-3.75 31.6-11.315 8.57-7.566 15-16.605 19.35-27.117 1.4-2.477 3.35-3.414 5.76-2.812 2.47.603 3.41 2.544 2.81 5.758-2.81 14.998-9.84 27.719-21.16 38.231-11.38 10.445-26.11 15.667-44.19 15.667Zm79.46-2.261c-3.21 0-4.89-.938-4.89-2.812v-.469c0-1.071 1.41-2.745 4.29-4.955 2.88-2.209 4.28-4.954 4.28-8.235V18.689c0-2.477-.67-4.486-2.07-6.16-1.41-1.606-2.81-2.946-4.29-3.95-1.47-1.004-2.21-2.075-2.21-3.147v-.67c0-1.673 1.41-2.543 4.16-2.543h98.22c3.08 0 5.02 1.673 5.75 5.088l5.56 22.898c.6 3.08-.33 4.62-2.81 4.62h-1.14c-1.54 0-3.28-1.205-5.22-3.615s-3.68-5.022-5.36-7.968a30.84 30.84 0 0 0-6.22-7.968c-2.55-2.41-5.23-3.615-7.97-3.615h-49.08c-4.35 0-6.49 2.611-6.49 7.9v58.117h42.11c2.01 0 3.68-.67 5.09-2.076 1.41-1.406 2.41-2.946 3.15-4.753a28.63 28.63 0 0 1 2.34-4.754c.87-1.406 1.81-2.076 2.88-2.076h.94c2 0 3.01 1.34 3.01 3.95v28.456c0 2.611-1.01 3.95-3.01 3.95h-.94c-1.07 0-2.08-.67-2.88-2.075-.87-1.406-1.61-2.88-2.34-4.486-.67-1.607-1.74-3.147-3.15-4.486-1.41-1.406-3.08-2.076-5.09-2.076h-42.11l-.2 59.991c0 2.745.73 5.155 2.21 7.03 1.47 1.942 3.61 2.879 6.36 2.879h54.43c2.81 0 5.42-1.205 7.9-3.682a30.378 30.378 0 0 0 5.89-8.236c1.48-3.013 3.15-5.758 5.09-8.235 1.94-2.477 3.75-3.682 5.42-3.682h1.41c1.07 0 1.88.468 2.41 1.406.54.937.67 2.008.34 3.213l-5.56 23.367c-.81 3.549-2.81 5.357-6.03 5.357H1605.8v.067Z" fill="#003057"/></svg>