<svg width="1484" height="188" fill="none" xmlns="http://www.w3.org/2000/svg"><path d="M72.623 188c-22.662 0-40.433-5.106-53.31-15.323C6.439 162.465 0 152.462 0 142.675c0-3.09.856-5.577 2.575-7.467 1.714-1.889 4.119-2.835 7.212-2.835 3.257.173 6.134 1.848 8.626 5.021 2.488 3.181 4.892 6.998 7.21 11.46 2.32 4.469 5.108 8.887 8.371 13.266 3.258 4.376 8.282 8.108 15.065 11.201 6.78 3.091 14.975 4.637 24.594 4.637 12.19 0 22.105-3.222 29.744-9.66 7.637-6.439 11.462-14.717 11.462-24.849 0-8.583-2.02-15.622-6.051-21.12-4.037-5.49-9.274-9.483-15.713-11.975-6.436-2.487-13.562-4.505-21.375-6.052a602.275 602.275 0 0 1-23.563-5.15c-7.9-1.886-15.065-4.42-21.503-7.598-6.439-3.173-11.679-8.196-15.71-15.065-4.036-6.864-6.052-15.537-6.052-26.01 0-14.763 5.706-26.826 17.127-36.184C33.432 4.94 49.101.26 69.017.26c20.256 0 36.442 4.467 48.546 13.39 12.104 8.931 18.153 18.46 18.153 28.587 0 6.869-3.518 10.302-10.557 10.302-3.436 0-6.31-1.456-8.627-4.38-2.317-2.917-4.423-6.438-6.309-10.559-1.892-4.119-4.209-8.24-6.954-12.359-2.748-4.121-7.08-7.637-13.006-10.56-5.923-2.917-13.261-4.376-22.017-4.376-12.537 0-22.32 3.263-29.36 9.784-7.042 6.528-10.56 14.854-10.56 24.98 0 8.073 2.018 14.68 6.055 19.831 4.03 5.15 9.31 8.929 15.838 11.334 6.521 2.404 13.69 4.42 21.501 6.049a465.09 465.09 0 0 1 23.437 5.539c7.81 2.06 14.978 4.763 21.504 8.111 6.524 3.348 11.802 8.586 15.839 15.71 4.031 7.126 6.051 15.926 6.051 26.395 0 15.112-6.353 27.216-19.057 36.312-12.707 9.103-28.33 13.65-46.871 13.65Zm100.676-5.669v-.513c0-1.201 1.546-3.003 4.634-5.41 3.093-2.4 4.637-5.317 4.637-8.756V20.603c0-3.433-1.544-6.397-4.637-8.884-3.088-2.488-4.634-4.336-4.634-5.54v-.515c0-2.06 1.714-3.088 5.15-3.088h32.192c3.431 0 5.15 1.029 5.15 3.088v.516c0 1.203-.817 2.407-2.446 3.605-1.634 1.202-3.263 2.666-4.892 4.38-1.634 1.716-2.449 3.86-2.449 6.438v147.049c0 3.439 1.632 6.356 4.895 8.756 3.26 2.407 4.892 4.209 4.892 5.41v.513c0 2.062-1.719 3.09-5.15 3.09h-32.192c-3.436 0-5.15-1.028-5.15-3.09Zm285.87-15.704c.686 3.436 2.575 6.482 5.665 9.142 3.091 2.665 4.637 4.678 4.637 6.054v.513c0 2.062-1.719 3.091-5.15 3.091h-31.679c-3.436 0-5.15-1.029-5.15-3.091v-.513c0-1.201 1.588-3.178 4.766-5.925 3.175-2.745 4.418-5.835 3.735-9.271L413.071 33.741l-51.505 146.02c-1.547 3.604-3.779 5.408-6.696 5.408-3.436 0-5.756-1.714-6.954-5.152l-52.795-148.08-21.89 134.69c-.515 3.436 1.031 6.526 4.637 9.271 3.606 2.747 5.407 4.724 5.407 5.925v.513c0 2.062-1.801 3.091-5.407 3.091h-23.179c-3.436 0-5.15-1.029-5.15-3.091v-.513c0-1.376 1.547-3.435 4.634-6.183 3.093-2.742 4.895-5.748 5.408-9.013l24.981-145.506c.518-3.43-.73-6.48-3.733-9.142-3.005-2.66-4.508-4.505-4.508-5.536v-.516c0-2.23 1.374-3.345 4.122-3.345h34.252c2.745 0 4.118 1.116 4.118 3.345v.516c0 .688-1.415 2.49-4.247 5.407-2.833 2.923-3.65 6.01-2.446 9.271l45.84 132.887L404.828 20.09c1.031-3.09.132-5.92-2.701-8.495-2.832-2.577-4.25-4.291-4.25-5.152v-.516c0-2.23 1.371-3.345 4.119-3.345h35.025c2.575 0 3.864.943 3.864 2.83v.773c0 1.028-.516 2.103-1.544 3.22a21.85 21.85 0 0 1-3.348 2.96c-1.204.862-2.191 2.235-2.964 4.122-.771 1.89-.9 4.122-.387 6.696l26.527 143.444Zm82.941-53.825h17.253c15.795 0 28.286-3.993 37.472-11.975 9.183-7.983 13.779-19.012 13.779-33.092 0-17.682-5.537-31.203-16.612-40.562-11.073-9.356-24.594-14.037-40.562-14.037h-13.907c-4.465 0-6.694 2.748-6.694 8.243v82.152c0 6.18 3.09 9.271 9.271 9.271Zm-36.569 72.625c-3.606 0-5.41-1.116-5.41-3.348v-.516c0-1.031 1.588-2.789 4.766-5.278 3.172-2.488 4.763-5.449 4.763-8.885V20.606c0-3.09-1.591-5.923-4.763-8.498-3.178-2.575-4.766-4.464-4.766-5.668v-.77c0-2.06 1.804-3.09 5.41-3.09h47.899c11.161 0 21.46 1.118 30.904 3.347 9.441 2.232 17.983 5.665 25.625 10.3 7.637 4.637 13.651 10.861 18.027 18.67 4.379 7.818 6.567 16.87 6.567 27.17 0 19.573-6.611 34.682-19.831 45.327-13.222 10.648-31.674 15.968-55.369 15.968h-26.524V167.4c0 3.436 1.673 6.397 5.021 8.885 3.348 2.489 5.023 4.247 5.023 5.278v.516c0 2.232-1.719 3.348-5.152 3.348h-32.19Zm150.113 0c-3.436 0-5.15-1.029-5.15-3.091v-.513c0-1.376 1.546-3.26 4.634-5.667 3.093-2.403 4.637-5.32 4.637-8.756V20.608c0-3.608-1.544-6.567-4.637-8.887-3.088-2.317-4.634-4.16-4.634-5.536v-.516c0-2.059 1.714-3.087 5.15-3.087h32.45c3.431 0 5.15 1.028 5.15 3.087v.516c0 1.376-1.676 3.22-5.021 5.536-3.348 2.32-5.024 5.279-5.024 8.887v144.217c0 6.694 2.745 10.042 8.243 10.042h57.171c3.433 0 6.523-1.456 9.271-4.377 2.745-2.917 4.892-6.18 6.438-9.786 1.547-3.606 3.348-6.867 5.408-9.787 2.062-2.918 4.034-4.379 5.925-4.379h2.06c2.742 0 3.688 1.547 2.832 4.637l-6.438 28.329c-.861 3.951-3.008 5.923-6.439 5.923H655.654Zm137.796 0c-3.603 0-5.407-1.029-5.407-3.091v-.513c0-1.201 1.585-3.049 4.763-5.538 3.176-2.488 4.766-5.537 4.766-9.143V20.864c0-2.743-.773-5.021-2.317-6.823-1.547-1.804-3.137-3.26-4.766-4.379-1.634-1.116-2.446-2.273-2.446-3.477v-.773c0-1.887 1.544-2.83 4.634-2.83h109.194c3.434 0 5.578 1.889 6.439 5.662l6.181 25.497c.685 3.435-.346 5.15-3.091 5.15h-1.288c-1.717 0-3.648-1.328-5.795-3.99-2.147-2.663-4.121-5.622-5.923-8.888-1.801-3.258-4.118-6.219-6.951-8.884-2.835-2.658-5.797-3.993-8.887-3.993H827.96c-4.809 0-7.212 2.923-7.212 8.759v64.64h46.871c2.23 0 4.122-.773 5.666-2.32 1.546-1.544 2.704-3.302 3.477-5.276.773-1.972 1.631-3.737 2.575-5.281.943-1.544 2.015-2.317 3.219-2.317h1.031c2.229 0 3.348 1.461 3.348 4.379v31.677c0 2.917-1.119 4.376-3.348 4.376h-1.031c-1.204 0-2.276-.773-3.219-2.319a39.427 39.427 0 0 1-2.575-5.021c-.773-1.802-1.931-3.475-3.477-5.021-1.544-1.547-3.436-2.317-5.666-2.317h-46.871l-.257 66.699c0 3.091.814 5.709 2.446 7.854 1.631 2.149 3.992 3.219 7.082 3.219h60.522c3.09 0 6.005-1.371 8.756-4.119 2.744-2.745 4.933-5.794 6.567-9.142 1.629-3.348 3.516-6.395 5.665-9.142 2.145-2.745 4.16-4.122 6.052-4.122h1.546c1.199 0 2.101.516 2.704 1.547.598 1.028.727 2.232.384 3.603l-6.178 26.012c-.861 3.951-3.093 5.923-6.696 5.923H793.45ZM1080.59 188c-22.83 0-43.01-9.611-60.52-28.842-17.51-19.228-26.267-41.548-26.267-66.96 0-26.952 8.027-49.015 24.077-66.186C1033.93 8.846 1054.41.26 1079.3.26c18.88 0 35.33 5.367 49.32 16.094 13.99 10.733 20.99 21.246 20.99 31.55 0 3.436-.99 6.14-2.96 8.112-1.98 1.977-4.77 2.959-8.37 2.959-3.44 0-6.57-1.673-9.4-5.021-2.84-3.348-5.62-7.338-8.37-11.972-2.75-4.637-5.88-9.315-9.4-14.037-3.52-4.722-8.5-8.756-14.94-12.104-6.44-3.348-14.03-5.02-22.79-5.02-15.45 0-28.71 6.435-39.79 19.312-11.07 12.877-16.61 29.275-16.61 49.188 0 25.239 6.99 46.23 20.99 62.968 13.99 16.74 30.34 25.109 49.06 25.109 13.9 0 25.62-4.206 35.15-12.619 9.53-8.41 16.7-18.455 21.51-30.13 1.54-2.748 3.69-3.776 6.43-3.091 2.75.686 3.78 2.83 3.09 6.439-3.09 16.655-10.94 30.818-23.56 42.492-12.62 11.676-28.97 17.511-49.06 17.511Zm88.35-2.573c-3.43 0-5.15-1.029-5.15-3.091v-.513c0-1.201 1.55-3.049 4.64-5.538 3.09-2.488 4.63-5.449 4.63-8.885V20.608c0-3.433-1.54-6.397-4.63-8.887-3.09-2.484-4.64-4.332-4.64-5.536v-.516c0-2.059 1.72-3.087 5.15-3.087h32.2c3.43 0 5.14 1.028 5.14 3.087v.516c0 1.204-.81 2.407-2.44 3.603-1.64 1.204-3.27 2.668-4.89 4.382-1.64 1.716-2.45 3.861-2.45 6.438l-.26 65.927h101.21l-.26-65.927c0-3.433-1.54-6.397-4.63-8.887-3.09-2.484-4.64-4.332-4.64-5.536v-.516c0-2.059 1.72-3.087 5.15-3.087h32.19c3.61 0 5.41 1.028 5.41 3.087v.516c0 1.204-.86 2.407-2.57 3.603-1.72 1.204-3.39 2.668-5.02 4.382-1.64 1.716-2.45 3.861-2.45 6.438V167.4c0 2.575.81 4.724 2.45 6.438 1.63 1.717 3.3 3.179 5.02 4.377 1.71 1.204 2.57 2.407 2.57 3.608v.513c0 2.062-1.8 3.091-5.41 3.091h-32.19c-3.43 0-5.15-1.029-5.15-3.091v-.513c0-1.201 1.55-3.049 4.64-5.538 3.09-2.488 4.63-5.449 4.63-8.885l.26-69.535H1196.5V167.4c0 2.575.81 4.724 2.45 6.438 1.62 1.717 3.25 3.179 4.89 4.377 1.63 1.204 2.44 2.407 2.44 3.608v.513c0 2.062-1.71 3.091-5.14 3.091h-32.2Zm275.54-8.5c16.82 0 30.82-6.606 41.98-19.831 11.15-13.217 16.74-28.756 16.74-46.613 0-27.814-6.96-51.333-20.86-70.563-13.91-19.226-31.68-28.845-53.31-28.845-17.17 0-31.25 6.354-42.24 19.058-10.99 12.71-16.48 28.587-16.48 47.642 0 27.3 7 50.652 20.99 70.05 13.99 19.403 31.72 29.102 53.18 29.102ZM1438.81 188c-26.44 0-48.33-9.356-65.67-28.071-17.34-18.71-26.01-40.858-26.01-66.442 0-26.952 8.41-49.273 25.24-66.96C1389.2 8.846 1410.74 0 1437.01 0c25.92 0 47.3 9.274 64.12 27.813 16.83 18.545 25.24 40.948 25.24 67.22 0 25.582-8.45 47.475-25.36 65.669-16.92 18.202-37.65 27.298-62.2 27.298Z" opacity=".1" fill="#EAE8E6"/></svg>