<svg width="44" height="108" viewBox="0 0 44 108" fill="none" xmlns="http://www.w3.org/2000/svg">
<path fill-rule="evenodd" clip-rule="evenodd" d="M41.0871 0.182295C40.2271 0.354585 39.8946 0.515387 37.5327 2.05451C35.3198 3.49025 34.07 4.22535 30.1946 6.41917C26.6287 8.4407 23.3265 10.8298 22.3749 12.0818C21.6525 13.0351 21.9736 14.2067 23.0284 14.5283C23.6705 14.7235 24.1635 14.5168 26.4682 13.0581C30.1258 10.7609 33.4967 8.63597 35.228 7.5448C36.1568 6.94753 36.9479 6.47661 36.9708 6.49958C37.0052 6.54552 35.423 8.73935 32.7056 12.4263C24.1635 23.9812 19.0727 31.941 14.3718 41.0953C10.3587 48.8828 6.52915 58.5999 4.41945 66.3185C1.87404 75.5877 0.188569 87.4182 0.0165822 97.1698C-0.0980758 103.579 0.314694 106.715 1.38101 107.611C1.73645 107.909 2.04603 107.99 2.04603 107.783C2.04603 107.714 1.9543 107.473 1.82818 107.232C1.36955 106.313 1.30075 105.612 1.30075 101.466C1.30075 96.6185 1.69059 91.6221 2.57345 85.0406C3.98375 74.4735 5.95586 66.284 9.15482 57.7614C13.5692 45.9883 18.3504 36.7421 25.9637 25.2447C28.1536 21.9252 35.3886 11.8176 35.4917 11.921C35.5032 11.9324 35.1592 12.9202 34.7235 14.1263C32.7744 19.5017 31.4787 24.7852 31.1806 28.6445C31.1233 29.4945 31.0316 31.3208 30.9972 32.6991C30.9398 34.9044 30.9513 35.203 31.1118 35.2604C31.215 35.3064 31.3297 35.3064 31.3641 35.2604C31.3985 35.226 31.6507 33.8706 31.9259 32.2396C32.2011 30.6086 32.6138 28.5411 32.8317 27.6567C34.1847 22.2009 38.7251 11.3352 41.775 6.24688C43.6898 3.05379 44.0796 1.91667 43.5866 0.96334C43.1509 0.124864 42.4859 -0.0818819 41.0871 0.182295Z" fill="#003057" fill-opacity="0.3"/>
</svg>
