<svg width="20" height="21" viewBox="0 0 20 21" fill="none" xmlns="http://www.w3.org/2000/svg">
  <path d="M18.0392 1.93945H18.4392L18.6792 2.09945L18.7992 2.29945V2.61945L18.4792 3.17945L17.9192 4.09945L17.4392 4.85945L17.0792 5.41945L16.5992 6.17945L16.3992 6.57945L16.0792 7.05945L15.5192 7.93945L15.0392 8.69945L14.6792 9.33945L14.1192 10.2195L13.7192 10.8195L13.2792 11.5395L13.1192 11.8195L12.9992 12.0595H12.9192L12.8392 12.2595L12.2792 13.1795L11.9192 13.7395L11.5992 14.2195L11.3992 14.6195L10.8792 15.4195L10.3992 16.1795L9.91922 16.9795L9.39922 17.8195L9.03922 18.3795L8.83922 18.6195L8.39922 18.8995L7.95922 19.0595H7.23922L6.75922 18.8995L6.59922 18.7795L6.39922 18.6595L5.91922 18.0995L5.47922 17.5395L5.07922 17.0595L4.63922 16.4995L4.15922 15.9395L3.71922 15.3795L3.51922 15.1795L3.19922 14.7395L2.63922 14.0595L2.43922 13.8195V13.7395L2.27922 13.6595L1.95922 13.2595L1.75922 13.0195L1.63922 12.8195L1.39922 12.4595L1.23922 12.0595L1.19922 11.8595V11.2995L1.35922 10.7795L1.59922 10.4195L1.87922 10.0995L2.27922 9.85945L2.67922 9.73945H3.43922L3.87922 9.89945L4.31922 10.1795L4.63922 10.4995L4.95922 10.7795L5.43922 11.2195L5.83922 11.5795L6.31922 12.0195L6.71922 12.3795L7.19922 12.8195L7.63922 13.1795L7.87922 13.2195L8.11922 13.0595L8.39922 12.6995L8.59922 12.4995L8.87922 12.1795L9.35922 11.6595L9.63922 11.3395L9.99922 10.9395L10.3592 10.4995L10.8792 9.93945L11.1592 9.61945L11.5192 9.21945L11.8792 8.77945L12.3592 8.25945L12.6392 7.93945L12.9992 7.53945L13.2392 7.25945H13.3192L13.3992 7.05945L13.8792 6.53945L14.1592 6.21945L14.5192 5.81945L14.7192 5.57945L14.9192 5.37945L15.2792 4.93945L15.7192 4.45945L15.9992 4.13945L16.1592 3.93945L16.3592 3.73945L16.7192 3.33945L17.0792 2.89945L17.5192 2.41945L17.7192 2.21945L17.9192 2.01945L18.0392 1.93945Z" fill="#97D700" />
</svg>