<svg width="32" height="32" viewBox="0 0 32 32" fill="none" xmlns="http://www.w3.org/2000/svg">
<path d="M19.8451 21.3846V24.4615C19.8451 24.8696 19.683 25.2609 19.3945 25.5494C19.106 25.8379 18.7147 26 18.3067 26H7.53834C7.13035 26 6.73907 25.8379 6.45057 25.5494C6.16208 25.2609 6 24.8696 6 24.4615V7.53846C6 7.13044 6.16208 6.73912 6.45057 6.4506C6.73907 6.16209 7.13035 6 7.53834 6H18.3067C18.7147 6 19.106 6.16209 19.3945 6.4506C19.683 6.73912 19.8451 7.13044 19.8451 7.53846V10.6154" stroke="#758C9F" stroke-width="1.6" stroke-linecap="round" stroke-linejoin="round"/>
<path d="M15.2305 16H25.9989" stroke="#758C9F" stroke-width="1.6" stroke-linecap="round" stroke-linejoin="round"/>
<path d="M22.9219 12.9231L25.9986 16L22.9219 19.0769" stroke="#758C9F" stroke-width="1.6" stroke-linecap="round" stroke-linejoin="round"/>
</svg>
