<svg width="24" height="25" viewBox="0 0 24 25" fill="none" xmlns="http://www.w3.org/2000/svg">
<path fill-rule="evenodd" clip-rule="evenodd" d="M6.90191 5.95645C6.83584 5.96517 6.77292 5.98224 6.71408 6.00646C5.92761 6.0679 5.23752 6.129 4.7406 6.17508C4.48641 6.19865 4.28262 6.21831 4.14214 6.2321L3.9805 6.24815L3.92453 6.25381L3.92345 6.25392C3.51141 6.29623 3.21167 6.66456 3.25398 7.0766C3.29629 7.48865 3.66462 7.78838 4.07666 7.74608L4.07593 7.7389C4.07667 7.74608 4.07666 7.74608 4.07666 7.74608L4.13053 7.74062L4.28869 7.72493C4.42676 7.71137 4.62786 7.69197 4.87912 7.66867C5.38175 7.62206 6.08447 7.55989 6.8843 7.49775C8.48943 7.37302 10.4654 7.25 12.0001 7.25C13.5347 7.25 15.5107 7.37302 17.1158 7.49775C17.9156 7.55989 18.6184 7.62206 19.121 7.66867C19.3723 7.69197 19.5734 7.71137 19.7114 7.72493L19.8696 7.74062L19.9228 7.74601C20.3348 7.78831 20.7038 7.48865 20.7461 7.0766C20.7884 6.66456 20.4887 6.29623 20.0767 6.25392L20.0196 6.24815L19.858 6.2321C19.7175 6.21831 19.5137 6.19865 19.2595 6.17508C18.7626 6.12899 18.0725 6.0679 17.286 6.00646C17.2344 5.98524 17.1796 5.96948 17.1222 5.96001C16.6274 5.87837 16.2109 5.5449 16.0231 5.07999L15.9327 4.85615C15.4184 3.58329 14.183 2.75 12.8101 2.75H11.4629C10.1083 2.75 8.88923 3.57225 8.38176 4.82825C8.13571 5.43723 7.58111 5.8668 6.92994 5.95275L6.90191 5.95645ZM11.4629 4.25C10.7197 4.25 10.0509 4.70111 9.77253 5.39018C9.71209 5.53976 9.64144 5.68341 9.56152 5.82039C10.4108 5.77787 11.2524 5.75 12.0001 5.75C12.8298 5.75 13.7753 5.78433 14.7185 5.8349C14.6876 5.77191 14.6589 5.70755 14.6323 5.64191L14.5419 5.41808C14.2567 4.71214 13.5715 4.25 12.8101 4.25H11.4629Z" fill="#003057" fill-opacity="0.5"/>
<path d="M18.7472 9.56497C18.7831 9.15232 18.4777 8.7887 18.065 8.75282C17.6524 8.71694 17.2888 9.02237 17.2529 9.43503L16.4477 18.6949C16.3466 19.8576 15.3732 20.75 14.2061 20.75H9.3942C8.18957 20.75 7.19865 19.8012 7.14632 18.5977L6.74935 9.46742C6.73136 9.0536 6.3813 8.73272 5.96748 8.75071C5.55366 8.7687 5.23277 9.11876 5.25077 9.53258L5.64774 18.6629C5.73495 20.6687 7.38648 22.25 9.3942 22.25H14.2061C16.1513 22.25 17.7735 20.7627 17.942 18.8249L18.7472 9.56497Z" fill="#003057" fill-opacity="0.5"/>
<path d="M9.00006 17.75C8.58584 17.75 8.25006 18.0858 8.25006 18.5C8.25006 18.9142 8.58584 19.25 9.00006 19.25H14.5781C14.9923 19.25 15.3281 18.9142 15.3281 18.5C15.3281 18.0858 14.9923 17.75 14.5781 17.75H9.00006Z" fill="#003057" fill-opacity="0.5"/>
</svg>
