<svg width="1484" height="188" viewBox="0 0 1484 188" fill="none" xmlns="http://www.w3.org/2000/svg">
<g opacity="0.1">
<path d="M72.6225 188C49.9615 188 32.1899 182.894 19.3129 172.677C6.4385 162.465 0 152.462 0 142.675C0 139.585 0.855718 137.098 2.57488 135.208C4.2889 133.319 6.69367 132.373 9.78662 132.373C13.0445 132.546 15.921 134.221 18.4134 137.394C20.9006 140.575 23.3054 144.392 25.6225 148.854C27.9423 153.323 30.7311 157.741 33.9941 162.12C37.252 166.496 42.2755 170.228 49.0594 173.321C55.8381 176.412 64.0344 177.958 73.6535 177.958C85.8423 177.958 95.7578 174.736 103.397 168.298C111.034 161.859 114.859 153.581 114.859 143.449C114.859 134.866 112.839 127.827 108.808 122.329C104.771 116.839 99.5338 112.846 93.0953 110.354C86.6594 107.867 79.5327 105.849 71.7204 104.302C63.9081 102.758 56.052 101.044 48.1573 99.1524C40.2574 97.2656 33.092 94.732 26.6535 91.554C20.215 88.3811 14.975 83.3577 10.9439 76.4887C6.9076 69.625 4.89202 60.9518 4.89202 50.4796C4.89202 35.7159 10.5985 23.6534 22.0193 14.2946C33.4322 4.94101 49.1006 0.260345 69.0167 0.260345C89.2729 0.260345 105.459 4.72708 117.563 13.6503C129.667 22.5811 135.716 32.11 135.716 42.2369C135.716 49.1058 132.198 52.539 125.159 52.539C121.723 52.539 118.849 51.0827 116.532 48.1599C114.215 45.2422 112.109 41.7214 110.223 37.6C108.331 33.4812 106.014 29.3599 103.269 25.2411C100.521 21.1197 96.1883 17.6041 90.2627 14.6812C84.3397 11.7635 77.0016 10.3047 68.246 10.3047C55.7092 10.3047 45.9252 13.5677 38.8862 20.0887C31.8445 26.6174 28.3263 34.9427 28.3263 45.0695C28.3263 53.1421 30.3444 59.7481 34.3808 64.9005C38.4119 70.0502 43.6905 73.8288 50.2192 76.2336C56.7402 78.6383 63.9081 80.6539 71.7204 82.2829C79.5327 83.917 87.3424 85.7599 95.1573 87.8218C102.967 89.8812 110.135 92.585 116.661 95.9331C123.185 99.2812 128.463 104.519 132.5 111.643C136.531 118.769 138.551 127.569 138.551 138.038C138.551 153.15 132.198 165.254 119.494 174.35C106.787 183.453 91.1648 188 72.6225 188Z" fill="#EAE8E6"/>
<path d="M173.299 182.331V181.818C173.299 180.617 174.845 178.815 177.933 176.408C181.026 174.008 182.57 171.091 182.57 167.652V20.6031C182.57 17.1699 181.026 14.2058 177.933 11.7186C174.845 9.23131 173.299 7.38327 173.299 6.1796V5.66411C173.299 3.60472 175.013 2.57631 178.449 2.57631H210.641C214.072 2.57631 215.791 3.60472 215.791 5.66411V6.1796C215.791 7.38327 214.974 8.58694 213.345 9.78546C211.711 10.9866 210.082 12.4506 208.453 14.1646C206.819 15.8811 206.004 18.0256 206.004 20.6031V167.652C206.004 171.091 207.636 174.008 210.899 176.408C214.159 178.815 215.791 180.617 215.791 181.818V182.331C215.791 184.393 214.072 185.421 210.641 185.421H178.449C175.013 185.421 173.299 184.393 173.299 182.331Z" fill="#EAE8E6"/>
<path d="M459.169 166.627C459.855 170.063 461.744 173.109 464.834 175.769C467.925 178.434 469.471 180.447 469.471 181.823V182.336C469.471 184.398 467.752 185.427 464.321 185.427H432.642C429.206 185.427 427.492 184.398 427.492 182.336V181.823C427.492 180.622 429.08 178.645 432.258 175.898C435.433 173.153 436.676 170.063 435.993 166.627L413.071 33.7406L361.566 179.761C360.019 183.365 357.787 185.169 354.87 185.169C351.434 185.169 349.114 183.455 347.916 180.017L295.121 31.9364L273.231 166.627C272.716 170.063 274.262 173.153 277.868 175.898C281.474 178.645 283.275 180.622 283.275 181.823V182.336C283.275 184.398 281.474 185.427 277.868 185.427H254.689C251.253 185.427 249.539 184.398 249.539 182.336V181.823C249.539 180.447 251.086 178.388 254.173 175.64C257.266 172.898 259.068 169.892 259.581 166.627L284.562 21.1214C285.08 17.6908 283.832 14.6416 280.829 11.9791C277.824 9.31918 276.321 7.47371 276.321 6.44272V5.92725C276.321 3.69774 277.695 2.58168 280.443 2.58168H314.695C317.44 2.58168 318.813 3.69774 318.813 5.92725V6.44272C318.813 7.13091 317.398 8.93256 314.566 11.8502C311.733 14.7731 310.916 17.8609 312.12 21.1214L357.96 154.008L404.828 20.0904C405.859 17 404.96 14.17 402.127 11.5951C399.295 9.01761 397.877 7.30359 397.877 6.44272V5.92725C397.877 3.69774 399.248 2.58168 401.996 2.58168H437.021C439.596 2.58168 440.885 3.52504 440.885 5.41174V6.18498C440.885 7.21339 440.369 8.28819 439.341 9.40424C438.31 10.5228 437.191 11.5074 435.993 12.3657C434.789 13.2266 433.802 14.6004 433.029 16.4871C432.258 18.3764 432.129 20.6085 432.642 23.1833L459.169 166.627Z" fill="#EAE8E6"/>
<path d="M542.11 112.802H559.363C575.158 112.802 587.649 108.809 596.835 100.827C606.018 92.8444 610.614 81.8154 610.614 67.7347C610.614 50.0534 605.077 36.532 594.002 27.1732C582.929 17.8171 569.408 13.1364 553.44 13.1364H539.533C535.068 13.1364 532.839 15.884 532.839 21.3791V103.531C532.839 109.711 535.929 112.802 542.11 112.802ZM505.541 185.427C501.935 185.427 500.131 184.311 500.131 182.079V181.563C500.131 180.532 501.719 178.774 504.897 176.285C508.069 173.797 509.66 170.836 509.66 167.4V20.6059C509.66 17.5155 508.069 14.6829 504.897 12.108C501.719 9.5331 500.131 7.64383 500.131 6.44016V5.66949C500.131 3.61011 501.935 2.5791 505.541 2.5791H553.44C564.601 2.5791 574.9 3.69774 584.344 5.92725C593.785 8.15932 602.327 11.5925 609.969 16.2268C617.606 20.8636 623.62 27.0882 627.996 34.8979C632.375 42.7153 634.563 51.7674 634.563 62.0669C634.563 81.6401 627.952 96.7492 614.732 107.394C601.51 118.042 583.058 123.362 559.363 123.362H532.839V167.4C532.839 170.836 534.512 173.797 537.86 176.285C541.208 178.774 542.883 180.532 542.883 181.563V182.079C542.883 184.311 541.164 185.427 537.731 185.427H505.541Z" fill="#EAE8E6"/>
<path d="M655.654 185.427C652.218 185.427 650.504 184.398 650.504 182.336V181.823C650.504 180.447 652.05 178.563 655.138 176.156C658.231 173.753 659.775 170.836 659.775 167.4V20.6085C659.775 17 658.231 14.0411 655.138 11.7214C652.05 9.40424 650.504 7.56134 650.504 6.18498V5.66949C650.504 3.61011 652.218 2.58168 655.654 2.58168H688.104C691.535 2.58168 693.254 3.61011 693.254 5.66949V6.18498C693.254 7.56134 691.578 9.40424 688.233 11.7214C684.885 14.0411 683.209 17 683.209 20.6085V164.825C683.209 171.519 685.954 174.867 691.452 174.867H748.623C752.056 174.867 755.146 173.411 757.894 170.49C760.639 167.573 762.786 164.31 764.332 160.704C765.879 157.098 767.68 153.837 769.74 150.917C771.802 147.999 773.774 146.538 775.665 146.538H777.725C780.467 146.538 781.413 148.085 780.557 151.175L774.119 179.504C773.258 183.455 771.111 185.427 767.68 185.427H655.654Z" fill="#EAE8E6"/>
<path d="M793.45 185.427C789.847 185.427 788.043 184.398 788.043 182.336V181.823C788.043 180.622 789.628 178.774 792.806 176.285C795.982 173.797 797.572 170.748 797.572 167.142V20.8636C797.572 18.1212 796.799 15.8427 795.255 14.0411C793.708 12.2368 792.118 10.7806 790.489 9.66197C788.855 8.54593 788.043 7.38866 788.043 6.18498V5.41174C788.043 3.52504 789.587 2.58168 792.677 2.58168H901.871C905.305 2.58168 907.449 4.47098 908.31 8.24438L914.491 33.7406C915.176 37.1764 914.145 38.8904 911.4 38.8904H910.112C908.395 38.8904 906.464 37.563 904.317 34.9005C902.17 32.2379 900.196 29.279 898.394 26.0134C896.593 22.7555 894.276 19.794 891.443 17.1289C888.608 14.4715 885.646 13.1364 882.556 13.1364H827.96C823.151 13.1364 820.748 16.0592 820.748 21.8946V86.5347H867.619C869.849 86.5347 871.741 85.7615 873.285 84.215C874.831 82.6711 875.989 80.9133 876.762 78.939C877.535 76.9672 878.393 75.2017 879.337 73.6578C880.28 72.1139 881.352 71.3406 882.556 71.3406H883.587C885.816 71.3406 886.935 72.802 886.935 75.7197V107.397C886.935 110.314 885.816 111.773 883.587 111.773H882.556C881.352 111.773 880.28 111 879.337 109.454C878.393 107.91 877.535 106.234 876.762 104.433C875.989 102.631 874.831 100.958 873.285 99.4117C871.741 97.8653 869.849 97.0946 867.619 97.0946H820.748L820.491 163.794C820.491 166.885 821.305 169.503 822.937 171.648C824.568 173.797 826.929 174.867 830.019 174.867H890.541C893.631 174.867 896.546 173.496 899.297 170.748C902.041 168.003 904.23 164.954 905.864 161.606C907.493 158.258 909.38 155.211 911.529 152.464C913.674 149.719 915.689 148.342 917.581 148.342H919.127C920.326 148.342 921.228 148.858 921.831 149.889C922.429 150.917 922.558 152.121 922.215 153.492L916.037 179.504C915.176 183.455 912.944 185.427 909.341 185.427H793.45Z" fill="#EAE8E6"/>
<path d="M1080.59 188C1057.76 188 1037.58 178.389 1020.07 159.158C1002.56 139.93 993.803 117.61 993.803 92.1984C993.803 65.2459 1001.83 43.1828 1017.88 26.0117C1033.93 8.84586 1054.41 0.260345 1079.3 0.260345C1098.18 0.260345 1114.63 5.6266 1128.62 16.354C1142.61 27.0865 1149.61 37.6 1149.61 47.9047C1149.61 51.3405 1148.62 54.0442 1146.65 56.016C1144.67 57.9929 1141.88 58.9749 1138.28 58.9749C1134.84 58.9749 1131.71 57.3021 1128.88 53.954C1126.04 50.6059 1123.26 46.616 1120.51 41.9817C1117.76 37.3448 1114.63 32.6667 1111.11 27.9448C1107.59 23.2229 1102.61 19.1892 1096.17 15.8411C1089.73 12.493 1082.14 10.8202 1073.38 10.8202C1057.93 10.8202 1044.67 17.2561 1033.59 30.1331C1022.52 43.0101 1016.98 59.4079 1016.98 79.3214C1016.98 104.56 1023.97 125.551 1037.97 142.289C1051.96 159.029 1068.31 167.398 1087.03 167.398C1100.93 167.398 1112.65 163.192 1122.18 154.779C1131.71 146.369 1138.88 136.324 1143.69 124.649C1145.23 121.901 1147.38 120.873 1150.12 121.558C1152.87 122.244 1153.9 124.388 1153.21 127.997C1150.12 144.652 1142.27 158.815 1129.65 170.489C1117.03 182.165 1100.68 188 1080.59 188Z" fill="#EAE8E6"/>
<path d="M1168.94 185.427C1165.51 185.427 1163.79 184.398 1163.79 182.336V181.823C1163.79 180.622 1165.34 178.774 1168.43 176.285C1171.52 173.797 1173.06 170.836 1173.06 167.4V20.6085C1173.06 17.1753 1171.52 14.2112 1168.43 11.7214C1165.34 9.23671 1163.79 7.38866 1163.79 6.18498V5.66949C1163.79 3.61011 1165.51 2.58168 1168.94 2.58168H1201.14C1204.57 2.58168 1206.28 3.61011 1206.28 5.66949V6.18498C1206.28 7.38866 1205.47 8.59233 1203.84 9.78828C1202.2 10.992 1200.57 12.4559 1198.95 14.17C1197.31 15.8865 1196.5 18.031 1196.5 20.6085L1196.24 86.5347H1297.45L1297.19 20.6085C1297.19 17.1753 1295.65 14.2112 1292.56 11.7214C1289.47 9.23671 1287.92 7.38866 1287.92 6.18498V5.66949C1287.92 3.61011 1289.64 2.58168 1293.07 2.58168H1325.26C1328.87 2.58168 1330.67 3.61011 1330.67 5.66949V6.18498C1330.67 7.38866 1329.81 8.59233 1328.1 9.78828C1326.38 10.992 1324.71 12.4559 1323.08 14.17C1321.44 15.8865 1320.63 18.031 1320.63 20.6085V167.4C1320.63 169.975 1321.44 172.124 1323.08 173.838C1324.71 175.555 1326.38 177.017 1328.1 178.215C1329.81 179.419 1330.67 180.622 1330.67 181.823V182.336C1330.67 184.398 1328.87 185.427 1325.26 185.427H1293.07C1289.64 185.427 1287.92 184.398 1287.92 182.336V181.823C1287.92 180.622 1289.47 178.774 1292.56 176.285C1295.65 173.797 1297.19 170.836 1297.19 167.4L1297.45 97.8653H1196.5V167.4C1196.5 169.975 1197.31 172.124 1198.95 173.838C1200.57 175.555 1202.2 177.017 1203.84 178.215C1205.47 179.419 1206.28 180.622 1206.28 181.823V182.336C1206.28 184.398 1204.57 185.427 1201.14 185.427H1168.94Z" fill="#EAE8E6"/>
<path d="M1444.48 176.927C1461.3 176.927 1475.3 170.321 1486.46 157.096C1497.61 143.879 1503.2 128.34 1503.2 110.483C1503.2 82.6695 1496.24 59.1501 1482.34 39.9197C1468.43 20.6944 1450.66 11.0753 1429.03 11.0753C1411.86 11.0753 1397.78 17.4288 1386.79 30.1331C1375.8 42.8425 1370.31 58.7197 1370.31 77.7749C1370.31 105.075 1377.31 128.427 1391.3 147.825C1405.29 167.228 1423.02 176.927 1444.48 176.927ZM1438.81 188C1412.37 188 1390.48 178.644 1373.14 159.929C1355.8 141.219 1347.13 119.071 1347.13 93.4871C1347.13 66.5346 1355.54 44.2138 1372.37 26.5272C1389.2 8.84584 1410.74 1.52588e-05 1437.01 1.52588e-05C1462.93 1.52588e-05 1484.31 9.2737 1501.13 27.8134C1517.96 46.3582 1526.37 68.7615 1526.37 95.0336C1526.37 120.615 1517.92 142.508 1501.01 160.702C1484.09 178.904 1463.36 188 1438.81 188Z" fill="#EAE8E6"/>
</g>
</svg>
